%TF.GenerationSoftware,KiCad,Pcbnew,8.0.5*%
%TF.CreationDate,2024-10-21T04:05:45+03:00*%
%TF.ProjectId,DC36_DC5,44433336-5f44-4433-952e-6b696361645f,rev?*%
%TF.SameCoordinates,Original*%
%TF.FileFunction,Legend,Top*%
%TF.FilePolarity,Positive*%
%FSLAX46Y46*%
G04 Gerber Fmt 4.6, Leading zero omitted, Abs format (unit mm)*
G04 Created by KiCad (PCBNEW 8.0.5) date 2024-10-21 04:05:45*
%MOMM*%
%LPD*%
G01*
G04 APERTURE LIST*
%ADD10C,0.150000*%
%ADD11C,0.400000*%
%ADD12C,0.120000*%
G04 APERTURE END LIST*
D10*
X153871819Y-98138094D02*
X152871819Y-98138094D01*
X152871819Y-98138094D02*
X152871819Y-97899999D01*
X152871819Y-97899999D02*
X152919438Y-97757142D01*
X152919438Y-97757142D02*
X153014676Y-97661904D01*
X153014676Y-97661904D02*
X153109914Y-97614285D01*
X153109914Y-97614285D02*
X153300390Y-97566666D01*
X153300390Y-97566666D02*
X153443247Y-97566666D01*
X153443247Y-97566666D02*
X153633723Y-97614285D01*
X153633723Y-97614285D02*
X153728961Y-97661904D01*
X153728961Y-97661904D02*
X153824200Y-97757142D01*
X153824200Y-97757142D02*
X153871819Y-97899999D01*
X153871819Y-97899999D02*
X153871819Y-98138094D01*
X152871819Y-97233332D02*
X152871819Y-96614285D01*
X152871819Y-96614285D02*
X153252771Y-96947618D01*
X153252771Y-96947618D02*
X153252771Y-96804761D01*
X153252771Y-96804761D02*
X153300390Y-96709523D01*
X153300390Y-96709523D02*
X153348009Y-96661904D01*
X153348009Y-96661904D02*
X153443247Y-96614285D01*
X153443247Y-96614285D02*
X153681342Y-96614285D01*
X153681342Y-96614285D02*
X153776580Y-96661904D01*
X153776580Y-96661904D02*
X153824200Y-96709523D01*
X153824200Y-96709523D02*
X153871819Y-96804761D01*
X153871819Y-96804761D02*
X153871819Y-97090475D01*
X153871819Y-97090475D02*
X153824200Y-97185713D01*
X153824200Y-97185713D02*
X153776580Y-97233332D01*
D11*
X90043286Y-87391533D02*
X91567096Y-87391533D01*
X90805191Y-88153438D02*
X90805191Y-86629628D01*
X92519476Y-88153438D02*
X92519476Y-86153438D01*
X93471857Y-88153438D02*
X93471857Y-86153438D01*
X93471857Y-86153438D02*
X94614714Y-88153438D01*
X94614714Y-88153438D02*
X94614714Y-86153438D01*
D10*
X102639905Y-113865819D02*
X102639905Y-112865819D01*
X102639905Y-112865819D02*
X102878000Y-112865819D01*
X102878000Y-112865819D02*
X103020857Y-112913438D01*
X103020857Y-112913438D02*
X103116095Y-113008676D01*
X103116095Y-113008676D02*
X103163714Y-113103914D01*
X103163714Y-113103914D02*
X103211333Y-113294390D01*
X103211333Y-113294390D02*
X103211333Y-113437247D01*
X103211333Y-113437247D02*
X103163714Y-113627723D01*
X103163714Y-113627723D02*
X103116095Y-113722961D01*
X103116095Y-113722961D02*
X103020857Y-113818200D01*
X103020857Y-113818200D02*
X102878000Y-113865819D01*
X102878000Y-113865819D02*
X102639905Y-113865819D01*
X104163714Y-113865819D02*
X103592286Y-113865819D01*
X103878000Y-113865819D02*
X103878000Y-112865819D01*
X103878000Y-112865819D02*
X103782762Y-113008676D01*
X103782762Y-113008676D02*
X103687524Y-113103914D01*
X103687524Y-113103914D02*
X103592286Y-113151533D01*
X111466333Y-112373580D02*
X111418714Y-112421200D01*
X111418714Y-112421200D02*
X111275857Y-112468819D01*
X111275857Y-112468819D02*
X111180619Y-112468819D01*
X111180619Y-112468819D02*
X111037762Y-112421200D01*
X111037762Y-112421200D02*
X110942524Y-112325961D01*
X110942524Y-112325961D02*
X110894905Y-112230723D01*
X110894905Y-112230723D02*
X110847286Y-112040247D01*
X110847286Y-112040247D02*
X110847286Y-111897390D01*
X110847286Y-111897390D02*
X110894905Y-111706914D01*
X110894905Y-111706914D02*
X110942524Y-111611676D01*
X110942524Y-111611676D02*
X111037762Y-111516438D01*
X111037762Y-111516438D02*
X111180619Y-111468819D01*
X111180619Y-111468819D02*
X111275857Y-111468819D01*
X111275857Y-111468819D02*
X111418714Y-111516438D01*
X111418714Y-111516438D02*
X111466333Y-111564057D01*
X112371095Y-111468819D02*
X111894905Y-111468819D01*
X111894905Y-111468819D02*
X111847286Y-111945009D01*
X111847286Y-111945009D02*
X111894905Y-111897390D01*
X111894905Y-111897390D02*
X111990143Y-111849771D01*
X111990143Y-111849771D02*
X112228238Y-111849771D01*
X112228238Y-111849771D02*
X112323476Y-111897390D01*
X112323476Y-111897390D02*
X112371095Y-111945009D01*
X112371095Y-111945009D02*
X112418714Y-112040247D01*
X112418714Y-112040247D02*
X112418714Y-112278342D01*
X112418714Y-112278342D02*
X112371095Y-112373580D01*
X112371095Y-112373580D02*
X112323476Y-112421200D01*
X112323476Y-112421200D02*
X112228238Y-112468819D01*
X112228238Y-112468819D02*
X111990143Y-112468819D01*
X111990143Y-112468819D02*
X111894905Y-112421200D01*
X111894905Y-112421200D02*
X111847286Y-112373580D01*
X148273580Y-86907666D02*
X148321200Y-86955285D01*
X148321200Y-86955285D02*
X148368819Y-87098142D01*
X148368819Y-87098142D02*
X148368819Y-87193380D01*
X148368819Y-87193380D02*
X148321200Y-87336237D01*
X148321200Y-87336237D02*
X148225961Y-87431475D01*
X148225961Y-87431475D02*
X148130723Y-87479094D01*
X148130723Y-87479094D02*
X147940247Y-87526713D01*
X147940247Y-87526713D02*
X147797390Y-87526713D01*
X147797390Y-87526713D02*
X147606914Y-87479094D01*
X147606914Y-87479094D02*
X147511676Y-87431475D01*
X147511676Y-87431475D02*
X147416438Y-87336237D01*
X147416438Y-87336237D02*
X147368819Y-87193380D01*
X147368819Y-87193380D02*
X147368819Y-87098142D01*
X147368819Y-87098142D02*
X147416438Y-86955285D01*
X147416438Y-86955285D02*
X147464057Y-86907666D01*
X147368819Y-86574332D02*
X147368819Y-85955285D01*
X147368819Y-85955285D02*
X147749771Y-86288618D01*
X147749771Y-86288618D02*
X147749771Y-86145761D01*
X147749771Y-86145761D02*
X147797390Y-86050523D01*
X147797390Y-86050523D02*
X147845009Y-86002904D01*
X147845009Y-86002904D02*
X147940247Y-85955285D01*
X147940247Y-85955285D02*
X148178342Y-85955285D01*
X148178342Y-85955285D02*
X148273580Y-86002904D01*
X148273580Y-86002904D02*
X148321200Y-86050523D01*
X148321200Y-86050523D02*
X148368819Y-86145761D01*
X148368819Y-86145761D02*
X148368819Y-86431475D01*
X148368819Y-86431475D02*
X148321200Y-86526713D01*
X148321200Y-86526713D02*
X148273580Y-86574332D01*
X142771905Y-112849819D02*
X142771905Y-111849819D01*
X142771905Y-111849819D02*
X143010000Y-111849819D01*
X143010000Y-111849819D02*
X143152857Y-111897438D01*
X143152857Y-111897438D02*
X143248095Y-111992676D01*
X143248095Y-111992676D02*
X143295714Y-112087914D01*
X143295714Y-112087914D02*
X143343333Y-112278390D01*
X143343333Y-112278390D02*
X143343333Y-112421247D01*
X143343333Y-112421247D02*
X143295714Y-112611723D01*
X143295714Y-112611723D02*
X143248095Y-112706961D01*
X143248095Y-112706961D02*
X143152857Y-112802200D01*
X143152857Y-112802200D02*
X143010000Y-112849819D01*
X143010000Y-112849819D02*
X142771905Y-112849819D01*
X143724286Y-111945057D02*
X143771905Y-111897438D01*
X143771905Y-111897438D02*
X143867143Y-111849819D01*
X143867143Y-111849819D02*
X144105238Y-111849819D01*
X144105238Y-111849819D02*
X144200476Y-111897438D01*
X144200476Y-111897438D02*
X144248095Y-111945057D01*
X144248095Y-111945057D02*
X144295714Y-112040295D01*
X144295714Y-112040295D02*
X144295714Y-112135533D01*
X144295714Y-112135533D02*
X144248095Y-112278390D01*
X144248095Y-112278390D02*
X143676667Y-112849819D01*
X143676667Y-112849819D02*
X144295714Y-112849819D01*
X99728580Y-86907666D02*
X99776200Y-86955285D01*
X99776200Y-86955285D02*
X99823819Y-87098142D01*
X99823819Y-87098142D02*
X99823819Y-87193380D01*
X99823819Y-87193380D02*
X99776200Y-87336237D01*
X99776200Y-87336237D02*
X99680961Y-87431475D01*
X99680961Y-87431475D02*
X99585723Y-87479094D01*
X99585723Y-87479094D02*
X99395247Y-87526713D01*
X99395247Y-87526713D02*
X99252390Y-87526713D01*
X99252390Y-87526713D02*
X99061914Y-87479094D01*
X99061914Y-87479094D02*
X98966676Y-87431475D01*
X98966676Y-87431475D02*
X98871438Y-87336237D01*
X98871438Y-87336237D02*
X98823819Y-87193380D01*
X98823819Y-87193380D02*
X98823819Y-87098142D01*
X98823819Y-87098142D02*
X98871438Y-86955285D01*
X98871438Y-86955285D02*
X98919057Y-86907666D01*
X98919057Y-86526713D02*
X98871438Y-86479094D01*
X98871438Y-86479094D02*
X98823819Y-86383856D01*
X98823819Y-86383856D02*
X98823819Y-86145761D01*
X98823819Y-86145761D02*
X98871438Y-86050523D01*
X98871438Y-86050523D02*
X98919057Y-86002904D01*
X98919057Y-86002904D02*
X99014295Y-85955285D01*
X99014295Y-85955285D02*
X99109533Y-85955285D01*
X99109533Y-85955285D02*
X99252390Y-86002904D01*
X99252390Y-86002904D02*
X99823819Y-86574332D01*
X99823819Y-86574332D02*
X99823819Y-85955285D01*
X95604009Y-95837333D02*
X95604009Y-96170666D01*
X96127819Y-96170666D02*
X95127819Y-96170666D01*
X95127819Y-96170666D02*
X95127819Y-95694476D01*
X96127819Y-94789714D02*
X96127819Y-95361142D01*
X96127819Y-95075428D02*
X95127819Y-95075428D01*
X95127819Y-95075428D02*
X95270676Y-95170666D01*
X95270676Y-95170666D02*
X95365914Y-95265904D01*
X95365914Y-95265904D02*
X95413533Y-95361142D01*
X95830580Y-90476666D02*
X95878200Y-90524285D01*
X95878200Y-90524285D02*
X95925819Y-90667142D01*
X95925819Y-90667142D02*
X95925819Y-90762380D01*
X95925819Y-90762380D02*
X95878200Y-90905237D01*
X95878200Y-90905237D02*
X95782961Y-91000475D01*
X95782961Y-91000475D02*
X95687723Y-91048094D01*
X95687723Y-91048094D02*
X95497247Y-91095713D01*
X95497247Y-91095713D02*
X95354390Y-91095713D01*
X95354390Y-91095713D02*
X95163914Y-91048094D01*
X95163914Y-91048094D02*
X95068676Y-91000475D01*
X95068676Y-91000475D02*
X94973438Y-90905237D01*
X94973438Y-90905237D02*
X94925819Y-90762380D01*
X94925819Y-90762380D02*
X94925819Y-90667142D01*
X94925819Y-90667142D02*
X94973438Y-90524285D01*
X94973438Y-90524285D02*
X95021057Y-90476666D01*
X95925819Y-89524285D02*
X95925819Y-90095713D01*
X95925819Y-89809999D02*
X94925819Y-89809999D01*
X94925819Y-89809999D02*
X95068676Y-89905237D01*
X95068676Y-89905237D02*
X95163914Y-90000475D01*
X95163914Y-90000475D02*
X95211533Y-90095713D01*
D11*
X149923952Y-87391533D02*
X151447762Y-87391533D01*
X150685857Y-88153438D02*
X150685857Y-86629628D01*
X152781094Y-86153438D02*
X153162047Y-86153438D01*
X153162047Y-86153438D02*
X153352523Y-86248676D01*
X153352523Y-86248676D02*
X153542999Y-86439152D01*
X153542999Y-86439152D02*
X153638237Y-86820104D01*
X153638237Y-86820104D02*
X153638237Y-87486771D01*
X153638237Y-87486771D02*
X153542999Y-87867723D01*
X153542999Y-87867723D02*
X153352523Y-88058200D01*
X153352523Y-88058200D02*
X153162047Y-88153438D01*
X153162047Y-88153438D02*
X152781094Y-88153438D01*
X152781094Y-88153438D02*
X152590618Y-88058200D01*
X152590618Y-88058200D02*
X152400142Y-87867723D01*
X152400142Y-87867723D02*
X152304904Y-87486771D01*
X152304904Y-87486771D02*
X152304904Y-86820104D01*
X152304904Y-86820104D02*
X152400142Y-86439152D01*
X152400142Y-86439152D02*
X152590618Y-86248676D01*
X152590618Y-86248676D02*
X152781094Y-86153438D01*
X154495380Y-86153438D02*
X154495380Y-87772485D01*
X154495380Y-87772485D02*
X154590618Y-87962961D01*
X154590618Y-87962961D02*
X154685856Y-88058200D01*
X154685856Y-88058200D02*
X154876332Y-88153438D01*
X154876332Y-88153438D02*
X155257285Y-88153438D01*
X155257285Y-88153438D02*
X155447761Y-88058200D01*
X155447761Y-88058200D02*
X155542999Y-87962961D01*
X155542999Y-87962961D02*
X155638237Y-87772485D01*
X155638237Y-87772485D02*
X155638237Y-86153438D01*
X156304904Y-86153438D02*
X157447761Y-86153438D01*
X156876332Y-88153438D02*
X156876332Y-86153438D01*
D10*
X123785333Y-110944819D02*
X123452000Y-110468628D01*
X123213905Y-110944819D02*
X123213905Y-109944819D01*
X123213905Y-109944819D02*
X123594857Y-109944819D01*
X123594857Y-109944819D02*
X123690095Y-109992438D01*
X123690095Y-109992438D02*
X123737714Y-110040057D01*
X123737714Y-110040057D02*
X123785333Y-110135295D01*
X123785333Y-110135295D02*
X123785333Y-110278152D01*
X123785333Y-110278152D02*
X123737714Y-110373390D01*
X123737714Y-110373390D02*
X123690095Y-110421009D01*
X123690095Y-110421009D02*
X123594857Y-110468628D01*
X123594857Y-110468628D02*
X123213905Y-110468628D01*
X124166286Y-110040057D02*
X124213905Y-109992438D01*
X124213905Y-109992438D02*
X124309143Y-109944819D01*
X124309143Y-109944819D02*
X124547238Y-109944819D01*
X124547238Y-109944819D02*
X124642476Y-109992438D01*
X124642476Y-109992438D02*
X124690095Y-110040057D01*
X124690095Y-110040057D02*
X124737714Y-110135295D01*
X124737714Y-110135295D02*
X124737714Y-110230533D01*
X124737714Y-110230533D02*
X124690095Y-110373390D01*
X124690095Y-110373390D02*
X124118667Y-110944819D01*
X124118667Y-110944819D02*
X124737714Y-110944819D01*
X114152819Y-86907666D02*
X114152819Y-87383856D01*
X114152819Y-87383856D02*
X113152819Y-87383856D01*
X114152819Y-86050523D02*
X114152819Y-86621951D01*
X114152819Y-86336237D02*
X113152819Y-86336237D01*
X113152819Y-86336237D02*
X113295676Y-86431475D01*
X113295676Y-86431475D02*
X113390914Y-86526713D01*
X113390914Y-86526713D02*
X113438533Y-86621951D01*
D11*
X90170286Y-105298533D02*
X91694096Y-105298533D01*
X92646476Y-106060438D02*
X92646476Y-104060438D01*
X93598857Y-106060438D02*
X93598857Y-104060438D01*
X93598857Y-104060438D02*
X94741714Y-106060438D01*
X94741714Y-106060438D02*
X94741714Y-104060438D01*
X149923952Y-105298533D02*
X151447762Y-105298533D01*
X152781094Y-104060438D02*
X153162047Y-104060438D01*
X153162047Y-104060438D02*
X153352523Y-104155676D01*
X153352523Y-104155676D02*
X153542999Y-104346152D01*
X153542999Y-104346152D02*
X153638237Y-104727104D01*
X153638237Y-104727104D02*
X153638237Y-105393771D01*
X153638237Y-105393771D02*
X153542999Y-105774723D01*
X153542999Y-105774723D02*
X153352523Y-105965200D01*
X153352523Y-105965200D02*
X153162047Y-106060438D01*
X153162047Y-106060438D02*
X152781094Y-106060438D01*
X152781094Y-106060438D02*
X152590618Y-105965200D01*
X152590618Y-105965200D02*
X152400142Y-105774723D01*
X152400142Y-105774723D02*
X152304904Y-105393771D01*
X152304904Y-105393771D02*
X152304904Y-104727104D01*
X152304904Y-104727104D02*
X152400142Y-104346152D01*
X152400142Y-104346152D02*
X152590618Y-104155676D01*
X152590618Y-104155676D02*
X152781094Y-104060438D01*
X154495380Y-104060438D02*
X154495380Y-105679485D01*
X154495380Y-105679485D02*
X154590618Y-105869961D01*
X154590618Y-105869961D02*
X154685856Y-105965200D01*
X154685856Y-105965200D02*
X154876332Y-106060438D01*
X154876332Y-106060438D02*
X155257285Y-106060438D01*
X155257285Y-106060438D02*
X155447761Y-105965200D01*
X155447761Y-105965200D02*
X155542999Y-105869961D01*
X155542999Y-105869961D02*
X155638237Y-105679485D01*
X155638237Y-105679485D02*
X155638237Y-104060438D01*
X156304904Y-104060438D02*
X157447761Y-104060438D01*
X156876332Y-106060438D02*
X156876332Y-104060438D01*
D10*
X111545761Y-110817819D02*
X111212428Y-110341628D01*
X110974333Y-110817819D02*
X110974333Y-109817819D01*
X110974333Y-109817819D02*
X111355285Y-109817819D01*
X111355285Y-109817819D02*
X111450523Y-109865438D01*
X111450523Y-109865438D02*
X111498142Y-109913057D01*
X111498142Y-109913057D02*
X111545761Y-110008295D01*
X111545761Y-110008295D02*
X111545761Y-110151152D01*
X111545761Y-110151152D02*
X111498142Y-110246390D01*
X111498142Y-110246390D02*
X111450523Y-110294009D01*
X111450523Y-110294009D02*
X111355285Y-110341628D01*
X111355285Y-110341628D02*
X110974333Y-110341628D01*
X111831476Y-109817819D02*
X112164809Y-110817819D01*
X112164809Y-110817819D02*
X112498142Y-109817819D01*
X113355285Y-110817819D02*
X112783857Y-110817819D01*
X113069571Y-110817819D02*
X113069571Y-109817819D01*
X113069571Y-109817819D02*
X112974333Y-109960676D01*
X112974333Y-109960676D02*
X112879095Y-110055914D01*
X112879095Y-110055914D02*
X112783857Y-110103533D01*
X119277333Y-110911819D02*
X118944000Y-110435628D01*
X118705905Y-110911819D02*
X118705905Y-109911819D01*
X118705905Y-109911819D02*
X119086857Y-109911819D01*
X119086857Y-109911819D02*
X119182095Y-109959438D01*
X119182095Y-109959438D02*
X119229714Y-110007057D01*
X119229714Y-110007057D02*
X119277333Y-110102295D01*
X119277333Y-110102295D02*
X119277333Y-110245152D01*
X119277333Y-110245152D02*
X119229714Y-110340390D01*
X119229714Y-110340390D02*
X119182095Y-110388009D01*
X119182095Y-110388009D02*
X119086857Y-110435628D01*
X119086857Y-110435628D02*
X118705905Y-110435628D01*
X119610667Y-109911819D02*
X120229714Y-109911819D01*
X120229714Y-109911819D02*
X119896381Y-110292771D01*
X119896381Y-110292771D02*
X120039238Y-110292771D01*
X120039238Y-110292771D02*
X120134476Y-110340390D01*
X120134476Y-110340390D02*
X120182095Y-110388009D01*
X120182095Y-110388009D02*
X120229714Y-110483247D01*
X120229714Y-110483247D02*
X120229714Y-110721342D01*
X120229714Y-110721342D02*
X120182095Y-110816580D01*
X120182095Y-110816580D02*
X120134476Y-110864200D01*
X120134476Y-110864200D02*
X120039238Y-110911819D01*
X120039238Y-110911819D02*
X119753524Y-110911819D01*
X119753524Y-110911819D02*
X119658286Y-110864200D01*
X119658286Y-110864200D02*
X119610667Y-110816580D01*
X152252819Y-91225666D02*
X151776628Y-91558999D01*
X152252819Y-91797094D02*
X151252819Y-91797094D01*
X151252819Y-91797094D02*
X151252819Y-91416142D01*
X151252819Y-91416142D02*
X151300438Y-91320904D01*
X151300438Y-91320904D02*
X151348057Y-91273285D01*
X151348057Y-91273285D02*
X151443295Y-91225666D01*
X151443295Y-91225666D02*
X151586152Y-91225666D01*
X151586152Y-91225666D02*
X151681390Y-91273285D01*
X151681390Y-91273285D02*
X151729009Y-91320904D01*
X151729009Y-91320904D02*
X151776628Y-91416142D01*
X151776628Y-91416142D02*
X151776628Y-91797094D01*
X152252819Y-90273285D02*
X152252819Y-90844713D01*
X152252819Y-90558999D02*
X151252819Y-90558999D01*
X151252819Y-90558999D02*
X151395676Y-90654237D01*
X151395676Y-90654237D02*
X151490914Y-90749475D01*
X151490914Y-90749475D02*
X151538533Y-90844713D01*
X138009333Y-80115580D02*
X137961714Y-80163200D01*
X137961714Y-80163200D02*
X137818857Y-80210819D01*
X137818857Y-80210819D02*
X137723619Y-80210819D01*
X137723619Y-80210819D02*
X137580762Y-80163200D01*
X137580762Y-80163200D02*
X137485524Y-80067961D01*
X137485524Y-80067961D02*
X137437905Y-79972723D01*
X137437905Y-79972723D02*
X137390286Y-79782247D01*
X137390286Y-79782247D02*
X137390286Y-79639390D01*
X137390286Y-79639390D02*
X137437905Y-79448914D01*
X137437905Y-79448914D02*
X137485524Y-79353676D01*
X137485524Y-79353676D02*
X137580762Y-79258438D01*
X137580762Y-79258438D02*
X137723619Y-79210819D01*
X137723619Y-79210819D02*
X137818857Y-79210819D01*
X137818857Y-79210819D02*
X137961714Y-79258438D01*
X137961714Y-79258438D02*
X138009333Y-79306057D01*
X138866476Y-79544152D02*
X138866476Y-80210819D01*
X138628381Y-79163200D02*
X138390286Y-79877485D01*
X138390286Y-79877485D02*
X139009333Y-79877485D01*
X129316095Y-96846819D02*
X129316095Y-97656342D01*
X129316095Y-97656342D02*
X129363714Y-97751580D01*
X129363714Y-97751580D02*
X129411333Y-97799200D01*
X129411333Y-97799200D02*
X129506571Y-97846819D01*
X129506571Y-97846819D02*
X129697047Y-97846819D01*
X129697047Y-97846819D02*
X129792285Y-97799200D01*
X129792285Y-97799200D02*
X129839904Y-97751580D01*
X129839904Y-97751580D02*
X129887523Y-97656342D01*
X129887523Y-97656342D02*
X129887523Y-96846819D01*
X130887523Y-97846819D02*
X130316095Y-97846819D01*
X130601809Y-97846819D02*
X130601809Y-96846819D01*
X130601809Y-96846819D02*
X130506571Y-96989676D01*
X130506571Y-96989676D02*
X130411333Y-97084914D01*
X130411333Y-97084914D02*
X130316095Y-97132533D01*
D12*
%TO.C,D3*%
X154107000Y-96400000D02*
X154107000Y-99260000D01*
X154107000Y-99260000D02*
X156027000Y-99260000D01*
X156027000Y-99260000D02*
X156027000Y-96400000D01*
%TO.C,D1*%
X98940000Y-99974000D02*
X99750000Y-99974000D01*
X98940000Y-101474000D02*
X98940000Y-99974000D01*
X109340000Y-99969000D02*
X108470000Y-99969000D01*
X109340000Y-101474000D02*
X109340000Y-99974000D01*
X109560000Y-97659000D02*
X109230000Y-97419000D01*
X109560000Y-97179000D01*
X109560000Y-97659000D01*
G36*
X109560000Y-97659000D02*
G01*
X109230000Y-97419000D01*
X109560000Y-97179000D01*
X109560000Y-97659000D01*
G37*
%TO.C,C5*%
X114286420Y-111377000D02*
X114567580Y-111377000D01*
X114286420Y-112397000D02*
X114567580Y-112397000D01*
%TO.C,C3*%
X136254000Y-82445437D02*
X136254000Y-92101000D01*
X136254000Y-92101000D02*
X140104000Y-92101000D01*
X137318437Y-81381000D02*
X136254000Y-82445437D01*
X137318437Y-81381000D02*
X140104000Y-81381000D01*
X137344000Y-83435437D02*
X137344000Y-90891000D01*
X137344000Y-90891000D02*
X140094000Y-90891000D01*
X138408437Y-82371000D02*
X137344000Y-83435437D01*
X138408437Y-82371000D02*
X140094000Y-82371000D01*
X144374000Y-79891000D02*
X144374000Y-81141000D01*
X144799563Y-82371000D02*
X143114000Y-82371000D01*
X144799563Y-82371000D02*
X145864000Y-83435437D01*
X144999000Y-80516000D02*
X143749000Y-80516000D01*
X145864000Y-83435437D02*
X145864000Y-90891000D01*
X145864000Y-90891000D02*
X143114000Y-90891000D01*
X145909563Y-81381000D02*
X143124000Y-81381000D01*
X145909563Y-81381000D02*
X146974000Y-82445437D01*
X146974000Y-82445437D02*
X146974000Y-92101000D01*
X146974000Y-92101000D02*
X143124000Y-92101000D01*
%TO.C,D2*%
X138154000Y-103437000D02*
X138154000Y-104937000D01*
X138154000Y-104942000D02*
X139024000Y-104942000D01*
X148554000Y-103437000D02*
X148554000Y-104937000D01*
X148554000Y-104937000D02*
X147744000Y-104937000D01*
X138264000Y-107492000D02*
X137934000Y-107732000D01*
X137934000Y-107252000D01*
X138264000Y-107492000D01*
G36*
X138264000Y-107492000D02*
G01*
X137934000Y-107732000D01*
X137934000Y-107252000D01*
X138264000Y-107492000D01*
G37*
%TO.C,C2*%
X100309000Y-81381000D02*
X104159000Y-81381000D01*
X100309000Y-91036563D02*
X100309000Y-81381000D01*
X101373437Y-92101000D02*
X100309000Y-91036563D01*
X101373437Y-92101000D02*
X104159000Y-92101000D01*
X101419000Y-82591000D02*
X104169000Y-82591000D01*
X101419000Y-90046563D02*
X101419000Y-82591000D01*
X102284000Y-92966000D02*
X103534000Y-92966000D01*
X102483437Y-91111000D02*
X101419000Y-90046563D01*
X102483437Y-91111000D02*
X104169000Y-91111000D01*
X102909000Y-93591000D02*
X102909000Y-92341000D01*
X108874563Y-91111000D02*
X107189000Y-91111000D01*
X108874563Y-91111000D02*
X109939000Y-90046563D01*
X109939000Y-82591000D02*
X107189000Y-82591000D01*
X109939000Y-90046563D02*
X109939000Y-82591000D01*
X109964563Y-92101000D02*
X107179000Y-92101000D01*
X109964563Y-92101000D02*
X111029000Y-91036563D01*
X111029000Y-81381000D02*
X107179000Y-81381000D01*
X111029000Y-91036563D02*
X111029000Y-81381000D01*
%TO.C,F1*%
X91573000Y-91854000D02*
X91573000Y-97176000D01*
X91573000Y-98933000D02*
X91573000Y-99154000D01*
X91823000Y-99154000D02*
X91573000Y-99154000D01*
X93023000Y-91854000D02*
X91573000Y-91854000D01*
X94773000Y-91854000D02*
X94523000Y-91854000D01*
X94773000Y-91854000D02*
X94773000Y-92075000D01*
X94773000Y-93833000D02*
X94773000Y-99154000D01*
X94773000Y-99154000D02*
X93322000Y-99154000D01*
%TO.C,C1*%
X96391000Y-90450580D02*
X96391000Y-90169420D01*
X97411000Y-90450580D02*
X97411000Y-90169420D01*
%TO.C,R2*%
X123778742Y-111364500D02*
X124253258Y-111364500D01*
X123778742Y-112409500D02*
X124253258Y-112409500D01*
%TO.C,L1*%
X114438000Y-77906000D02*
X116613000Y-77906000D01*
X114438000Y-95576000D02*
X114438000Y-77906000D01*
X114438000Y-95576000D02*
X116613000Y-95576000D01*
X132108000Y-77906000D02*
X129933000Y-77906000D01*
X132108000Y-95576000D02*
X129933000Y-95576000D01*
X132108000Y-95576000D02*
X132108000Y-77906000D01*
%TO.C,RV1*%
X111633000Y-99255000D02*
X111633000Y-109025000D01*
X116703000Y-99255000D02*
X111633000Y-99255000D01*
X116703000Y-99255000D02*
X116703000Y-109025000D01*
X116703000Y-109025000D02*
X111633000Y-109025000D01*
%TO.C,R3*%
X119206742Y-111364500D02*
X119681258Y-111364500D01*
X119206742Y-112409500D02*
X119681258Y-112409500D01*
%TO.C,R1*%
X149845500Y-90821742D02*
X149845500Y-91296258D01*
X150890500Y-90821742D02*
X150890500Y-91296258D01*
%TO.C,C4*%
X133856000Y-91032420D02*
X133856000Y-91313580D01*
X134876000Y-91032420D02*
X134876000Y-91313580D01*
%TO.C,U1*%
X125253000Y-98842000D02*
X125253000Y-99792000D01*
X125253000Y-109242000D02*
X125253000Y-108292000D01*
X126753000Y-98842000D02*
X125253000Y-98842000D01*
X126753000Y-109242000D02*
X125253000Y-109242000D01*
X122690500Y-99792000D02*
X122450500Y-99462000D01*
X122930500Y-99462000D01*
X122690500Y-99792000D01*
G36*
X122690500Y-99792000D02*
G01*
X122450500Y-99462000D01*
X122930500Y-99462000D01*
X122690500Y-99792000D01*
G37*
%TD*%
M02*
