M48
; DRILL file {KiCad 8.0.5} date 2024-10-21T04:05:39+0300
; FORMAT={-:-/ absolute / inch / decimal}
; #@! TF.CreationDate,2024-10-21T04:05:39+03:00
; #@! TF.GenerationSoftware,Kicad,Pcbnew,8.0.5
; #@! TF.FileFunction,Plated,1,2,PTH
FMAT,2
INCH
; #@! TA.AperFunction,Plated,PTH,ViaDrill
T1C0.0118
; #@! TA.AperFunction,Plated,PTH,ViaDrill
T2C0.0197
; #@! TA.AperFunction,Plated,PTH,ComponentDrill
T3C0.0197
; #@! TA.AperFunction,Plated,PTH,ComponentDrill
T4C0.0315
; #@! TA.AperFunction,Plated,PTH,ComponentDrill
T5C0.0398
; #@! TA.AperFunction,Plated,PTH,ComponentDrill
T6C0.1457
%
G90
G05
T1
X4.495Y-3.435
X5.06Y-4.0961
X5.0848Y-3.9869
X5.0848Y-4.2054
X5.1802Y-4.0961
X5.2752Y-4.2048
X5.2757Y-3.9869
X5.355Y-3.105
X5.58Y-3.1
X5.795Y-3.1
T2
X4.6608Y-4.0292
X4.662Y-3.822
T3
X3.5629Y-3.1872
X3.5629Y-4.3683
X3.5949Y-3.1099
X3.5949Y-3.2644
X3.5949Y-4.291
X3.5949Y-4.4455
X3.6722Y-3.0779
X3.6722Y-3.2964
X3.6722Y-4.259
X3.6722Y-4.4775
X3.7494Y-3.1099
X3.7494Y-3.2644
X3.7494Y-4.291
X3.7494Y-4.4455
X3.7814Y-3.1872
X3.7814Y-4.3683
T4
X4.495Y-4.0
X4.495Y-4.1
X4.495Y-4.2
T5
X3.6446Y-3.8604
X3.6919Y-3.6596
T6
X3.6722Y-3.1872
X3.6722Y-4.3683
X6.0344Y-3.1872
X6.0344Y-4.3683
M30
