%TF.GenerationSoftware,KiCad,Pcbnew,8.0.5*%
%TF.CreationDate,2024-10-21T04:05:38+03:00*%
%TF.ProjectId,DC36_DC5,44433336-5f44-4433-952e-6b696361645f,rev?*%
%TF.SameCoordinates,Original*%
%TF.FileFunction,Drillmap*%
%TF.FilePolarity,Positive*%
%FSLAX45Y45*%
G04 Gerber Fmt 4.5, Leading zero omitted, Abs format (unit mm)*
G04 Created by KiCad (PCBNEW 8.0.5) date 2024-10-21 04:05:38*
%MOMM*%
%LPD*%
G01*
G04 APERTURE LIST*
%ADD10C,0.050000*%
%ADD11C,0.200000*%
G04 APERTURE END LIST*
D10*
X15777300Y-11095400D02*
G75*
G02*
X15327300Y-11545400I-450000J0D01*
G01*
X9327300Y-7645400D02*
X15327300Y-7645400D01*
X15777300Y-11095400D02*
X15777300Y-8095400D01*
X8877300Y-8095400D02*
G75*
G02*
X9327300Y-7645400I450000J0D01*
G01*
X9327300Y-11545400D02*
G75*
G02*
X8877300Y-11095400I0J450000D01*
G01*
X15327300Y-7645400D02*
G75*
G02*
X15777300Y-8095400I0J-450000D01*
G01*
X9327300Y-11545400D02*
X15327300Y-11545400D01*
X8877300Y-11095400D02*
X8877300Y-8095400D01*
D11*
X9135577Y-11859384D02*
X9135577Y-11659384D01*
X9135577Y-11659384D02*
X9183196Y-11659384D01*
X9183196Y-11659384D02*
X9211767Y-11668908D01*
X9211767Y-11668908D02*
X9230815Y-11687955D01*
X9230815Y-11687955D02*
X9240339Y-11707003D01*
X9240339Y-11707003D02*
X9249863Y-11745098D01*
X9249863Y-11745098D02*
X9249863Y-11773669D01*
X9249863Y-11773669D02*
X9240339Y-11811765D01*
X9240339Y-11811765D02*
X9230815Y-11830812D01*
X9230815Y-11830812D02*
X9211767Y-11849860D01*
X9211767Y-11849860D02*
X9183196Y-11859384D01*
X9183196Y-11859384D02*
X9135577Y-11859384D01*
X9335577Y-11859384D02*
X9335577Y-11726050D01*
X9335577Y-11764146D02*
X9345101Y-11745098D01*
X9345101Y-11745098D02*
X9354624Y-11735574D01*
X9354624Y-11735574D02*
X9373672Y-11726050D01*
X9373672Y-11726050D02*
X9392720Y-11726050D01*
X9459386Y-11859384D02*
X9459386Y-11726050D01*
X9459386Y-11659384D02*
X9449863Y-11668908D01*
X9449863Y-11668908D02*
X9459386Y-11678431D01*
X9459386Y-11678431D02*
X9468910Y-11668908D01*
X9468910Y-11668908D02*
X9459386Y-11659384D01*
X9459386Y-11659384D02*
X9459386Y-11678431D01*
X9583196Y-11859384D02*
X9564148Y-11849860D01*
X9564148Y-11849860D02*
X9554624Y-11830812D01*
X9554624Y-11830812D02*
X9554624Y-11659384D01*
X9687958Y-11859384D02*
X9668910Y-11849860D01*
X9668910Y-11849860D02*
X9659386Y-11830812D01*
X9659386Y-11830812D02*
X9659386Y-11659384D01*
X9916529Y-11859384D02*
X9916529Y-11659384D01*
X9916529Y-11659384D02*
X9983196Y-11802241D01*
X9983196Y-11802241D02*
X10049863Y-11659384D01*
X10049863Y-11659384D02*
X10049863Y-11859384D01*
X10230815Y-11859384D02*
X10230815Y-11754622D01*
X10230815Y-11754622D02*
X10221291Y-11735574D01*
X10221291Y-11735574D02*
X10202244Y-11726050D01*
X10202244Y-11726050D02*
X10164148Y-11726050D01*
X10164148Y-11726050D02*
X10145101Y-11735574D01*
X10230815Y-11849860D02*
X10211767Y-11859384D01*
X10211767Y-11859384D02*
X10164148Y-11859384D01*
X10164148Y-11859384D02*
X10145101Y-11849860D01*
X10145101Y-11849860D02*
X10135577Y-11830812D01*
X10135577Y-11830812D02*
X10135577Y-11811765D01*
X10135577Y-11811765D02*
X10145101Y-11792717D01*
X10145101Y-11792717D02*
X10164148Y-11783193D01*
X10164148Y-11783193D02*
X10211767Y-11783193D01*
X10211767Y-11783193D02*
X10230815Y-11773669D01*
X10326053Y-11726050D02*
X10326053Y-11926050D01*
X10326053Y-11735574D02*
X10345101Y-11726050D01*
X10345101Y-11726050D02*
X10383196Y-11726050D01*
X10383196Y-11726050D02*
X10402244Y-11735574D01*
X10402244Y-11735574D02*
X10411767Y-11745098D01*
X10411767Y-11745098D02*
X10421291Y-11764146D01*
X10421291Y-11764146D02*
X10421291Y-11821288D01*
X10421291Y-11821288D02*
X10411767Y-11840336D01*
X10411767Y-11840336D02*
X10402244Y-11849860D01*
X10402244Y-11849860D02*
X10383196Y-11859384D01*
X10383196Y-11859384D02*
X10345101Y-11859384D01*
X10345101Y-11859384D02*
X10326053Y-11849860D01*
X10507005Y-11840336D02*
X10516529Y-11849860D01*
X10516529Y-11849860D02*
X10507005Y-11859384D01*
X10507005Y-11859384D02*
X10497482Y-11849860D01*
X10497482Y-11849860D02*
X10507005Y-11840336D01*
X10507005Y-11840336D02*
X10507005Y-11859384D01*
X10507005Y-11735574D02*
X10516529Y-11745098D01*
X10516529Y-11745098D02*
X10507005Y-11754622D01*
X10507005Y-11754622D02*
X10497482Y-11745098D01*
X10497482Y-11745098D02*
X10507005Y-11735574D01*
X10507005Y-11735574D02*
X10507005Y-11754622D01*
M02*
