%TF.GenerationSoftware,KiCad,Pcbnew,8.0.5*%
%TF.CreationDate,2024-10-22T02:27:49+03:00*%
%TF.ProjectId,DC36_DC5,44433336-5f44-4433-952e-6b696361645f,rev?*%
%TF.SameCoordinates,Original*%
%TF.FileFunction,Legend,Top*%
%TF.FilePolarity,Positive*%
%FSLAX46Y46*%
G04 Gerber Fmt 4.6, Leading zero omitted, Abs format (unit mm)*
G04 Created by KiCad (PCBNEW 8.0.5) date 2024-10-22 02:27:49*
%MOMM*%
%LPD*%
G01*
G04 APERTURE LIST*
%ADD10C,0.400000*%
%ADD11C,0.150000*%
%ADD12C,0.120000*%
%ADD13C,0.800000*%
%ADD14C,0.500000*%
G04 APERTURE END LIST*
D10*
X155838561Y-95545728D02*
X155838561Y-94593347D01*
X155838561Y-94593347D02*
X154886180Y-94498109D01*
X154886180Y-94498109D02*
X154981419Y-94593347D01*
X154981419Y-94593347D02*
X155076657Y-94783823D01*
X155076657Y-94783823D02*
X155076657Y-95260014D01*
X155076657Y-95260014D02*
X154981419Y-95450490D01*
X154981419Y-95450490D02*
X154886180Y-95545728D01*
X154886180Y-95545728D02*
X154695704Y-95640966D01*
X154695704Y-95640966D02*
X154219514Y-95640966D01*
X154219514Y-95640966D02*
X154029038Y-95545728D01*
X154029038Y-95545728D02*
X153933800Y-95450490D01*
X153933800Y-95450490D02*
X153838561Y-95260014D01*
X153838561Y-95260014D02*
X153838561Y-94783823D01*
X153838561Y-94783823D02*
X153933800Y-94593347D01*
X153933800Y-94593347D02*
X154029038Y-94498109D01*
X155838561Y-97736205D02*
X153838561Y-98402871D01*
X153838561Y-98402871D02*
X155838561Y-99069538D01*
X93138561Y-91950490D02*
X93138561Y-91569537D01*
X93138561Y-91569537D02*
X93043323Y-91379061D01*
X93043323Y-91379061D02*
X92948085Y-91283823D01*
X92948085Y-91283823D02*
X92662371Y-91093347D01*
X92662371Y-91093347D02*
X92281419Y-90998109D01*
X92281419Y-90998109D02*
X91519514Y-90998109D01*
X91519514Y-90998109D02*
X91329038Y-91093347D01*
X91329038Y-91093347D02*
X91233800Y-91188585D01*
X91233800Y-91188585D02*
X91138561Y-91379061D01*
X91138561Y-91379061D02*
X91138561Y-91760014D01*
X91138561Y-91760014D02*
X91233800Y-91950490D01*
X91233800Y-91950490D02*
X91329038Y-92045728D01*
X91329038Y-92045728D02*
X91519514Y-92140966D01*
X91519514Y-92140966D02*
X91995704Y-92140966D01*
X91995704Y-92140966D02*
X92186180Y-92045728D01*
X92186180Y-92045728D02*
X92281419Y-91950490D01*
X92281419Y-91950490D02*
X92376657Y-91760014D01*
X92376657Y-91760014D02*
X92376657Y-91379061D01*
X92376657Y-91379061D02*
X92281419Y-91188585D01*
X92281419Y-91188585D02*
X92186180Y-91093347D01*
X92186180Y-91093347D02*
X91995704Y-90998109D01*
X91900466Y-92998109D02*
X91900466Y-94521919D01*
X93138561Y-95283823D02*
X93138561Y-96521918D01*
X93138561Y-96521918D02*
X92376657Y-95855251D01*
X92376657Y-95855251D02*
X92376657Y-96140966D01*
X92376657Y-96140966D02*
X92281419Y-96331442D01*
X92281419Y-96331442D02*
X92186180Y-96426680D01*
X92186180Y-96426680D02*
X91995704Y-96521918D01*
X91995704Y-96521918D02*
X91519514Y-96521918D01*
X91519514Y-96521918D02*
X91329038Y-96426680D01*
X91329038Y-96426680D02*
X91233800Y-96331442D01*
X91233800Y-96331442D02*
X91138561Y-96140966D01*
X91138561Y-96140966D02*
X91138561Y-95569537D01*
X91138561Y-95569537D02*
X91233800Y-95379061D01*
X91233800Y-95379061D02*
X91329038Y-95283823D01*
X93138561Y-98236204D02*
X93138561Y-97855251D01*
X93138561Y-97855251D02*
X93043323Y-97664775D01*
X93043323Y-97664775D02*
X92948085Y-97569537D01*
X92948085Y-97569537D02*
X92662371Y-97379061D01*
X92662371Y-97379061D02*
X92281419Y-97283823D01*
X92281419Y-97283823D02*
X91519514Y-97283823D01*
X91519514Y-97283823D02*
X91329038Y-97379061D01*
X91329038Y-97379061D02*
X91233800Y-97474299D01*
X91233800Y-97474299D02*
X91138561Y-97664775D01*
X91138561Y-97664775D02*
X91138561Y-98045728D01*
X91138561Y-98045728D02*
X91233800Y-98236204D01*
X91233800Y-98236204D02*
X91329038Y-98331442D01*
X91329038Y-98331442D02*
X91519514Y-98426680D01*
X91519514Y-98426680D02*
X91995704Y-98426680D01*
X91995704Y-98426680D02*
X92186180Y-98331442D01*
X92186180Y-98331442D02*
X92281419Y-98236204D01*
X92281419Y-98236204D02*
X92376657Y-98045728D01*
X92376657Y-98045728D02*
X92376657Y-97664775D01*
X92376657Y-97664775D02*
X92281419Y-97474299D01*
X92281419Y-97474299D02*
X92186180Y-97379061D01*
X92186180Y-97379061D02*
X91995704Y-97283823D01*
X93138561Y-100521919D02*
X91138561Y-101188585D01*
X91138561Y-101188585D02*
X93138561Y-101855252D01*
X98317109Y-112178914D02*
X98412347Y-112083676D01*
X98412347Y-112083676D02*
X98602823Y-111988438D01*
X98602823Y-111988438D02*
X99079014Y-111988438D01*
X99079014Y-111988438D02*
X99269490Y-112083676D01*
X99269490Y-112083676D02*
X99364728Y-112178914D01*
X99364728Y-112178914D02*
X99459966Y-112369390D01*
X99459966Y-112369390D02*
X99459966Y-112559866D01*
X99459966Y-112559866D02*
X99364728Y-112845580D01*
X99364728Y-112845580D02*
X98221871Y-113988438D01*
X98221871Y-113988438D02*
X99459966Y-113988438D01*
X148269490Y-113209104D02*
X148269490Y-114542438D01*
X147793299Y-112447200D02*
X147317109Y-113875771D01*
X147317109Y-113875771D02*
X148555204Y-113875771D01*
X147421871Y-77588438D02*
X148659966Y-77588438D01*
X148659966Y-77588438D02*
X147993299Y-78350342D01*
X147993299Y-78350342D02*
X148279014Y-78350342D01*
X148279014Y-78350342D02*
X148469490Y-78445580D01*
X148469490Y-78445580D02*
X148564728Y-78540819D01*
X148564728Y-78540819D02*
X148659966Y-78731295D01*
X148659966Y-78731295D02*
X148659966Y-79207485D01*
X148659966Y-79207485D02*
X148564728Y-79397961D01*
X148564728Y-79397961D02*
X148469490Y-79493200D01*
X148469490Y-79493200D02*
X148279014Y-79588438D01*
X148279014Y-79588438D02*
X147707585Y-79588438D01*
X147707585Y-79588438D02*
X147517109Y-79493200D01*
X147517109Y-79493200D02*
X147421871Y-79397961D01*
X99449966Y-79888438D02*
X98307109Y-79888438D01*
X98878537Y-79888438D02*
X98878537Y-77888438D01*
X98878537Y-77888438D02*
X98688061Y-78174152D01*
X98688061Y-78174152D02*
X98497585Y-78364628D01*
X98497585Y-78364628D02*
X98307109Y-78459866D01*
D11*
X152360333Y-91386819D02*
X152027000Y-90910628D01*
X151788905Y-91386819D02*
X151788905Y-90386819D01*
X151788905Y-90386819D02*
X152169857Y-90386819D01*
X152169857Y-90386819D02*
X152265095Y-90434438D01*
X152265095Y-90434438D02*
X152312714Y-90482057D01*
X152312714Y-90482057D02*
X152360333Y-90577295D01*
X152360333Y-90577295D02*
X152360333Y-90720152D01*
X152360333Y-90720152D02*
X152312714Y-90815390D01*
X152312714Y-90815390D02*
X152265095Y-90863009D01*
X152265095Y-90863009D02*
X152169857Y-90910628D01*
X152169857Y-90910628D02*
X151788905Y-90910628D01*
X152693667Y-90386819D02*
X153312714Y-90386819D01*
X153312714Y-90386819D02*
X152979381Y-90767771D01*
X152979381Y-90767771D02*
X153122238Y-90767771D01*
X153122238Y-90767771D02*
X153217476Y-90815390D01*
X153217476Y-90815390D02*
X153265095Y-90863009D01*
X153265095Y-90863009D02*
X153312714Y-90958247D01*
X153312714Y-90958247D02*
X153312714Y-91196342D01*
X153312714Y-91196342D02*
X153265095Y-91291580D01*
X153265095Y-91291580D02*
X153217476Y-91339200D01*
X153217476Y-91339200D02*
X153122238Y-91386819D01*
X153122238Y-91386819D02*
X152836524Y-91386819D01*
X152836524Y-91386819D02*
X152741286Y-91339200D01*
X152741286Y-91339200D02*
X152693667Y-91291580D01*
X119277333Y-110691819D02*
X118944000Y-110215628D01*
X118705905Y-110691819D02*
X118705905Y-109691819D01*
X118705905Y-109691819D02*
X119086857Y-109691819D01*
X119086857Y-109691819D02*
X119182095Y-109739438D01*
X119182095Y-109739438D02*
X119229714Y-109787057D01*
X119229714Y-109787057D02*
X119277333Y-109882295D01*
X119277333Y-109882295D02*
X119277333Y-110025152D01*
X119277333Y-110025152D02*
X119229714Y-110120390D01*
X119229714Y-110120390D02*
X119182095Y-110168009D01*
X119182095Y-110168009D02*
X119086857Y-110215628D01*
X119086857Y-110215628D02*
X118705905Y-110215628D01*
X119658286Y-109787057D02*
X119705905Y-109739438D01*
X119705905Y-109739438D02*
X119801143Y-109691819D01*
X119801143Y-109691819D02*
X120039238Y-109691819D01*
X120039238Y-109691819D02*
X120134476Y-109739438D01*
X120134476Y-109739438D02*
X120182095Y-109787057D01*
X120182095Y-109787057D02*
X120229714Y-109882295D01*
X120229714Y-109882295D02*
X120229714Y-109977533D01*
X120229714Y-109977533D02*
X120182095Y-110120390D01*
X120182095Y-110120390D02*
X119610667Y-110691819D01*
X119610667Y-110691819D02*
X120229714Y-110691819D01*
X123849333Y-110691819D02*
X123516000Y-110215628D01*
X123277905Y-110691819D02*
X123277905Y-109691819D01*
X123277905Y-109691819D02*
X123658857Y-109691819D01*
X123658857Y-109691819D02*
X123754095Y-109739438D01*
X123754095Y-109739438D02*
X123801714Y-109787057D01*
X123801714Y-109787057D02*
X123849333Y-109882295D01*
X123849333Y-109882295D02*
X123849333Y-110025152D01*
X123849333Y-110025152D02*
X123801714Y-110120390D01*
X123801714Y-110120390D02*
X123754095Y-110168009D01*
X123754095Y-110168009D02*
X123658857Y-110215628D01*
X123658857Y-110215628D02*
X123277905Y-110215628D01*
X124801714Y-110691819D02*
X124230286Y-110691819D01*
X124516000Y-110691819D02*
X124516000Y-109691819D01*
X124516000Y-109691819D02*
X124420762Y-109834676D01*
X124420762Y-109834676D02*
X124325524Y-109929914D01*
X124325524Y-109929914D02*
X124230286Y-109977533D01*
X133119905Y-78940819D02*
X133119905Y-77940819D01*
X133119905Y-77940819D02*
X133358000Y-77940819D01*
X133358000Y-77940819D02*
X133500857Y-77988438D01*
X133500857Y-77988438D02*
X133596095Y-78083676D01*
X133596095Y-78083676D02*
X133643714Y-78178914D01*
X133643714Y-78178914D02*
X133691333Y-78369390D01*
X133691333Y-78369390D02*
X133691333Y-78512247D01*
X133691333Y-78512247D02*
X133643714Y-78702723D01*
X133643714Y-78702723D02*
X133596095Y-78797961D01*
X133596095Y-78797961D02*
X133500857Y-78893200D01*
X133500857Y-78893200D02*
X133358000Y-78940819D01*
X133358000Y-78940819D02*
X133119905Y-78940819D01*
X134548476Y-78274152D02*
X134548476Y-78940819D01*
X134310381Y-77893200D02*
X134072286Y-78607485D01*
X134072286Y-78607485D02*
X134691333Y-78607485D01*
X114260333Y-110396580D02*
X114212714Y-110444200D01*
X114212714Y-110444200D02*
X114069857Y-110491819D01*
X114069857Y-110491819D02*
X113974619Y-110491819D01*
X113974619Y-110491819D02*
X113831762Y-110444200D01*
X113831762Y-110444200D02*
X113736524Y-110348961D01*
X113736524Y-110348961D02*
X113688905Y-110253723D01*
X113688905Y-110253723D02*
X113641286Y-110063247D01*
X113641286Y-110063247D02*
X113641286Y-109920390D01*
X113641286Y-109920390D02*
X113688905Y-109729914D01*
X113688905Y-109729914D02*
X113736524Y-109634676D01*
X113736524Y-109634676D02*
X113831762Y-109539438D01*
X113831762Y-109539438D02*
X113974619Y-109491819D01*
X113974619Y-109491819D02*
X114069857Y-109491819D01*
X114069857Y-109491819D02*
X114212714Y-109539438D01*
X114212714Y-109539438D02*
X114260333Y-109587057D01*
X115117476Y-109825152D02*
X115117476Y-110491819D01*
X114879381Y-109444200D02*
X114641286Y-110158485D01*
X114641286Y-110158485D02*
X115260333Y-110158485D01*
X149534905Y-94908819D02*
X149534905Y-93908819D01*
X149534905Y-93908819D02*
X149773000Y-93908819D01*
X149773000Y-93908819D02*
X149915857Y-93956438D01*
X149915857Y-93956438D02*
X150011095Y-94051676D01*
X150011095Y-94051676D02*
X150058714Y-94146914D01*
X150058714Y-94146914D02*
X150106333Y-94337390D01*
X150106333Y-94337390D02*
X150106333Y-94480247D01*
X150106333Y-94480247D02*
X150058714Y-94670723D01*
X150058714Y-94670723D02*
X150011095Y-94765961D01*
X150011095Y-94765961D02*
X149915857Y-94861200D01*
X149915857Y-94861200D02*
X149773000Y-94908819D01*
X149773000Y-94908819D02*
X149534905Y-94908819D01*
X150439667Y-93908819D02*
X151058714Y-93908819D01*
X151058714Y-93908819D02*
X150725381Y-94289771D01*
X150725381Y-94289771D02*
X150868238Y-94289771D01*
X150868238Y-94289771D02*
X150963476Y-94337390D01*
X150963476Y-94337390D02*
X151011095Y-94385009D01*
X151011095Y-94385009D02*
X151058714Y-94480247D01*
X151058714Y-94480247D02*
X151058714Y-94718342D01*
X151058714Y-94718342D02*
X151011095Y-94813580D01*
X151011095Y-94813580D02*
X150963476Y-94861200D01*
X150963476Y-94861200D02*
X150868238Y-94908819D01*
X150868238Y-94908819D02*
X150582524Y-94908819D01*
X150582524Y-94908819D02*
X150487286Y-94861200D01*
X150487286Y-94861200D02*
X150439667Y-94813580D01*
D10*
X90043286Y-87391533D02*
X91567096Y-87391533D01*
X90805191Y-88153438D02*
X90805191Y-86629628D01*
X92519476Y-88153438D02*
X92519476Y-86153438D01*
X93471857Y-88153438D02*
X93471857Y-86153438D01*
X93471857Y-86153438D02*
X94614714Y-88153438D01*
X94614714Y-88153438D02*
X94614714Y-86153438D01*
D11*
X104834905Y-94308819D02*
X104834905Y-93308819D01*
X104834905Y-93308819D02*
X105073000Y-93308819D01*
X105073000Y-93308819D02*
X105215857Y-93356438D01*
X105215857Y-93356438D02*
X105311095Y-93451676D01*
X105311095Y-93451676D02*
X105358714Y-93546914D01*
X105358714Y-93546914D02*
X105406333Y-93737390D01*
X105406333Y-93737390D02*
X105406333Y-93880247D01*
X105406333Y-93880247D02*
X105358714Y-94070723D01*
X105358714Y-94070723D02*
X105311095Y-94165961D01*
X105311095Y-94165961D02*
X105215857Y-94261200D01*
X105215857Y-94261200D02*
X105073000Y-94308819D01*
X105073000Y-94308819D02*
X104834905Y-94308819D01*
X106358714Y-94308819D02*
X105787286Y-94308819D01*
X106073000Y-94308819D02*
X106073000Y-93308819D01*
X106073000Y-93308819D02*
X105977762Y-93451676D01*
X105977762Y-93451676D02*
X105882524Y-93546914D01*
X105882524Y-93546914D02*
X105787286Y-93594533D01*
X135215333Y-85322580D02*
X135167714Y-85370200D01*
X135167714Y-85370200D02*
X135024857Y-85417819D01*
X135024857Y-85417819D02*
X134929619Y-85417819D01*
X134929619Y-85417819D02*
X134786762Y-85370200D01*
X134786762Y-85370200D02*
X134691524Y-85274961D01*
X134691524Y-85274961D02*
X134643905Y-85179723D01*
X134643905Y-85179723D02*
X134596286Y-84989247D01*
X134596286Y-84989247D02*
X134596286Y-84846390D01*
X134596286Y-84846390D02*
X134643905Y-84655914D01*
X134643905Y-84655914D02*
X134691524Y-84560676D01*
X134691524Y-84560676D02*
X134786762Y-84465438D01*
X134786762Y-84465438D02*
X134929619Y-84417819D01*
X134929619Y-84417819D02*
X135024857Y-84417819D01*
X135024857Y-84417819D02*
X135167714Y-84465438D01*
X135167714Y-84465438D02*
X135215333Y-84513057D01*
X136120095Y-84417819D02*
X135643905Y-84417819D01*
X135643905Y-84417819D02*
X135596286Y-84894009D01*
X135596286Y-84894009D02*
X135643905Y-84846390D01*
X135643905Y-84846390D02*
X135739143Y-84798771D01*
X135739143Y-84798771D02*
X135977238Y-84798771D01*
X135977238Y-84798771D02*
X136072476Y-84846390D01*
X136072476Y-84846390D02*
X136120095Y-84894009D01*
X136120095Y-84894009D02*
X136167714Y-84989247D01*
X136167714Y-84989247D02*
X136167714Y-85227342D01*
X136167714Y-85227342D02*
X136120095Y-85322580D01*
X136120095Y-85322580D02*
X136072476Y-85370200D01*
X136072476Y-85370200D02*
X135977238Y-85417819D01*
X135977238Y-85417819D02*
X135739143Y-85417819D01*
X135739143Y-85417819D02*
X135643905Y-85370200D01*
X135643905Y-85370200D02*
X135596286Y-85322580D01*
X142226905Y-113598819D02*
X142226905Y-112598819D01*
X142226905Y-112598819D02*
X142465000Y-112598819D01*
X142465000Y-112598819D02*
X142607857Y-112646438D01*
X142607857Y-112646438D02*
X142703095Y-112741676D01*
X142703095Y-112741676D02*
X142750714Y-112836914D01*
X142750714Y-112836914D02*
X142798333Y-113027390D01*
X142798333Y-113027390D02*
X142798333Y-113170247D01*
X142798333Y-113170247D02*
X142750714Y-113360723D01*
X142750714Y-113360723D02*
X142703095Y-113455961D01*
X142703095Y-113455961D02*
X142607857Y-113551200D01*
X142607857Y-113551200D02*
X142465000Y-113598819D01*
X142465000Y-113598819D02*
X142226905Y-113598819D01*
X143179286Y-112694057D02*
X143226905Y-112646438D01*
X143226905Y-112646438D02*
X143322143Y-112598819D01*
X143322143Y-112598819D02*
X143560238Y-112598819D01*
X143560238Y-112598819D02*
X143655476Y-112646438D01*
X143655476Y-112646438D02*
X143703095Y-112694057D01*
X143703095Y-112694057D02*
X143750714Y-112789295D01*
X143750714Y-112789295D02*
X143750714Y-112884533D01*
X143750714Y-112884533D02*
X143703095Y-113027390D01*
X143703095Y-113027390D02*
X143131667Y-113598819D01*
X143131667Y-113598819D02*
X143750714Y-113598819D01*
X101716333Y-78922580D02*
X101668714Y-78970200D01*
X101668714Y-78970200D02*
X101525857Y-79017819D01*
X101525857Y-79017819D02*
X101430619Y-79017819D01*
X101430619Y-79017819D02*
X101287762Y-78970200D01*
X101287762Y-78970200D02*
X101192524Y-78874961D01*
X101192524Y-78874961D02*
X101144905Y-78779723D01*
X101144905Y-78779723D02*
X101097286Y-78589247D01*
X101097286Y-78589247D02*
X101097286Y-78446390D01*
X101097286Y-78446390D02*
X101144905Y-78255914D01*
X101144905Y-78255914D02*
X101192524Y-78160676D01*
X101192524Y-78160676D02*
X101287762Y-78065438D01*
X101287762Y-78065438D02*
X101430619Y-78017819D01*
X101430619Y-78017819D02*
X101525857Y-78017819D01*
X101525857Y-78017819D02*
X101668714Y-78065438D01*
X101668714Y-78065438D02*
X101716333Y-78113057D01*
X102097286Y-78113057D02*
X102144905Y-78065438D01*
X102144905Y-78065438D02*
X102240143Y-78017819D01*
X102240143Y-78017819D02*
X102478238Y-78017819D01*
X102478238Y-78017819D02*
X102573476Y-78065438D01*
X102573476Y-78065438D02*
X102621095Y-78113057D01*
X102621095Y-78113057D02*
X102668714Y-78208295D01*
X102668714Y-78208295D02*
X102668714Y-78303533D01*
X102668714Y-78303533D02*
X102621095Y-78446390D01*
X102621095Y-78446390D02*
X102049667Y-79017819D01*
X102049667Y-79017819D02*
X102668714Y-79017819D01*
X97039666Y-90285009D02*
X96706333Y-90285009D01*
X96706333Y-90808819D02*
X96706333Y-89808819D01*
X96706333Y-89808819D02*
X97182523Y-89808819D01*
X98087285Y-90808819D02*
X97515857Y-90808819D01*
X97801571Y-90808819D02*
X97801571Y-89808819D01*
X97801571Y-89808819D02*
X97706333Y-89951676D01*
X97706333Y-89951676D02*
X97611095Y-90046914D01*
X97611095Y-90046914D02*
X97515857Y-90094533D01*
X100681333Y-91513580D02*
X100633714Y-91561200D01*
X100633714Y-91561200D02*
X100490857Y-91608819D01*
X100490857Y-91608819D02*
X100395619Y-91608819D01*
X100395619Y-91608819D02*
X100252762Y-91561200D01*
X100252762Y-91561200D02*
X100157524Y-91465961D01*
X100157524Y-91465961D02*
X100109905Y-91370723D01*
X100109905Y-91370723D02*
X100062286Y-91180247D01*
X100062286Y-91180247D02*
X100062286Y-91037390D01*
X100062286Y-91037390D02*
X100109905Y-90846914D01*
X100109905Y-90846914D02*
X100157524Y-90751676D01*
X100157524Y-90751676D02*
X100252762Y-90656438D01*
X100252762Y-90656438D02*
X100395619Y-90608819D01*
X100395619Y-90608819D02*
X100490857Y-90608819D01*
X100490857Y-90608819D02*
X100633714Y-90656438D01*
X100633714Y-90656438D02*
X100681333Y-90704057D01*
X101633714Y-91608819D02*
X101062286Y-91608819D01*
X101348000Y-91608819D02*
X101348000Y-90608819D01*
X101348000Y-90608819D02*
X101252762Y-90751676D01*
X101252762Y-90751676D02*
X101157524Y-90846914D01*
X101157524Y-90846914D02*
X101062286Y-90894533D01*
D10*
X149034952Y-86756533D02*
X150558762Y-86756533D01*
X149796857Y-87518438D02*
X149796857Y-85994628D01*
X151892094Y-85518438D02*
X152273047Y-85518438D01*
X152273047Y-85518438D02*
X152463523Y-85613676D01*
X152463523Y-85613676D02*
X152653999Y-85804152D01*
X152653999Y-85804152D02*
X152749237Y-86185104D01*
X152749237Y-86185104D02*
X152749237Y-86851771D01*
X152749237Y-86851771D02*
X152653999Y-87232723D01*
X152653999Y-87232723D02*
X152463523Y-87423200D01*
X152463523Y-87423200D02*
X152273047Y-87518438D01*
X152273047Y-87518438D02*
X151892094Y-87518438D01*
X151892094Y-87518438D02*
X151701618Y-87423200D01*
X151701618Y-87423200D02*
X151511142Y-87232723D01*
X151511142Y-87232723D02*
X151415904Y-86851771D01*
X151415904Y-86851771D02*
X151415904Y-86185104D01*
X151415904Y-86185104D02*
X151511142Y-85804152D01*
X151511142Y-85804152D02*
X151701618Y-85613676D01*
X151701618Y-85613676D02*
X151892094Y-85518438D01*
X153606380Y-85518438D02*
X153606380Y-87137485D01*
X153606380Y-87137485D02*
X153701618Y-87327961D01*
X153701618Y-87327961D02*
X153796856Y-87423200D01*
X153796856Y-87423200D02*
X153987332Y-87518438D01*
X153987332Y-87518438D02*
X154368285Y-87518438D01*
X154368285Y-87518438D02*
X154558761Y-87423200D01*
X154558761Y-87423200D02*
X154653999Y-87327961D01*
X154653999Y-87327961D02*
X154749237Y-87137485D01*
X154749237Y-87137485D02*
X154749237Y-85518438D01*
X155415904Y-85518438D02*
X156558761Y-85518438D01*
X155987332Y-87518438D02*
X155987332Y-85518438D01*
D11*
X112906333Y-78943819D02*
X112430143Y-78943819D01*
X112430143Y-78943819D02*
X112430143Y-77943819D01*
X113763476Y-78943819D02*
X113192048Y-78943819D01*
X113477762Y-78943819D02*
X113477762Y-77943819D01*
X113477762Y-77943819D02*
X113382524Y-78086676D01*
X113382524Y-78086676D02*
X113287286Y-78181914D01*
X113287286Y-78181914D02*
X113192048Y-78229533D01*
D10*
X90170286Y-105298533D02*
X91694096Y-105298533D01*
X92646476Y-106060438D02*
X92646476Y-104060438D01*
X93598857Y-106060438D02*
X93598857Y-104060438D01*
X93598857Y-104060438D02*
X94741714Y-106060438D01*
X94741714Y-106060438D02*
X94741714Y-104060438D01*
X149553952Y-105196533D02*
X151077762Y-105196533D01*
X152411094Y-103958438D02*
X152792047Y-103958438D01*
X152792047Y-103958438D02*
X152982523Y-104053676D01*
X152982523Y-104053676D02*
X153172999Y-104244152D01*
X153172999Y-104244152D02*
X153268237Y-104625104D01*
X153268237Y-104625104D02*
X153268237Y-105291771D01*
X153268237Y-105291771D02*
X153172999Y-105672723D01*
X153172999Y-105672723D02*
X152982523Y-105863200D01*
X152982523Y-105863200D02*
X152792047Y-105958438D01*
X152792047Y-105958438D02*
X152411094Y-105958438D01*
X152411094Y-105958438D02*
X152220618Y-105863200D01*
X152220618Y-105863200D02*
X152030142Y-105672723D01*
X152030142Y-105672723D02*
X151934904Y-105291771D01*
X151934904Y-105291771D02*
X151934904Y-104625104D01*
X151934904Y-104625104D02*
X152030142Y-104244152D01*
X152030142Y-104244152D02*
X152220618Y-104053676D01*
X152220618Y-104053676D02*
X152411094Y-103958438D01*
X154125380Y-103958438D02*
X154125380Y-105577485D01*
X154125380Y-105577485D02*
X154220618Y-105767961D01*
X154220618Y-105767961D02*
X154315856Y-105863200D01*
X154315856Y-105863200D02*
X154506332Y-105958438D01*
X154506332Y-105958438D02*
X154887285Y-105958438D01*
X154887285Y-105958438D02*
X155077761Y-105863200D01*
X155077761Y-105863200D02*
X155172999Y-105767961D01*
X155172999Y-105767961D02*
X155268237Y-105577485D01*
X155268237Y-105577485D02*
X155268237Y-103958438D01*
X155934904Y-103958438D02*
X157077761Y-103958438D01*
X156506332Y-105958438D02*
X156506332Y-103958438D01*
D11*
X113577761Y-98371819D02*
X113244428Y-97895628D01*
X113006333Y-98371819D02*
X113006333Y-97371819D01*
X113006333Y-97371819D02*
X113387285Y-97371819D01*
X113387285Y-97371819D02*
X113482523Y-97419438D01*
X113482523Y-97419438D02*
X113530142Y-97467057D01*
X113530142Y-97467057D02*
X113577761Y-97562295D01*
X113577761Y-97562295D02*
X113577761Y-97705152D01*
X113577761Y-97705152D02*
X113530142Y-97800390D01*
X113530142Y-97800390D02*
X113482523Y-97848009D01*
X113482523Y-97848009D02*
X113387285Y-97895628D01*
X113387285Y-97895628D02*
X113006333Y-97895628D01*
X113863476Y-97371819D02*
X114196809Y-98371819D01*
X114196809Y-98371819D02*
X114530142Y-97371819D01*
X115387285Y-98371819D02*
X114815857Y-98371819D01*
X115101571Y-98371819D02*
X115101571Y-97371819D01*
X115101571Y-97371819D02*
X115006333Y-97514676D01*
X115006333Y-97514676D02*
X114911095Y-97609914D01*
X114911095Y-97609914D02*
X114815857Y-97657533D01*
X112902333Y-86444580D02*
X112854714Y-86492200D01*
X112854714Y-86492200D02*
X112711857Y-86539819D01*
X112711857Y-86539819D02*
X112616619Y-86539819D01*
X112616619Y-86539819D02*
X112473762Y-86492200D01*
X112473762Y-86492200D02*
X112378524Y-86396961D01*
X112378524Y-86396961D02*
X112330905Y-86301723D01*
X112330905Y-86301723D02*
X112283286Y-86111247D01*
X112283286Y-86111247D02*
X112283286Y-85968390D01*
X112283286Y-85968390D02*
X112330905Y-85777914D01*
X112330905Y-85777914D02*
X112378524Y-85682676D01*
X112378524Y-85682676D02*
X112473762Y-85587438D01*
X112473762Y-85587438D02*
X112616619Y-85539819D01*
X112616619Y-85539819D02*
X112711857Y-85539819D01*
X112711857Y-85539819D02*
X112854714Y-85587438D01*
X112854714Y-85587438D02*
X112902333Y-85635057D01*
X113235667Y-85539819D02*
X113854714Y-85539819D01*
X113854714Y-85539819D02*
X113521381Y-85920771D01*
X113521381Y-85920771D02*
X113664238Y-85920771D01*
X113664238Y-85920771D02*
X113759476Y-85968390D01*
X113759476Y-85968390D02*
X113807095Y-86016009D01*
X113807095Y-86016009D02*
X113854714Y-86111247D01*
X113854714Y-86111247D02*
X113854714Y-86349342D01*
X113854714Y-86349342D02*
X113807095Y-86444580D01*
X113807095Y-86444580D02*
X113759476Y-86492200D01*
X113759476Y-86492200D02*
X113664238Y-86539819D01*
X113664238Y-86539819D02*
X113378524Y-86539819D01*
X113378524Y-86539819D02*
X113283286Y-86492200D01*
X113283286Y-86492200D02*
X113235667Y-86444580D01*
X129316095Y-96846819D02*
X129316095Y-97656342D01*
X129316095Y-97656342D02*
X129363714Y-97751580D01*
X129363714Y-97751580D02*
X129411333Y-97799200D01*
X129411333Y-97799200D02*
X129506571Y-97846819D01*
X129506571Y-97846819D02*
X129697047Y-97846819D01*
X129697047Y-97846819D02*
X129792285Y-97799200D01*
X129792285Y-97799200D02*
X129839904Y-97751580D01*
X129839904Y-97751580D02*
X129887523Y-97656342D01*
X129887523Y-97656342D02*
X129887523Y-96846819D01*
X130887523Y-97846819D02*
X130316095Y-97846819D01*
X130601809Y-97846819D02*
X130601809Y-96846819D01*
X130601809Y-96846819D02*
X130506571Y-96989676D01*
X130506571Y-96989676D02*
X130411333Y-97084914D01*
X130411333Y-97084914D02*
X130316095Y-97132533D01*
D12*
%TO.C,R3*%
X151103000Y-90831936D02*
X151103000Y-91286064D01*
X149633000Y-90831936D02*
X149633000Y-91286064D01*
%TO.C,R2*%
X119216936Y-111152000D02*
X119671064Y-111152000D01*
X119216936Y-112622000D02*
X119671064Y-112622000D01*
%TO.C,R1*%
X123788936Y-111152000D02*
X124243064Y-111152000D01*
X123788936Y-112622000D02*
X124243064Y-112622000D01*
%TO.C,D4*%
X146707000Y-83895000D02*
X136697000Y-83895000D01*
X146707000Y-77395000D02*
X146707000Y-83895000D01*
X146707000Y-77395000D02*
X136697000Y-77395000D01*
%TO.C,C4*%
X113715748Y-110977000D02*
X115138252Y-110977000D01*
X113715748Y-112797000D02*
X115138252Y-112797000D01*
%TO.C,D3*%
X149413000Y-96379000D02*
X149413000Y-99239000D01*
X149413000Y-99239000D02*
X151333000Y-99239000D01*
X151333000Y-99239000D02*
X151333000Y-96379000D01*
%TO.C,D1*%
X100440000Y-99974000D02*
X101250000Y-99974000D01*
X100440000Y-101474000D02*
X100440000Y-99974000D01*
X110840000Y-99969000D02*
X109970000Y-99969000D01*
X110840000Y-101474000D02*
X110840000Y-99974000D01*
X111060000Y-97659000D02*
X110730000Y-97419000D01*
X111060000Y-97179000D01*
X111060000Y-97659000D01*
G36*
X111060000Y-97659000D02*
G01*
X110730000Y-97419000D01*
X111060000Y-97179000D01*
X111060000Y-97659000D01*
G37*
%TO.C,C5*%
X147287000Y-84429000D02*
X147287000Y-88279000D01*
X137631437Y-84429000D02*
X147287000Y-84429000D01*
X136567000Y-85493437D02*
X137631437Y-84429000D01*
X136567000Y-85493437D02*
X136567000Y-88279000D01*
X146077000Y-85539000D02*
X146077000Y-88289000D01*
X138621437Y-85539000D02*
X146077000Y-85539000D01*
X135702000Y-86404000D02*
X135702000Y-87654000D01*
X137557000Y-86603437D02*
X138621437Y-85539000D01*
X137557000Y-86603437D02*
X137557000Y-88289000D01*
X135077000Y-87029000D02*
X136327000Y-87029000D01*
X137557000Y-92994563D02*
X137557000Y-91309000D01*
X137557000Y-92994563D02*
X138621437Y-94059000D01*
X146077000Y-94059000D02*
X146077000Y-91309000D01*
X138621437Y-94059000D02*
X146077000Y-94059000D01*
X136567000Y-94084563D02*
X136567000Y-91299000D01*
X136567000Y-94084563D02*
X137631437Y-95149000D01*
X147287000Y-95149000D02*
X147287000Y-91299000D01*
X137631437Y-95149000D02*
X147287000Y-95149000D01*
%TO.C,D2*%
X137646000Y-105327000D02*
X137646000Y-106827000D01*
X137646000Y-106832000D02*
X138516000Y-106832000D01*
X148046000Y-105327000D02*
X148046000Y-106827000D01*
X148046000Y-106827000D02*
X147236000Y-106827000D01*
X137756000Y-109382000D02*
X137426000Y-109622000D01*
X137426000Y-109142000D01*
X137756000Y-109382000D01*
G36*
X137756000Y-109382000D02*
G01*
X137426000Y-109622000D01*
X137426000Y-109142000D01*
X137756000Y-109382000D01*
G37*
%TO.C,C2*%
X99923000Y-79603000D02*
X103773000Y-79603000D01*
X99923000Y-89258563D02*
X99923000Y-79603000D01*
X100987437Y-90323000D02*
X99923000Y-89258563D01*
X100987437Y-90323000D02*
X103773000Y-90323000D01*
X101033000Y-80813000D02*
X103783000Y-80813000D01*
X101033000Y-88268563D02*
X101033000Y-80813000D01*
X101898000Y-91188000D02*
X103148000Y-91188000D01*
X102097437Y-89333000D02*
X101033000Y-88268563D01*
X102097437Y-89333000D02*
X103783000Y-89333000D01*
X102523000Y-91813000D02*
X102523000Y-90563000D01*
X108488563Y-89333000D02*
X106803000Y-89333000D01*
X108488563Y-89333000D02*
X109553000Y-88268563D01*
X109553000Y-80813000D02*
X106803000Y-80813000D01*
X109553000Y-88268563D02*
X109553000Y-80813000D01*
X109578563Y-90323000D02*
X106793000Y-90323000D01*
X109578563Y-90323000D02*
X110643000Y-89258563D01*
X110643000Y-79603000D02*
X106793000Y-79603000D01*
X110643000Y-89258563D02*
X110643000Y-79603000D01*
%TO.C,F1*%
X95973000Y-92204000D02*
X95973000Y-97526000D01*
X95973000Y-99283000D02*
X95973000Y-99504000D01*
X96223000Y-99504000D02*
X95973000Y-99504000D01*
X97423000Y-92204000D02*
X95973000Y-92204000D01*
X99173000Y-92204000D02*
X98923000Y-92204000D01*
X99173000Y-92204000D02*
X99173000Y-92425000D01*
X99173000Y-94183000D02*
X99173000Y-99504000D01*
X99173000Y-99504000D02*
X97722000Y-99504000D01*
D13*
%TO.C,ARROW*%
X127373000Y-112454000D02*
X136873000Y-112454000D01*
D14*
X137373000Y-112454000D02*
X135873000Y-110954000D01*
X137373000Y-112454000D02*
X135873000Y-113954000D01*
D12*
%TO.C,C1*%
X102313580Y-92344000D02*
X102032420Y-92344000D01*
X102313580Y-93364000D02*
X102032420Y-93364000D01*
%TO.C,L1*%
X114438000Y-78541000D02*
X116613000Y-78541000D01*
X114438000Y-96211000D02*
X114438000Y-78541000D01*
X114438000Y-96211000D02*
X116613000Y-96211000D01*
X132108000Y-78541000D02*
X129933000Y-78541000D01*
X132108000Y-96211000D02*
X129933000Y-96211000D01*
X132108000Y-96211000D02*
X132108000Y-78541000D01*
%TO.C,RV1*%
X112633000Y-99255000D02*
X112633000Y-109025000D01*
X117703000Y-99255000D02*
X112633000Y-99255000D01*
X117703000Y-99255000D02*
X117703000Y-109025000D01*
X117703000Y-109025000D02*
X112633000Y-109025000D01*
%TO.C,C3*%
X113286000Y-83325580D02*
X113286000Y-83044420D01*
X112266000Y-83325580D02*
X112266000Y-83044420D01*
%TO.C,U1*%
X125253000Y-98842000D02*
X125253000Y-99792000D01*
X125253000Y-109242000D02*
X125253000Y-108292000D01*
X126753000Y-98842000D02*
X125253000Y-98842000D01*
X126753000Y-109242000D02*
X125253000Y-109242000D01*
X122690500Y-99792000D02*
X122450500Y-99462000D01*
X122930500Y-99462000D01*
X122690500Y-99792000D01*
G36*
X122690500Y-99792000D02*
G01*
X122450500Y-99462000D01*
X122930500Y-99462000D01*
X122690500Y-99792000D01*
G37*
%TD*%
M02*
