G04 #@! TF.GenerationSoftware,KiCad,Pcbnew,8.0.5*
G04 #@! TF.CreationDate,2024-10-22T13:44:55+03:00*
G04 #@! TF.ProjectId,DC36_DC5,44433336-5f44-4433-952e-6b696361645f,rev?*
G04 #@! TF.SameCoordinates,Original*
G04 #@! TF.FileFunction,Legend,Bot*
G04 #@! TF.FilePolarity,Positive*
%FSLAX46Y46*%
G04 Gerber Fmt 4.6, Leading zero omitted, Abs format (unit mm)*
G04 Created by KiCad (PCBNEW 8.0.5) date 2024-10-22 13:44:55*
%MOMM*%
%LPD*%
G01*
G04 APERTURE LIST*
G04 Aperture macros list*
%AMRoundRect*
0 Rectangle with rounded corners*
0 $1 Rounding radius*
0 $2 $3 $4 $5 $6 $7 $8 $9 X,Y pos of 4 corners*
0 Add a 4 corners polygon primitive as box body*
4,1,4,$2,$3,$4,$5,$6,$7,$8,$9,$2,$3,0*
0 Add four circle primitives for the rounded corners*
1,1,$1+$1,$2,$3*
1,1,$1+$1,$4,$5*
1,1,$1+$1,$6,$7*
1,1,$1+$1,$8,$9*
0 Add four rect primitives between the rounded corners*
20,1,$1+$1,$2,$3,$4,$5,0*
20,1,$1+$1,$4,$5,$6,$7,0*
20,1,$1+$1,$6,$7,$8,$9,0*
20,1,$1+$1,$8,$9,$2,$3,0*%
G04 Aperture macros list end*
%ADD10C,0.800000*%
%ADD11C,8.000000*%
%ADD12RoundRect,0.250000X-1.250000X0.755000X-1.250000X-0.755000X1.250000X-0.755000X1.250000X0.755000X0*%
%ADD13C,1.440000*%
%ADD14C,0.600000*%
%ADD15C,0.900000*%
G04 APERTURE END LIST*
%LPC*%
D10*
X90498000Y-80954000D03*
X91310779Y-78991779D03*
X91310779Y-82916221D03*
X93273000Y-78179000D03*
D11*
X93273000Y-80954000D03*
D10*
X93273000Y-83729000D03*
X95235221Y-78991779D03*
X95235221Y-82916221D03*
X96048000Y-80954000D03*
D12*
X97573000Y-93304000D03*
X97573000Y-98404000D03*
D11*
X153273000Y-80954000D03*
D10*
X90498000Y-110954000D03*
X91310779Y-108991779D03*
X91310779Y-112916221D03*
X93273000Y-108179000D03*
D11*
X93273000Y-110954000D03*
D10*
X93273000Y-113729000D03*
X95235221Y-108991779D03*
X95235221Y-112916221D03*
X96048000Y-110954000D03*
D11*
X153273000Y-110954000D03*
D13*
X115173000Y-106680000D03*
X115173000Y-104140000D03*
X115173000Y-101600000D03*
D14*
X127773000Y-108654000D03*
X129698000Y-99554000D03*
X131673000Y-101954000D03*
X133548000Y-108654000D03*
X129748000Y-101954000D03*
X135473000Y-99554000D03*
X129748000Y-106154000D03*
X135523000Y-106154000D03*
X129698000Y-104054000D03*
X133548000Y-104054000D03*
X129698000Y-108654000D03*
X127773000Y-104054000D03*
X133598000Y-106154000D03*
X131623000Y-108654000D03*
X131623000Y-99554000D03*
X133548000Y-99554000D03*
X135523000Y-101954000D03*
X133598000Y-101954000D03*
X127823000Y-106154000D03*
X127823000Y-101954000D03*
X127773000Y-99554000D03*
X131673000Y-106154000D03*
X135473000Y-104054000D03*
X131623000Y-104054000D03*
X135473000Y-108654000D03*
D15*
X118984000Y-102342000D03*
X118973000Y-97454000D03*
D14*
X147320000Y-80505999D03*
%LPD*%
M02*
