%TF.GenerationSoftware,KiCad,Pcbnew,8.0.5*%
%TF.CreationDate,2024-10-22T02:27:49+03:00*%
%TF.ProjectId,DC36_DC5,44433336-5f44-4433-952e-6b696361645f,rev?*%
%TF.SameCoordinates,Original*%
%TF.FileFunction,Soldermask,Top*%
%TF.FilePolarity,Negative*%
%FSLAX46Y46*%
G04 Gerber Fmt 4.6, Leading zero omitted, Abs format (unit mm)*
G04 Created by KiCad (PCBNEW 8.0.5) date 2024-10-22 02:27:49*
%MOMM*%
%LPD*%
G01*
G04 APERTURE LIST*
G04 Aperture macros list*
%AMRoundRect*
0 Rectangle with rounded corners*
0 $1 Rounding radius*
0 $2 $3 $4 $5 $6 $7 $8 $9 X,Y pos of 4 corners*
0 Add a 4 corners polygon primitive as box body*
4,1,4,$2,$3,$4,$5,$6,$7,$8,$9,$2,$3,0*
0 Add four circle primitives for the rounded corners*
1,1,$1+$1,$2,$3*
1,1,$1+$1,$4,$5*
1,1,$1+$1,$6,$7*
1,1,$1+$1,$8,$9*
0 Add four rect primitives between the rounded corners*
20,1,$1+$1,$2,$3,$4,$5,0*
20,1,$1+$1,$4,$5,$6,$7,0*
20,1,$1+$1,$6,$7,$8,$9,0*
20,1,$1+$1,$8,$9,$2,$3,0*%
%AMOutline4P*
0 Free polygon, 4 corners , with rotation*
0 The origin of the aperture is its center*
0 number of corners: always 4*
0 $1 to $8 corner X, Y*
0 $9 Rotation angle, in degrees counterclockwise*
0 create outline with 4 corners*
4,1,4,$1,$2,$3,$4,$5,$6,$7,$8,$1,$2,$9*%
G04 Aperture macros list end*
%ADD10RoundRect,0.250000X-0.450000X0.350000X-0.450000X-0.350000X0.450000X-0.350000X0.450000X0.350000X0*%
%ADD11RoundRect,0.250000X-0.350000X-0.450000X0.350000X-0.450000X0.350000X0.450000X-0.350000X0.450000X0*%
%ADD12Outline4P,-2.150000X-1.800000X2.150000X-0.800000X2.150000X0.800000X-2.150000X1.800000X180.000000*%
%ADD13Outline4P,-2.150000X-1.800000X2.150000X-0.800000X2.150000X0.800000X-2.150000X1.800000X0.000000*%
%ADD14RoundRect,0.250000X-0.325000X-0.650000X0.325000X-0.650000X0.325000X0.650000X-0.325000X0.650000X0*%
%ADD15RoundRect,0.250000X0.450000X-0.325000X0.450000X0.325000X-0.450000X0.325000X-0.450000X-0.325000X0*%
%ADD16C,0.800000*%
%ADD17C,8.000000*%
%ADD18RoundRect,0.887500X-0.887500X1.812500X-0.887500X-1.812500X0.887500X-1.812500X0.887500X1.812500X0*%
%ADD19RoundRect,0.250000X-5.150000X4.450000X-5.150000X-4.450000X5.150000X-4.450000X5.150000X4.450000X0*%
%ADD20RoundRect,0.880000X-0.880000X1.845000X-0.880000X-1.845000X0.880000X-1.845000X0.880000X1.845000X0*%
%ADD21RoundRect,0.251000X-2.254000X-1.004000X2.254000X-1.004000X2.254000X1.004000X-2.254000X1.004000X0*%
%ADD22RoundRect,0.251000X-2.144000X-1.004000X2.144000X-1.004000X2.144000X1.004000X-2.144000X1.004000X0*%
%ADD23RoundRect,0.887500X0.887500X-1.812500X0.887500X1.812500X-0.887500X1.812500X-0.887500X-1.812500X0*%
%ADD24RoundRect,0.250000X5.150000X-4.450000X5.150000X4.450000X-5.150000X4.450000X-5.150000X-4.450000X0*%
%ADD25RoundRect,0.880000X0.880000X-1.845000X0.880000X1.845000X-0.880000X1.845000X-0.880000X-1.845000X0*%
%ADD26RoundRect,0.251000X1.004000X-2.144000X1.004000X2.144000X-1.004000X2.144000X-1.004000X-2.144000X0*%
%ADD27RoundRect,0.251000X1.004000X-2.254000X1.004000X2.254000X-1.004000X2.254000X-1.004000X-2.254000X0*%
%ADD28RoundRect,0.250000X-1.250000X0.755000X-1.250000X-0.755000X1.250000X-0.755000X1.250000X0.755000X0*%
%ADD29RoundRect,0.225000X0.225000X0.250000X-0.225000X0.250000X-0.225000X-0.250000X0.225000X-0.250000X0*%
%ADD30R,12.800000X8.000000*%
%ADD31C,1.440000*%
%ADD32RoundRect,0.225000X0.250000X-0.225000X0.250000X0.225000X-0.250000X0.225000X-0.250000X-0.225000X0*%
%ADD33RoundRect,0.250000X-2.050000X-0.300000X2.050000X-0.300000X2.050000X0.300000X-2.050000X0.300000X0*%
%ADD34RoundRect,0.250002X-4.449998X-5.149998X4.449998X-5.149998X4.449998X5.149998X-4.449998X5.149998X0*%
G04 APERTURE END LIST*
D10*
%TO.C,R3*%
X150368000Y-90059000D03*
X150368000Y-92059000D03*
%TD*%
D11*
%TO.C,R2*%
X118444000Y-111887000D03*
X120444000Y-111887000D03*
%TD*%
%TO.C,R1*%
X123016000Y-111887000D03*
X125016000Y-111887000D03*
%TD*%
D12*
%TO.C,D4*%
X144297000Y-80645000D03*
D13*
X137897000Y-80645000D03*
%TD*%
D14*
%TO.C,C4*%
X112952000Y-111887000D03*
X115902000Y-111887000D03*
%TD*%
D15*
%TO.C,D3*%
X150373000Y-98404000D03*
X150373000Y-96354000D03*
%TD*%
D16*
%TO.C,H1*%
X90498000Y-80954000D03*
X91310779Y-78991779D03*
X91310779Y-82916221D03*
X93273000Y-78179000D03*
D17*
X93273000Y-80954000D03*
D16*
X93273000Y-83729000D03*
X95235221Y-78991779D03*
X95235221Y-82916221D03*
X96048000Y-80954000D03*
%TD*%
D18*
%TO.C,D1*%
X108405000Y-97469000D03*
D19*
X105640000Y-106299000D03*
D20*
X102880000Y-97454000D03*
%TD*%
D21*
%TO.C,C5*%
X145822000Y-89794000D03*
D22*
X137922000Y-89794000D03*
%TD*%
D23*
%TO.C,D2*%
X140081000Y-109332000D03*
D24*
X142846000Y-100502000D03*
D25*
X145606000Y-109347000D03*
%TD*%
D26*
%TO.C,C2*%
X105288000Y-88968000D03*
D27*
X105288000Y-81068000D03*
%TD*%
D28*
%TO.C,F1*%
X97573000Y-93304000D03*
X97573000Y-98404000D03*
%TD*%
D29*
%TO.C,C1*%
X102948000Y-92854000D03*
X101398000Y-92854000D03*
%TD*%
D17*
%TO.C,H4*%
X153273000Y-80954000D03*
%TD*%
D30*
%TO.C,L1*%
X123273000Y-92576000D03*
X123273000Y-82176000D03*
%TD*%
D16*
%TO.C,H2*%
X90498000Y-110954000D03*
X91310779Y-108991779D03*
X91310779Y-112916221D03*
X93273000Y-108179000D03*
D17*
X93273000Y-110954000D03*
D16*
X93273000Y-113729000D03*
X95235221Y-108991779D03*
X95235221Y-112916221D03*
X96048000Y-110954000D03*
%TD*%
D17*
%TO.C,H3*%
X153273000Y-110954000D03*
%TD*%
D31*
%TO.C,RV1*%
X115173000Y-106680000D03*
X115173000Y-104140000D03*
X115173000Y-101600000D03*
%TD*%
D32*
%TO.C,C3*%
X112776000Y-83960000D03*
X112776000Y-82410000D03*
%TD*%
D33*
%TO.C,U1*%
X122428000Y-100642000D03*
X122428000Y-102342000D03*
X122428000Y-104042000D03*
D34*
X131578000Y-104042000D03*
D33*
X122428000Y-105742000D03*
X122428000Y-107442000D03*
%TD*%
M02*
