%TF.GenerationSoftware,KiCad,Pcbnew,8.0.5*%
%TF.CreationDate,2024-10-22T02:27:30+03:00*%
%TF.ProjectId,DC36_DC5,44433336-5f44-4433-952e-6b696361645f,rev?*%
%TF.SameCoordinates,Original*%
%TF.FileFunction,Drillmap*%
%TF.FilePolarity,Positive*%
%FSLAX45Y45*%
G04 Gerber Fmt 4.5, Leading zero omitted, Abs format (unit mm)*
G04 Created by KiCad (PCBNEW 8.0.5) date 2024-10-22 02:27:30*
%MOMM*%
%LPD*%
G01*
G04 APERTURE LIST*
%ADD10C,0.050000*%
%ADD11C,0.200000*%
%ADD12C,0.100000*%
%ADD13C,0.101000*%
%ADD14C,0.370000*%
G04 APERTURE END LIST*
D10*
X15777300Y-11095400D02*
G75*
G02*
X15327300Y-11545400I-450000J0D01*
G01*
X9327300Y-7645400D02*
X15327300Y-7645400D01*
X15777300Y-11095400D02*
X15777300Y-8095400D01*
X8877300Y-8095400D02*
G75*
G02*
X9327300Y-7645400I450000J0D01*
G01*
X9327300Y-11545400D02*
G75*
G02*
X8877300Y-11095400I0J450000D01*
G01*
X15327300Y-7645400D02*
G75*
G02*
X15777300Y-8095400I0J-450000D01*
G01*
X9327300Y-11545400D02*
X15327300Y-11545400D01*
X8877300Y-11095400D02*
X8877300Y-8095400D01*
D11*
D12*
X12762300Y-9940400D02*
X12792300Y-9970400D01*
X12792300Y-9940400D02*
X12762300Y-9970400D01*
X12762300Y-10390400D02*
X12792300Y-10420400D01*
X12792300Y-10390400D02*
X12762300Y-10420400D01*
X12762300Y-10850400D02*
X12792300Y-10880400D01*
X12792300Y-10850400D02*
X12762300Y-10880400D01*
X12767300Y-10180400D02*
X12797300Y-10210400D01*
X12797300Y-10180400D02*
X12767300Y-10210400D01*
X12767300Y-10600400D02*
X12797300Y-10630400D01*
X12797300Y-10600400D02*
X12767300Y-10630400D01*
X12954800Y-9940400D02*
X12984800Y-9970400D01*
X12984800Y-9940400D02*
X12954800Y-9970400D01*
X12954800Y-10390400D02*
X12984800Y-10420400D01*
X12984800Y-10390400D02*
X12954800Y-10420400D01*
X12954800Y-10850400D02*
X12984800Y-10880400D01*
X12984800Y-10850400D02*
X12954800Y-10880400D01*
X12959800Y-10180400D02*
X12989800Y-10210400D01*
X12989800Y-10180400D02*
X12959800Y-10210400D01*
X12959800Y-10600400D02*
X12989800Y-10630400D01*
X12989800Y-10600400D02*
X12959800Y-10630400D01*
X13147300Y-9940400D02*
X13177300Y-9970400D01*
X13177300Y-9940400D02*
X13147300Y-9970400D01*
X13147300Y-10390400D02*
X13177300Y-10420400D01*
X13177300Y-10390400D02*
X13147300Y-10420400D01*
X13147300Y-10850400D02*
X13177300Y-10880400D01*
X13177300Y-10850400D02*
X13147300Y-10880400D01*
X13152300Y-10180400D02*
X13182300Y-10210400D01*
X13182300Y-10180400D02*
X13152300Y-10210400D01*
X13152300Y-10600400D02*
X13182300Y-10630400D01*
X13182300Y-10600400D02*
X13152300Y-10630400D01*
X13339800Y-9940400D02*
X13369800Y-9970400D01*
X13369800Y-9940400D02*
X13339800Y-9970400D01*
X13339800Y-10390400D02*
X13369800Y-10420400D01*
X13369800Y-10390400D02*
X13339800Y-10420400D01*
X13339800Y-10850400D02*
X13369800Y-10880400D01*
X13369800Y-10850400D02*
X13339800Y-10880400D01*
X13344800Y-10180400D02*
X13374800Y-10210400D01*
X13374800Y-10180400D02*
X13344800Y-10210400D01*
X13344800Y-10600400D02*
X13374800Y-10630400D01*
X13374800Y-10600400D02*
X13344800Y-10630400D01*
X13532300Y-9940400D02*
X13562300Y-9970400D01*
X13562300Y-9940400D02*
X13532300Y-9970400D01*
X13532300Y-10390400D02*
X13562300Y-10420400D01*
X13562300Y-10390400D02*
X13532300Y-10420400D01*
X13532300Y-10850400D02*
X13562300Y-10880400D01*
X13562300Y-10850400D02*
X13532300Y-10880400D01*
X13537300Y-10180400D02*
X13567300Y-10210400D01*
X13567300Y-10180400D02*
X13537300Y-10210400D01*
X13537300Y-10600400D02*
X13567300Y-10630400D01*
X13567300Y-10600400D02*
X13537300Y-10630400D01*
X14717000Y-8035600D02*
X14747000Y-8065600D01*
X14747000Y-8035600D02*
X14717000Y-8065600D01*
X11922300Y-9745400D02*
G75*
G02*
X11872300Y-9745400I-25000J0D01*
G01*
X11872300Y-9745400D02*
G75*
G02*
X11922300Y-9745400I25000J0D01*
G01*
X11923400Y-10234200D02*
G75*
G02*
X11873400Y-10234200I-25000J0D01*
G01*
X11873400Y-10234200D02*
G75*
G02*
X11923400Y-10234200I25000J0D01*
G01*
X9049800Y-8070400D02*
X9049800Y-8120400D01*
X9024800Y-8095400D02*
X9074800Y-8095400D01*
X9049800Y-11070400D02*
X9049800Y-11120400D01*
X9024800Y-11095400D02*
X9074800Y-11095400D01*
X9131078Y-7874178D02*
X9131078Y-7924178D01*
X9106078Y-7899178D02*
X9156078Y-7899178D01*
X9131078Y-8266622D02*
X9131078Y-8316622D01*
X9106078Y-8291622D02*
X9156078Y-8291622D01*
X9131078Y-10874178D02*
X9131078Y-10924178D01*
X9106078Y-10899178D02*
X9156078Y-10899178D01*
X9131078Y-11266622D02*
X9131078Y-11316622D01*
X9106078Y-11291622D02*
X9156078Y-11291622D01*
X9327300Y-7792900D02*
X9327300Y-7842900D01*
X9302300Y-7817900D02*
X9352300Y-7817900D01*
X9327300Y-8347900D02*
X9327300Y-8397900D01*
X9302300Y-8372900D02*
X9352300Y-8372900D01*
X9327300Y-10792900D02*
X9327300Y-10842900D01*
X9302300Y-10817900D02*
X9352300Y-10817900D01*
X9327300Y-11347900D02*
X9327300Y-11397900D01*
X9302300Y-11372900D02*
X9352300Y-11372900D01*
X9523522Y-7874178D02*
X9523522Y-7924178D01*
X9498522Y-7899178D02*
X9548522Y-7899178D01*
X9523522Y-8266622D02*
X9523522Y-8316622D01*
X9498522Y-8291622D02*
X9548522Y-8291622D01*
X9523522Y-10874178D02*
X9523522Y-10924178D01*
X9498522Y-10899178D02*
X9548522Y-10899178D01*
X9523522Y-11266622D02*
X9523522Y-11316622D01*
X9498522Y-11291622D02*
X9548522Y-11291622D01*
X9604800Y-8070400D02*
X9604800Y-8120400D01*
X9579800Y-8095400D02*
X9629800Y-8095400D01*
X9604800Y-11070400D02*
X9604800Y-11120400D01*
X9579800Y-11095400D02*
X9629800Y-11095400D01*
X11545584Y-10188285D02*
X11545584Y-10131716D01*
X11489015Y-10131716D01*
X11489015Y-10188285D01*
X11545584Y-10188285D01*
X11545584Y-10442285D02*
X11545584Y-10385716D01*
X11489015Y-10385716D01*
X11489015Y-10442285D01*
X11545584Y-10442285D01*
X11545584Y-10696285D02*
X11545584Y-10639716D01*
X11489015Y-10639716D01*
X11489015Y-10696285D01*
X11545584Y-10696285D01*
D13*
X9697300Y-9890900D02*
X9747800Y-9840400D01*
X9697300Y-9789900D01*
X9646800Y-9840400D01*
X9697300Y-9890900D01*
X9817300Y-9380900D02*
X9867800Y-9330400D01*
X9817300Y-9279900D01*
X9766800Y-9330400D01*
X9817300Y-9380900D01*
D14*
X9142300Y-7910400D02*
X9512300Y-8280400D01*
X9512300Y-7910400D02*
X9142300Y-8280400D01*
X9512300Y-8095400D02*
G75*
G02*
X9142300Y-8095400I-185000J0D01*
G01*
X9142300Y-8095400D02*
G75*
G02*
X9512300Y-8095400I185000J0D01*
G01*
X9142300Y-10910400D02*
X9512300Y-11280400D01*
X9512300Y-10910400D02*
X9142300Y-11280400D01*
X9512300Y-11095400D02*
G75*
G02*
X9142300Y-11095400I-185000J0D01*
G01*
X9142300Y-11095400D02*
G75*
G02*
X9512300Y-11095400I185000J0D01*
G01*
X15142300Y-7910400D02*
X15512300Y-8280400D01*
X15512300Y-7910400D02*
X15142300Y-8280400D01*
X15512300Y-8095400D02*
G75*
G02*
X15142300Y-8095400I-185000J0D01*
G01*
X15142300Y-8095400D02*
G75*
G02*
X15512300Y-8095400I185000J0D01*
G01*
X15142300Y-10910400D02*
X15512300Y-11280400D01*
X15512300Y-10910400D02*
X15142300Y-11280400D01*
X15512300Y-11095400D02*
G75*
G02*
X15142300Y-11095400I-185000J0D01*
G01*
X15142300Y-11095400D02*
G75*
G02*
X15512300Y-11095400I185000J0D01*
G01*
D11*
X9135577Y-11859384D02*
X9135577Y-11659384D01*
X9135577Y-11659384D02*
X9183196Y-11659384D01*
X9183196Y-11659384D02*
X9211767Y-11668908D01*
X9211767Y-11668908D02*
X9230815Y-11687955D01*
X9230815Y-11687955D02*
X9240339Y-11707003D01*
X9240339Y-11707003D02*
X9249863Y-11745098D01*
X9249863Y-11745098D02*
X9249863Y-11773669D01*
X9249863Y-11773669D02*
X9240339Y-11811765D01*
X9240339Y-11811765D02*
X9230815Y-11830812D01*
X9230815Y-11830812D02*
X9211767Y-11849860D01*
X9211767Y-11849860D02*
X9183196Y-11859384D01*
X9183196Y-11859384D02*
X9135577Y-11859384D01*
X9335577Y-11859384D02*
X9335577Y-11726050D01*
X9335577Y-11764146D02*
X9345101Y-11745098D01*
X9345101Y-11745098D02*
X9354624Y-11735574D01*
X9354624Y-11735574D02*
X9373672Y-11726050D01*
X9373672Y-11726050D02*
X9392720Y-11726050D01*
X9459386Y-11859384D02*
X9459386Y-11726050D01*
X9459386Y-11659384D02*
X9449863Y-11668908D01*
X9449863Y-11668908D02*
X9459386Y-11678431D01*
X9459386Y-11678431D02*
X9468910Y-11668908D01*
X9468910Y-11668908D02*
X9459386Y-11659384D01*
X9459386Y-11659384D02*
X9459386Y-11678431D01*
X9583196Y-11859384D02*
X9564148Y-11849860D01*
X9564148Y-11849860D02*
X9554624Y-11830812D01*
X9554624Y-11830812D02*
X9554624Y-11659384D01*
X9687958Y-11859384D02*
X9668910Y-11849860D01*
X9668910Y-11849860D02*
X9659386Y-11830812D01*
X9659386Y-11830812D02*
X9659386Y-11659384D01*
X9916529Y-11859384D02*
X9916529Y-11659384D01*
X9916529Y-11659384D02*
X9983196Y-11802241D01*
X9983196Y-11802241D02*
X10049863Y-11659384D01*
X10049863Y-11659384D02*
X10049863Y-11859384D01*
X10230815Y-11859384D02*
X10230815Y-11754622D01*
X10230815Y-11754622D02*
X10221291Y-11735574D01*
X10221291Y-11735574D02*
X10202244Y-11726050D01*
X10202244Y-11726050D02*
X10164148Y-11726050D01*
X10164148Y-11726050D02*
X10145101Y-11735574D01*
X10230815Y-11849860D02*
X10211767Y-11859384D01*
X10211767Y-11859384D02*
X10164148Y-11859384D01*
X10164148Y-11859384D02*
X10145101Y-11849860D01*
X10145101Y-11849860D02*
X10135577Y-11830812D01*
X10135577Y-11830812D02*
X10135577Y-11811765D01*
X10135577Y-11811765D02*
X10145101Y-11792717D01*
X10145101Y-11792717D02*
X10164148Y-11783193D01*
X10164148Y-11783193D02*
X10211767Y-11783193D01*
X10211767Y-11783193D02*
X10230815Y-11773669D01*
X10326053Y-11726050D02*
X10326053Y-11926050D01*
X10326053Y-11735574D02*
X10345101Y-11726050D01*
X10345101Y-11726050D02*
X10383196Y-11726050D01*
X10383196Y-11726050D02*
X10402244Y-11735574D01*
X10402244Y-11735574D02*
X10411767Y-11745098D01*
X10411767Y-11745098D02*
X10421291Y-11764146D01*
X10421291Y-11764146D02*
X10421291Y-11821288D01*
X10421291Y-11821288D02*
X10411767Y-11840336D01*
X10411767Y-11840336D02*
X10402244Y-11849860D01*
X10402244Y-11849860D02*
X10383196Y-11859384D01*
X10383196Y-11859384D02*
X10345101Y-11859384D01*
X10345101Y-11859384D02*
X10326053Y-11849860D01*
X10507005Y-11840336D02*
X10516529Y-11849860D01*
X10516529Y-11849860D02*
X10507005Y-11859384D01*
X10507005Y-11859384D02*
X10497482Y-11849860D01*
X10497482Y-11849860D02*
X10507005Y-11840336D01*
X10507005Y-11840336D02*
X10507005Y-11859384D01*
X10507005Y-11735574D02*
X10516529Y-11745098D01*
X10516529Y-11745098D02*
X10507005Y-11754622D01*
X10507005Y-11754622D02*
X10497482Y-11745098D01*
X10497482Y-11745098D02*
X10507005Y-11735574D01*
X10507005Y-11735574D02*
X10507005Y-11754622D01*
D12*
X8844800Y-12172900D02*
X8874800Y-12202900D01*
X8874800Y-12172900D02*
X8844800Y-12202900D01*
D11*
X9173672Y-12079384D02*
X9192720Y-12079384D01*
X9192720Y-12079384D02*
X9211767Y-12088908D01*
X9211767Y-12088908D02*
X9221291Y-12098431D01*
X9221291Y-12098431D02*
X9230815Y-12117479D01*
X9230815Y-12117479D02*
X9240339Y-12155574D01*
X9240339Y-12155574D02*
X9240339Y-12203193D01*
X9240339Y-12203193D02*
X9230815Y-12241288D01*
X9230815Y-12241288D02*
X9221291Y-12260336D01*
X9221291Y-12260336D02*
X9211767Y-12269860D01*
X9211767Y-12269860D02*
X9192720Y-12279384D01*
X9192720Y-12279384D02*
X9173672Y-12279384D01*
X9173672Y-12279384D02*
X9154624Y-12269860D01*
X9154624Y-12269860D02*
X9145101Y-12260336D01*
X9145101Y-12260336D02*
X9135577Y-12241288D01*
X9135577Y-12241288D02*
X9126053Y-12203193D01*
X9126053Y-12203193D02*
X9126053Y-12155574D01*
X9126053Y-12155574D02*
X9135577Y-12117479D01*
X9135577Y-12117479D02*
X9145101Y-12098431D01*
X9145101Y-12098431D02*
X9154624Y-12088908D01*
X9154624Y-12088908D02*
X9173672Y-12079384D01*
X9326053Y-12260336D02*
X9335577Y-12269860D01*
X9335577Y-12269860D02*
X9326053Y-12279384D01*
X9326053Y-12279384D02*
X9316529Y-12269860D01*
X9316529Y-12269860D02*
X9326053Y-12260336D01*
X9326053Y-12260336D02*
X9326053Y-12279384D01*
X9402244Y-12079384D02*
X9526053Y-12079384D01*
X9526053Y-12079384D02*
X9459386Y-12155574D01*
X9459386Y-12155574D02*
X9487958Y-12155574D01*
X9487958Y-12155574D02*
X9507005Y-12165098D01*
X9507005Y-12165098D02*
X9516529Y-12174622D01*
X9516529Y-12174622D02*
X9526053Y-12193669D01*
X9526053Y-12193669D02*
X9526053Y-12241288D01*
X9526053Y-12241288D02*
X9516529Y-12260336D01*
X9516529Y-12260336D02*
X9507005Y-12269860D01*
X9507005Y-12269860D02*
X9487958Y-12279384D01*
X9487958Y-12279384D02*
X9430815Y-12279384D01*
X9430815Y-12279384D02*
X9411767Y-12269860D01*
X9411767Y-12269860D02*
X9402244Y-12260336D01*
X9649863Y-12079384D02*
X9668910Y-12079384D01*
X9668910Y-12079384D02*
X9687958Y-12088908D01*
X9687958Y-12088908D02*
X9697482Y-12098431D01*
X9697482Y-12098431D02*
X9707005Y-12117479D01*
X9707005Y-12117479D02*
X9716529Y-12155574D01*
X9716529Y-12155574D02*
X9716529Y-12203193D01*
X9716529Y-12203193D02*
X9707005Y-12241288D01*
X9707005Y-12241288D02*
X9697482Y-12260336D01*
X9697482Y-12260336D02*
X9687958Y-12269860D01*
X9687958Y-12269860D02*
X9668910Y-12279384D01*
X9668910Y-12279384D02*
X9649863Y-12279384D01*
X9649863Y-12279384D02*
X9630815Y-12269860D01*
X9630815Y-12269860D02*
X9621291Y-12260336D01*
X9621291Y-12260336D02*
X9611767Y-12241288D01*
X9611767Y-12241288D02*
X9602244Y-12203193D01*
X9602244Y-12203193D02*
X9602244Y-12155574D01*
X9602244Y-12155574D02*
X9611767Y-12117479D01*
X9611767Y-12117479D02*
X9621291Y-12098431D01*
X9621291Y-12098431D02*
X9630815Y-12088908D01*
X9630815Y-12088908D02*
X9649863Y-12079384D01*
X9840339Y-12079384D02*
X9859386Y-12079384D01*
X9859386Y-12079384D02*
X9878434Y-12088908D01*
X9878434Y-12088908D02*
X9887958Y-12098431D01*
X9887958Y-12098431D02*
X9897482Y-12117479D01*
X9897482Y-12117479D02*
X9907005Y-12155574D01*
X9907005Y-12155574D02*
X9907005Y-12203193D01*
X9907005Y-12203193D02*
X9897482Y-12241288D01*
X9897482Y-12241288D02*
X9887958Y-12260336D01*
X9887958Y-12260336D02*
X9878434Y-12269860D01*
X9878434Y-12269860D02*
X9859386Y-12279384D01*
X9859386Y-12279384D02*
X9840339Y-12279384D01*
X9840339Y-12279384D02*
X9821291Y-12269860D01*
X9821291Y-12269860D02*
X9811767Y-12260336D01*
X9811767Y-12260336D02*
X9802244Y-12241288D01*
X9802244Y-12241288D02*
X9792720Y-12203193D01*
X9792720Y-12203193D02*
X9792720Y-12155574D01*
X9792720Y-12155574D02*
X9802244Y-12117479D01*
X9802244Y-12117479D02*
X9811767Y-12098431D01*
X9811767Y-12098431D02*
X9821291Y-12088908D01*
X9821291Y-12088908D02*
X9840339Y-12079384D01*
X9992720Y-12279384D02*
X9992720Y-12146050D01*
X9992720Y-12165098D02*
X10002244Y-12155574D01*
X10002244Y-12155574D02*
X10021291Y-12146050D01*
X10021291Y-12146050D02*
X10049863Y-12146050D01*
X10049863Y-12146050D02*
X10068910Y-12155574D01*
X10068910Y-12155574D02*
X10078434Y-12174622D01*
X10078434Y-12174622D02*
X10078434Y-12279384D01*
X10078434Y-12174622D02*
X10087958Y-12155574D01*
X10087958Y-12155574D02*
X10107005Y-12146050D01*
X10107005Y-12146050D02*
X10135577Y-12146050D01*
X10135577Y-12146050D02*
X10154625Y-12155574D01*
X10154625Y-12155574D02*
X10164148Y-12174622D01*
X10164148Y-12174622D02*
X10164148Y-12279384D01*
X10259386Y-12279384D02*
X10259386Y-12146050D01*
X10259386Y-12165098D02*
X10268910Y-12155574D01*
X10268910Y-12155574D02*
X10287958Y-12146050D01*
X10287958Y-12146050D02*
X10316529Y-12146050D01*
X10316529Y-12146050D02*
X10335577Y-12155574D01*
X10335577Y-12155574D02*
X10345101Y-12174622D01*
X10345101Y-12174622D02*
X10345101Y-12279384D01*
X10345101Y-12174622D02*
X10354625Y-12155574D01*
X10354625Y-12155574D02*
X10373672Y-12146050D01*
X10373672Y-12146050D02*
X10402244Y-12146050D01*
X10402244Y-12146050D02*
X10421291Y-12155574D01*
X10421291Y-12155574D02*
X10430815Y-12174622D01*
X10430815Y-12174622D02*
X10430815Y-12279384D01*
X10821291Y-12069860D02*
X10649863Y-12327003D01*
X11078434Y-12079384D02*
X11097482Y-12079384D01*
X11097482Y-12079384D02*
X11116529Y-12088908D01*
X11116529Y-12088908D02*
X11126053Y-12098431D01*
X11126053Y-12098431D02*
X11135577Y-12117479D01*
X11135577Y-12117479D02*
X11145101Y-12155574D01*
X11145101Y-12155574D02*
X11145101Y-12203193D01*
X11145101Y-12203193D02*
X11135577Y-12241288D01*
X11135577Y-12241288D02*
X11126053Y-12260336D01*
X11126053Y-12260336D02*
X11116529Y-12269860D01*
X11116529Y-12269860D02*
X11097482Y-12279384D01*
X11097482Y-12279384D02*
X11078434Y-12279384D01*
X11078434Y-12279384D02*
X11059387Y-12269860D01*
X11059387Y-12269860D02*
X11049863Y-12260336D01*
X11049863Y-12260336D02*
X11040339Y-12241288D01*
X11040339Y-12241288D02*
X11030815Y-12203193D01*
X11030815Y-12203193D02*
X11030815Y-12155574D01*
X11030815Y-12155574D02*
X11040339Y-12117479D01*
X11040339Y-12117479D02*
X11049863Y-12098431D01*
X11049863Y-12098431D02*
X11059387Y-12088908D01*
X11059387Y-12088908D02*
X11078434Y-12079384D01*
X11230815Y-12260336D02*
X11240339Y-12269860D01*
X11240339Y-12269860D02*
X11230815Y-12279384D01*
X11230815Y-12279384D02*
X11221291Y-12269860D01*
X11221291Y-12269860D02*
X11230815Y-12260336D01*
X11230815Y-12260336D02*
X11230815Y-12279384D01*
X11364148Y-12079384D02*
X11383196Y-12079384D01*
X11383196Y-12079384D02*
X11402244Y-12088908D01*
X11402244Y-12088908D02*
X11411767Y-12098431D01*
X11411767Y-12098431D02*
X11421291Y-12117479D01*
X11421291Y-12117479D02*
X11430815Y-12155574D01*
X11430815Y-12155574D02*
X11430815Y-12203193D01*
X11430815Y-12203193D02*
X11421291Y-12241288D01*
X11421291Y-12241288D02*
X11411767Y-12260336D01*
X11411767Y-12260336D02*
X11402244Y-12269860D01*
X11402244Y-12269860D02*
X11383196Y-12279384D01*
X11383196Y-12279384D02*
X11364148Y-12279384D01*
X11364148Y-12279384D02*
X11345101Y-12269860D01*
X11345101Y-12269860D02*
X11335577Y-12260336D01*
X11335577Y-12260336D02*
X11326053Y-12241288D01*
X11326053Y-12241288D02*
X11316529Y-12203193D01*
X11316529Y-12203193D02*
X11316529Y-12155574D01*
X11316529Y-12155574D02*
X11326053Y-12117479D01*
X11326053Y-12117479D02*
X11335577Y-12098431D01*
X11335577Y-12098431D02*
X11345101Y-12088908D01*
X11345101Y-12088908D02*
X11364148Y-12079384D01*
X11621291Y-12279384D02*
X11507006Y-12279384D01*
X11564148Y-12279384D02*
X11564148Y-12079384D01*
X11564148Y-12079384D02*
X11545101Y-12107955D01*
X11545101Y-12107955D02*
X11526053Y-12127003D01*
X11526053Y-12127003D02*
X11507006Y-12136527D01*
X11811767Y-12279384D02*
X11697482Y-12279384D01*
X11754625Y-12279384D02*
X11754625Y-12079384D01*
X11754625Y-12079384D02*
X11735577Y-12107955D01*
X11735577Y-12107955D02*
X11716529Y-12127003D01*
X11716529Y-12127003D02*
X11697482Y-12136527D01*
X11926053Y-12165098D02*
X11907006Y-12155574D01*
X11907006Y-12155574D02*
X11897482Y-12146050D01*
X11897482Y-12146050D02*
X11887958Y-12127003D01*
X11887958Y-12127003D02*
X11887958Y-12117479D01*
X11887958Y-12117479D02*
X11897482Y-12098431D01*
X11897482Y-12098431D02*
X11907006Y-12088908D01*
X11907006Y-12088908D02*
X11926053Y-12079384D01*
X11926053Y-12079384D02*
X11964148Y-12079384D01*
X11964148Y-12079384D02*
X11983196Y-12088908D01*
X11983196Y-12088908D02*
X11992720Y-12098431D01*
X11992720Y-12098431D02*
X12002244Y-12117479D01*
X12002244Y-12117479D02*
X12002244Y-12127003D01*
X12002244Y-12127003D02*
X11992720Y-12146050D01*
X11992720Y-12146050D02*
X11983196Y-12155574D01*
X11983196Y-12155574D02*
X11964148Y-12165098D01*
X11964148Y-12165098D02*
X11926053Y-12165098D01*
X11926053Y-12165098D02*
X11907006Y-12174622D01*
X11907006Y-12174622D02*
X11897482Y-12184146D01*
X11897482Y-12184146D02*
X11887958Y-12203193D01*
X11887958Y-12203193D02*
X11887958Y-12241288D01*
X11887958Y-12241288D02*
X11897482Y-12260336D01*
X11897482Y-12260336D02*
X11907006Y-12269860D01*
X11907006Y-12269860D02*
X11926053Y-12279384D01*
X11926053Y-12279384D02*
X11964148Y-12279384D01*
X11964148Y-12279384D02*
X11983196Y-12269860D01*
X11983196Y-12269860D02*
X11992720Y-12260336D01*
X11992720Y-12260336D02*
X12002244Y-12241288D01*
X12002244Y-12241288D02*
X12002244Y-12203193D01*
X12002244Y-12203193D02*
X11992720Y-12184146D01*
X11992720Y-12184146D02*
X11983196Y-12174622D01*
X11983196Y-12174622D02*
X11964148Y-12165098D01*
X12078434Y-12079384D02*
X12078434Y-12117479D01*
X12154625Y-12079384D02*
X12154625Y-12117479D01*
X12449863Y-12355574D02*
X12440339Y-12346050D01*
X12440339Y-12346050D02*
X12421291Y-12317479D01*
X12421291Y-12317479D02*
X12411768Y-12298431D01*
X12411768Y-12298431D02*
X12402244Y-12269860D01*
X12402244Y-12269860D02*
X12392720Y-12222241D01*
X12392720Y-12222241D02*
X12392720Y-12184146D01*
X12392720Y-12184146D02*
X12402244Y-12136527D01*
X12402244Y-12136527D02*
X12411768Y-12107955D01*
X12411768Y-12107955D02*
X12421291Y-12088908D01*
X12421291Y-12088908D02*
X12440339Y-12060336D01*
X12440339Y-12060336D02*
X12449863Y-12050812D01*
X12516529Y-12098431D02*
X12526053Y-12088908D01*
X12526053Y-12088908D02*
X12545101Y-12079384D01*
X12545101Y-12079384D02*
X12592720Y-12079384D01*
X12592720Y-12079384D02*
X12611768Y-12088908D01*
X12611768Y-12088908D02*
X12621291Y-12098431D01*
X12621291Y-12098431D02*
X12630815Y-12117479D01*
X12630815Y-12117479D02*
X12630815Y-12136527D01*
X12630815Y-12136527D02*
X12621291Y-12165098D01*
X12621291Y-12165098D02*
X12507006Y-12279384D01*
X12507006Y-12279384D02*
X12630815Y-12279384D01*
X12802244Y-12079384D02*
X12764148Y-12079384D01*
X12764148Y-12079384D02*
X12745101Y-12088908D01*
X12745101Y-12088908D02*
X12735577Y-12098431D01*
X12735577Y-12098431D02*
X12716529Y-12127003D01*
X12716529Y-12127003D02*
X12707006Y-12165098D01*
X12707006Y-12165098D02*
X12707006Y-12241288D01*
X12707006Y-12241288D02*
X12716529Y-12260336D01*
X12716529Y-12260336D02*
X12726053Y-12269860D01*
X12726053Y-12269860D02*
X12745101Y-12279384D01*
X12745101Y-12279384D02*
X12783196Y-12279384D01*
X12783196Y-12279384D02*
X12802244Y-12269860D01*
X12802244Y-12269860D02*
X12811768Y-12260336D01*
X12811768Y-12260336D02*
X12821291Y-12241288D01*
X12821291Y-12241288D02*
X12821291Y-12193669D01*
X12821291Y-12193669D02*
X12811768Y-12174622D01*
X12811768Y-12174622D02*
X12802244Y-12165098D01*
X12802244Y-12165098D02*
X12783196Y-12155574D01*
X12783196Y-12155574D02*
X12745101Y-12155574D01*
X12745101Y-12155574D02*
X12726053Y-12165098D01*
X12726053Y-12165098D02*
X12716529Y-12174622D01*
X12716529Y-12174622D02*
X12707006Y-12193669D01*
X13059387Y-12279384D02*
X13059387Y-12079384D01*
X13145101Y-12279384D02*
X13145101Y-12174622D01*
X13145101Y-12174622D02*
X13135577Y-12155574D01*
X13135577Y-12155574D02*
X13116530Y-12146050D01*
X13116530Y-12146050D02*
X13087958Y-12146050D01*
X13087958Y-12146050D02*
X13068910Y-12155574D01*
X13068910Y-12155574D02*
X13059387Y-12165098D01*
X13268910Y-12279384D02*
X13249863Y-12269860D01*
X13249863Y-12269860D02*
X13240339Y-12260336D01*
X13240339Y-12260336D02*
X13230815Y-12241288D01*
X13230815Y-12241288D02*
X13230815Y-12184146D01*
X13230815Y-12184146D02*
X13240339Y-12165098D01*
X13240339Y-12165098D02*
X13249863Y-12155574D01*
X13249863Y-12155574D02*
X13268910Y-12146050D01*
X13268910Y-12146050D02*
X13297482Y-12146050D01*
X13297482Y-12146050D02*
X13316530Y-12155574D01*
X13316530Y-12155574D02*
X13326053Y-12165098D01*
X13326053Y-12165098D02*
X13335577Y-12184146D01*
X13335577Y-12184146D02*
X13335577Y-12241288D01*
X13335577Y-12241288D02*
X13326053Y-12260336D01*
X13326053Y-12260336D02*
X13316530Y-12269860D01*
X13316530Y-12269860D02*
X13297482Y-12279384D01*
X13297482Y-12279384D02*
X13268910Y-12279384D01*
X13449863Y-12279384D02*
X13430815Y-12269860D01*
X13430815Y-12269860D02*
X13421291Y-12250812D01*
X13421291Y-12250812D02*
X13421291Y-12079384D01*
X13602244Y-12269860D02*
X13583196Y-12279384D01*
X13583196Y-12279384D02*
X13545101Y-12279384D01*
X13545101Y-12279384D02*
X13526053Y-12269860D01*
X13526053Y-12269860D02*
X13516530Y-12250812D01*
X13516530Y-12250812D02*
X13516530Y-12174622D01*
X13516530Y-12174622D02*
X13526053Y-12155574D01*
X13526053Y-12155574D02*
X13545101Y-12146050D01*
X13545101Y-12146050D02*
X13583196Y-12146050D01*
X13583196Y-12146050D02*
X13602244Y-12155574D01*
X13602244Y-12155574D02*
X13611768Y-12174622D01*
X13611768Y-12174622D02*
X13611768Y-12193669D01*
X13611768Y-12193669D02*
X13516530Y-12212717D01*
X13687958Y-12269860D02*
X13707006Y-12279384D01*
X13707006Y-12279384D02*
X13745101Y-12279384D01*
X13745101Y-12279384D02*
X13764149Y-12269860D01*
X13764149Y-12269860D02*
X13773672Y-12250812D01*
X13773672Y-12250812D02*
X13773672Y-12241288D01*
X13773672Y-12241288D02*
X13764149Y-12222241D01*
X13764149Y-12222241D02*
X13745101Y-12212717D01*
X13745101Y-12212717D02*
X13716530Y-12212717D01*
X13716530Y-12212717D02*
X13697482Y-12203193D01*
X13697482Y-12203193D02*
X13687958Y-12184146D01*
X13687958Y-12184146D02*
X13687958Y-12174622D01*
X13687958Y-12174622D02*
X13697482Y-12155574D01*
X13697482Y-12155574D02*
X13716530Y-12146050D01*
X13716530Y-12146050D02*
X13745101Y-12146050D01*
X13745101Y-12146050D02*
X13764149Y-12155574D01*
X13840339Y-12355574D02*
X13849863Y-12346050D01*
X13849863Y-12346050D02*
X13868911Y-12317479D01*
X13868911Y-12317479D02*
X13878434Y-12298431D01*
X13878434Y-12298431D02*
X13887958Y-12269860D01*
X13887958Y-12269860D02*
X13897482Y-12222241D01*
X13897482Y-12222241D02*
X13897482Y-12184146D01*
X13897482Y-12184146D02*
X13887958Y-12136527D01*
X13887958Y-12136527D02*
X13878434Y-12107955D01*
X13878434Y-12107955D02*
X13868911Y-12088908D01*
X13868911Y-12088908D02*
X13849863Y-12060336D01*
X13849863Y-12060336D02*
X13840339Y-12050812D01*
D12*
X8874800Y-12451900D02*
G75*
G02*
X8824800Y-12451900I-25000J0D01*
G01*
X8824800Y-12451900D02*
G75*
G02*
X8874800Y-12451900I25000J0D01*
G01*
D11*
X9173672Y-12343384D02*
X9192720Y-12343384D01*
X9192720Y-12343384D02*
X9211767Y-12352908D01*
X9211767Y-12352908D02*
X9221291Y-12362431D01*
X9221291Y-12362431D02*
X9230815Y-12381479D01*
X9230815Y-12381479D02*
X9240339Y-12419574D01*
X9240339Y-12419574D02*
X9240339Y-12467193D01*
X9240339Y-12467193D02*
X9230815Y-12505288D01*
X9230815Y-12505288D02*
X9221291Y-12524336D01*
X9221291Y-12524336D02*
X9211767Y-12533860D01*
X9211767Y-12533860D02*
X9192720Y-12543384D01*
X9192720Y-12543384D02*
X9173672Y-12543384D01*
X9173672Y-12543384D02*
X9154624Y-12533860D01*
X9154624Y-12533860D02*
X9145101Y-12524336D01*
X9145101Y-12524336D02*
X9135577Y-12505288D01*
X9135577Y-12505288D02*
X9126053Y-12467193D01*
X9126053Y-12467193D02*
X9126053Y-12419574D01*
X9126053Y-12419574D02*
X9135577Y-12381479D01*
X9135577Y-12381479D02*
X9145101Y-12362431D01*
X9145101Y-12362431D02*
X9154624Y-12352908D01*
X9154624Y-12352908D02*
X9173672Y-12343384D01*
X9326053Y-12524336D02*
X9335577Y-12533860D01*
X9335577Y-12533860D02*
X9326053Y-12543384D01*
X9326053Y-12543384D02*
X9316529Y-12533860D01*
X9316529Y-12533860D02*
X9326053Y-12524336D01*
X9326053Y-12524336D02*
X9326053Y-12543384D01*
X9516529Y-12343384D02*
X9421291Y-12343384D01*
X9421291Y-12343384D02*
X9411767Y-12438622D01*
X9411767Y-12438622D02*
X9421291Y-12429098D01*
X9421291Y-12429098D02*
X9440339Y-12419574D01*
X9440339Y-12419574D02*
X9487958Y-12419574D01*
X9487958Y-12419574D02*
X9507005Y-12429098D01*
X9507005Y-12429098D02*
X9516529Y-12438622D01*
X9516529Y-12438622D02*
X9526053Y-12457669D01*
X9526053Y-12457669D02*
X9526053Y-12505288D01*
X9526053Y-12505288D02*
X9516529Y-12524336D01*
X9516529Y-12524336D02*
X9507005Y-12533860D01*
X9507005Y-12533860D02*
X9487958Y-12543384D01*
X9487958Y-12543384D02*
X9440339Y-12543384D01*
X9440339Y-12543384D02*
X9421291Y-12533860D01*
X9421291Y-12533860D02*
X9411767Y-12524336D01*
X9649863Y-12343384D02*
X9668910Y-12343384D01*
X9668910Y-12343384D02*
X9687958Y-12352908D01*
X9687958Y-12352908D02*
X9697482Y-12362431D01*
X9697482Y-12362431D02*
X9707005Y-12381479D01*
X9707005Y-12381479D02*
X9716529Y-12419574D01*
X9716529Y-12419574D02*
X9716529Y-12467193D01*
X9716529Y-12467193D02*
X9707005Y-12505288D01*
X9707005Y-12505288D02*
X9697482Y-12524336D01*
X9697482Y-12524336D02*
X9687958Y-12533860D01*
X9687958Y-12533860D02*
X9668910Y-12543384D01*
X9668910Y-12543384D02*
X9649863Y-12543384D01*
X9649863Y-12543384D02*
X9630815Y-12533860D01*
X9630815Y-12533860D02*
X9621291Y-12524336D01*
X9621291Y-12524336D02*
X9611767Y-12505288D01*
X9611767Y-12505288D02*
X9602244Y-12467193D01*
X9602244Y-12467193D02*
X9602244Y-12419574D01*
X9602244Y-12419574D02*
X9611767Y-12381479D01*
X9611767Y-12381479D02*
X9621291Y-12362431D01*
X9621291Y-12362431D02*
X9630815Y-12352908D01*
X9630815Y-12352908D02*
X9649863Y-12343384D01*
X9840339Y-12343384D02*
X9859386Y-12343384D01*
X9859386Y-12343384D02*
X9878434Y-12352908D01*
X9878434Y-12352908D02*
X9887958Y-12362431D01*
X9887958Y-12362431D02*
X9897482Y-12381479D01*
X9897482Y-12381479D02*
X9907005Y-12419574D01*
X9907005Y-12419574D02*
X9907005Y-12467193D01*
X9907005Y-12467193D02*
X9897482Y-12505288D01*
X9897482Y-12505288D02*
X9887958Y-12524336D01*
X9887958Y-12524336D02*
X9878434Y-12533860D01*
X9878434Y-12533860D02*
X9859386Y-12543384D01*
X9859386Y-12543384D02*
X9840339Y-12543384D01*
X9840339Y-12543384D02*
X9821291Y-12533860D01*
X9821291Y-12533860D02*
X9811767Y-12524336D01*
X9811767Y-12524336D02*
X9802244Y-12505288D01*
X9802244Y-12505288D02*
X9792720Y-12467193D01*
X9792720Y-12467193D02*
X9792720Y-12419574D01*
X9792720Y-12419574D02*
X9802244Y-12381479D01*
X9802244Y-12381479D02*
X9811767Y-12362431D01*
X9811767Y-12362431D02*
X9821291Y-12352908D01*
X9821291Y-12352908D02*
X9840339Y-12343384D01*
X9992720Y-12543384D02*
X9992720Y-12410050D01*
X9992720Y-12429098D02*
X10002244Y-12419574D01*
X10002244Y-12419574D02*
X10021291Y-12410050D01*
X10021291Y-12410050D02*
X10049863Y-12410050D01*
X10049863Y-12410050D02*
X10068910Y-12419574D01*
X10068910Y-12419574D02*
X10078434Y-12438622D01*
X10078434Y-12438622D02*
X10078434Y-12543384D01*
X10078434Y-12438622D02*
X10087958Y-12419574D01*
X10087958Y-12419574D02*
X10107005Y-12410050D01*
X10107005Y-12410050D02*
X10135577Y-12410050D01*
X10135577Y-12410050D02*
X10154625Y-12419574D01*
X10154625Y-12419574D02*
X10164148Y-12438622D01*
X10164148Y-12438622D02*
X10164148Y-12543384D01*
X10259386Y-12543384D02*
X10259386Y-12410050D01*
X10259386Y-12429098D02*
X10268910Y-12419574D01*
X10268910Y-12419574D02*
X10287958Y-12410050D01*
X10287958Y-12410050D02*
X10316529Y-12410050D01*
X10316529Y-12410050D02*
X10335577Y-12419574D01*
X10335577Y-12419574D02*
X10345101Y-12438622D01*
X10345101Y-12438622D02*
X10345101Y-12543384D01*
X10345101Y-12438622D02*
X10354625Y-12419574D01*
X10354625Y-12419574D02*
X10373672Y-12410050D01*
X10373672Y-12410050D02*
X10402244Y-12410050D01*
X10402244Y-12410050D02*
X10421291Y-12419574D01*
X10421291Y-12419574D02*
X10430815Y-12438622D01*
X10430815Y-12438622D02*
X10430815Y-12543384D01*
X10821291Y-12333860D02*
X10649863Y-12591003D01*
X11078434Y-12343384D02*
X11097482Y-12343384D01*
X11097482Y-12343384D02*
X11116529Y-12352908D01*
X11116529Y-12352908D02*
X11126053Y-12362431D01*
X11126053Y-12362431D02*
X11135577Y-12381479D01*
X11135577Y-12381479D02*
X11145101Y-12419574D01*
X11145101Y-12419574D02*
X11145101Y-12467193D01*
X11145101Y-12467193D02*
X11135577Y-12505288D01*
X11135577Y-12505288D02*
X11126053Y-12524336D01*
X11126053Y-12524336D02*
X11116529Y-12533860D01*
X11116529Y-12533860D02*
X11097482Y-12543384D01*
X11097482Y-12543384D02*
X11078434Y-12543384D01*
X11078434Y-12543384D02*
X11059387Y-12533860D01*
X11059387Y-12533860D02*
X11049863Y-12524336D01*
X11049863Y-12524336D02*
X11040339Y-12505288D01*
X11040339Y-12505288D02*
X11030815Y-12467193D01*
X11030815Y-12467193D02*
X11030815Y-12419574D01*
X11030815Y-12419574D02*
X11040339Y-12381479D01*
X11040339Y-12381479D02*
X11049863Y-12362431D01*
X11049863Y-12362431D02*
X11059387Y-12352908D01*
X11059387Y-12352908D02*
X11078434Y-12343384D01*
X11230815Y-12524336D02*
X11240339Y-12533860D01*
X11240339Y-12533860D02*
X11230815Y-12543384D01*
X11230815Y-12543384D02*
X11221291Y-12533860D01*
X11221291Y-12533860D02*
X11230815Y-12524336D01*
X11230815Y-12524336D02*
X11230815Y-12543384D01*
X11364148Y-12343384D02*
X11383196Y-12343384D01*
X11383196Y-12343384D02*
X11402244Y-12352908D01*
X11402244Y-12352908D02*
X11411767Y-12362431D01*
X11411767Y-12362431D02*
X11421291Y-12381479D01*
X11421291Y-12381479D02*
X11430815Y-12419574D01*
X11430815Y-12419574D02*
X11430815Y-12467193D01*
X11430815Y-12467193D02*
X11421291Y-12505288D01*
X11421291Y-12505288D02*
X11411767Y-12524336D01*
X11411767Y-12524336D02*
X11402244Y-12533860D01*
X11402244Y-12533860D02*
X11383196Y-12543384D01*
X11383196Y-12543384D02*
X11364148Y-12543384D01*
X11364148Y-12543384D02*
X11345101Y-12533860D01*
X11345101Y-12533860D02*
X11335577Y-12524336D01*
X11335577Y-12524336D02*
X11326053Y-12505288D01*
X11326053Y-12505288D02*
X11316529Y-12467193D01*
X11316529Y-12467193D02*
X11316529Y-12419574D01*
X11316529Y-12419574D02*
X11326053Y-12381479D01*
X11326053Y-12381479D02*
X11335577Y-12362431D01*
X11335577Y-12362431D02*
X11345101Y-12352908D01*
X11345101Y-12352908D02*
X11364148Y-12343384D01*
X11621291Y-12543384D02*
X11507006Y-12543384D01*
X11564148Y-12543384D02*
X11564148Y-12343384D01*
X11564148Y-12343384D02*
X11545101Y-12371955D01*
X11545101Y-12371955D02*
X11526053Y-12391003D01*
X11526053Y-12391003D02*
X11507006Y-12400527D01*
X11716529Y-12543384D02*
X11754625Y-12543384D01*
X11754625Y-12543384D02*
X11773672Y-12533860D01*
X11773672Y-12533860D02*
X11783196Y-12524336D01*
X11783196Y-12524336D02*
X11802244Y-12495765D01*
X11802244Y-12495765D02*
X11811767Y-12457669D01*
X11811767Y-12457669D02*
X11811767Y-12381479D01*
X11811767Y-12381479D02*
X11802244Y-12362431D01*
X11802244Y-12362431D02*
X11792720Y-12352908D01*
X11792720Y-12352908D02*
X11773672Y-12343384D01*
X11773672Y-12343384D02*
X11735577Y-12343384D01*
X11735577Y-12343384D02*
X11716529Y-12352908D01*
X11716529Y-12352908D02*
X11707006Y-12362431D01*
X11707006Y-12362431D02*
X11697482Y-12381479D01*
X11697482Y-12381479D02*
X11697482Y-12429098D01*
X11697482Y-12429098D02*
X11707006Y-12448146D01*
X11707006Y-12448146D02*
X11716529Y-12457669D01*
X11716529Y-12457669D02*
X11735577Y-12467193D01*
X11735577Y-12467193D02*
X11773672Y-12467193D01*
X11773672Y-12467193D02*
X11792720Y-12457669D01*
X11792720Y-12457669D02*
X11802244Y-12448146D01*
X11802244Y-12448146D02*
X11811767Y-12429098D01*
X11878434Y-12343384D02*
X12011767Y-12343384D01*
X12011767Y-12343384D02*
X11926053Y-12543384D01*
X12078434Y-12343384D02*
X12078434Y-12381479D01*
X12154625Y-12343384D02*
X12154625Y-12381479D01*
X12449863Y-12619574D02*
X12440339Y-12610050D01*
X12440339Y-12610050D02*
X12421291Y-12581479D01*
X12421291Y-12581479D02*
X12411768Y-12562431D01*
X12411768Y-12562431D02*
X12402244Y-12533860D01*
X12402244Y-12533860D02*
X12392720Y-12486241D01*
X12392720Y-12486241D02*
X12392720Y-12448146D01*
X12392720Y-12448146D02*
X12402244Y-12400527D01*
X12402244Y-12400527D02*
X12411768Y-12371955D01*
X12411768Y-12371955D02*
X12421291Y-12352908D01*
X12421291Y-12352908D02*
X12440339Y-12324336D01*
X12440339Y-12324336D02*
X12449863Y-12314812D01*
X12516529Y-12362431D02*
X12526053Y-12352908D01*
X12526053Y-12352908D02*
X12545101Y-12343384D01*
X12545101Y-12343384D02*
X12592720Y-12343384D01*
X12592720Y-12343384D02*
X12611768Y-12352908D01*
X12611768Y-12352908D02*
X12621291Y-12362431D01*
X12621291Y-12362431D02*
X12630815Y-12381479D01*
X12630815Y-12381479D02*
X12630815Y-12400527D01*
X12630815Y-12400527D02*
X12621291Y-12429098D01*
X12621291Y-12429098D02*
X12507006Y-12543384D01*
X12507006Y-12543384D02*
X12630815Y-12543384D01*
X12868910Y-12543384D02*
X12868910Y-12343384D01*
X12954625Y-12543384D02*
X12954625Y-12438622D01*
X12954625Y-12438622D02*
X12945101Y-12419574D01*
X12945101Y-12419574D02*
X12926053Y-12410050D01*
X12926053Y-12410050D02*
X12897482Y-12410050D01*
X12897482Y-12410050D02*
X12878434Y-12419574D01*
X12878434Y-12419574D02*
X12868910Y-12429098D01*
X13078434Y-12543384D02*
X13059387Y-12533860D01*
X13059387Y-12533860D02*
X13049863Y-12524336D01*
X13049863Y-12524336D02*
X13040339Y-12505288D01*
X13040339Y-12505288D02*
X13040339Y-12448146D01*
X13040339Y-12448146D02*
X13049863Y-12429098D01*
X13049863Y-12429098D02*
X13059387Y-12419574D01*
X13059387Y-12419574D02*
X13078434Y-12410050D01*
X13078434Y-12410050D02*
X13107006Y-12410050D01*
X13107006Y-12410050D02*
X13126053Y-12419574D01*
X13126053Y-12419574D02*
X13135577Y-12429098D01*
X13135577Y-12429098D02*
X13145101Y-12448146D01*
X13145101Y-12448146D02*
X13145101Y-12505288D01*
X13145101Y-12505288D02*
X13135577Y-12524336D01*
X13135577Y-12524336D02*
X13126053Y-12533860D01*
X13126053Y-12533860D02*
X13107006Y-12543384D01*
X13107006Y-12543384D02*
X13078434Y-12543384D01*
X13259387Y-12543384D02*
X13240339Y-12533860D01*
X13240339Y-12533860D02*
X13230815Y-12514812D01*
X13230815Y-12514812D02*
X13230815Y-12343384D01*
X13411768Y-12533860D02*
X13392720Y-12543384D01*
X13392720Y-12543384D02*
X13354625Y-12543384D01*
X13354625Y-12543384D02*
X13335577Y-12533860D01*
X13335577Y-12533860D02*
X13326053Y-12514812D01*
X13326053Y-12514812D02*
X13326053Y-12438622D01*
X13326053Y-12438622D02*
X13335577Y-12419574D01*
X13335577Y-12419574D02*
X13354625Y-12410050D01*
X13354625Y-12410050D02*
X13392720Y-12410050D01*
X13392720Y-12410050D02*
X13411768Y-12419574D01*
X13411768Y-12419574D02*
X13421291Y-12438622D01*
X13421291Y-12438622D02*
X13421291Y-12457669D01*
X13421291Y-12457669D02*
X13326053Y-12476717D01*
X13497482Y-12533860D02*
X13516530Y-12543384D01*
X13516530Y-12543384D02*
X13554625Y-12543384D01*
X13554625Y-12543384D02*
X13573672Y-12533860D01*
X13573672Y-12533860D02*
X13583196Y-12514812D01*
X13583196Y-12514812D02*
X13583196Y-12505288D01*
X13583196Y-12505288D02*
X13573672Y-12486241D01*
X13573672Y-12486241D02*
X13554625Y-12476717D01*
X13554625Y-12476717D02*
X13526053Y-12476717D01*
X13526053Y-12476717D02*
X13507006Y-12467193D01*
X13507006Y-12467193D02*
X13497482Y-12448146D01*
X13497482Y-12448146D02*
X13497482Y-12438622D01*
X13497482Y-12438622D02*
X13507006Y-12419574D01*
X13507006Y-12419574D02*
X13526053Y-12410050D01*
X13526053Y-12410050D02*
X13554625Y-12410050D01*
X13554625Y-12410050D02*
X13573672Y-12419574D01*
X13649863Y-12619574D02*
X13659387Y-12610050D01*
X13659387Y-12610050D02*
X13678434Y-12581479D01*
X13678434Y-12581479D02*
X13687958Y-12562431D01*
X13687958Y-12562431D02*
X13697482Y-12533860D01*
X13697482Y-12533860D02*
X13707006Y-12486241D01*
X13707006Y-12486241D02*
X13707006Y-12448146D01*
X13707006Y-12448146D02*
X13697482Y-12400527D01*
X13697482Y-12400527D02*
X13687958Y-12371955D01*
X13687958Y-12371955D02*
X13678434Y-12352908D01*
X13678434Y-12352908D02*
X13659387Y-12324336D01*
X13659387Y-12324336D02*
X13649863Y-12314812D01*
D12*
X8849800Y-12690900D02*
X8849800Y-12740900D01*
X8824800Y-12715900D02*
X8874800Y-12715900D01*
D11*
X9173672Y-12607384D02*
X9192720Y-12607384D01*
X9192720Y-12607384D02*
X9211767Y-12616908D01*
X9211767Y-12616908D02*
X9221291Y-12626431D01*
X9221291Y-12626431D02*
X9230815Y-12645479D01*
X9230815Y-12645479D02*
X9240339Y-12683574D01*
X9240339Y-12683574D02*
X9240339Y-12731193D01*
X9240339Y-12731193D02*
X9230815Y-12769288D01*
X9230815Y-12769288D02*
X9221291Y-12788336D01*
X9221291Y-12788336D02*
X9211767Y-12797860D01*
X9211767Y-12797860D02*
X9192720Y-12807384D01*
X9192720Y-12807384D02*
X9173672Y-12807384D01*
X9173672Y-12807384D02*
X9154624Y-12797860D01*
X9154624Y-12797860D02*
X9145101Y-12788336D01*
X9145101Y-12788336D02*
X9135577Y-12769288D01*
X9135577Y-12769288D02*
X9126053Y-12731193D01*
X9126053Y-12731193D02*
X9126053Y-12683574D01*
X9126053Y-12683574D02*
X9135577Y-12645479D01*
X9135577Y-12645479D02*
X9145101Y-12626431D01*
X9145101Y-12626431D02*
X9154624Y-12616908D01*
X9154624Y-12616908D02*
X9173672Y-12607384D01*
X9326053Y-12788336D02*
X9335577Y-12797860D01*
X9335577Y-12797860D02*
X9326053Y-12807384D01*
X9326053Y-12807384D02*
X9316529Y-12797860D01*
X9316529Y-12797860D02*
X9326053Y-12788336D01*
X9326053Y-12788336D02*
X9326053Y-12807384D01*
X9516529Y-12607384D02*
X9421291Y-12607384D01*
X9421291Y-12607384D02*
X9411767Y-12702622D01*
X9411767Y-12702622D02*
X9421291Y-12693098D01*
X9421291Y-12693098D02*
X9440339Y-12683574D01*
X9440339Y-12683574D02*
X9487958Y-12683574D01*
X9487958Y-12683574D02*
X9507005Y-12693098D01*
X9507005Y-12693098D02*
X9516529Y-12702622D01*
X9516529Y-12702622D02*
X9526053Y-12721669D01*
X9526053Y-12721669D02*
X9526053Y-12769288D01*
X9526053Y-12769288D02*
X9516529Y-12788336D01*
X9516529Y-12788336D02*
X9507005Y-12797860D01*
X9507005Y-12797860D02*
X9487958Y-12807384D01*
X9487958Y-12807384D02*
X9440339Y-12807384D01*
X9440339Y-12807384D02*
X9421291Y-12797860D01*
X9421291Y-12797860D02*
X9411767Y-12788336D01*
X9649863Y-12607384D02*
X9668910Y-12607384D01*
X9668910Y-12607384D02*
X9687958Y-12616908D01*
X9687958Y-12616908D02*
X9697482Y-12626431D01*
X9697482Y-12626431D02*
X9707005Y-12645479D01*
X9707005Y-12645479D02*
X9716529Y-12683574D01*
X9716529Y-12683574D02*
X9716529Y-12731193D01*
X9716529Y-12731193D02*
X9707005Y-12769288D01*
X9707005Y-12769288D02*
X9697482Y-12788336D01*
X9697482Y-12788336D02*
X9687958Y-12797860D01*
X9687958Y-12797860D02*
X9668910Y-12807384D01*
X9668910Y-12807384D02*
X9649863Y-12807384D01*
X9649863Y-12807384D02*
X9630815Y-12797860D01*
X9630815Y-12797860D02*
X9621291Y-12788336D01*
X9621291Y-12788336D02*
X9611767Y-12769288D01*
X9611767Y-12769288D02*
X9602244Y-12731193D01*
X9602244Y-12731193D02*
X9602244Y-12683574D01*
X9602244Y-12683574D02*
X9611767Y-12645479D01*
X9611767Y-12645479D02*
X9621291Y-12626431D01*
X9621291Y-12626431D02*
X9630815Y-12616908D01*
X9630815Y-12616908D02*
X9649863Y-12607384D01*
X9840339Y-12607384D02*
X9859386Y-12607384D01*
X9859386Y-12607384D02*
X9878434Y-12616908D01*
X9878434Y-12616908D02*
X9887958Y-12626431D01*
X9887958Y-12626431D02*
X9897482Y-12645479D01*
X9897482Y-12645479D02*
X9907005Y-12683574D01*
X9907005Y-12683574D02*
X9907005Y-12731193D01*
X9907005Y-12731193D02*
X9897482Y-12769288D01*
X9897482Y-12769288D02*
X9887958Y-12788336D01*
X9887958Y-12788336D02*
X9878434Y-12797860D01*
X9878434Y-12797860D02*
X9859386Y-12807384D01*
X9859386Y-12807384D02*
X9840339Y-12807384D01*
X9840339Y-12807384D02*
X9821291Y-12797860D01*
X9821291Y-12797860D02*
X9811767Y-12788336D01*
X9811767Y-12788336D02*
X9802244Y-12769288D01*
X9802244Y-12769288D02*
X9792720Y-12731193D01*
X9792720Y-12731193D02*
X9792720Y-12683574D01*
X9792720Y-12683574D02*
X9802244Y-12645479D01*
X9802244Y-12645479D02*
X9811767Y-12626431D01*
X9811767Y-12626431D02*
X9821291Y-12616908D01*
X9821291Y-12616908D02*
X9840339Y-12607384D01*
X9992720Y-12807384D02*
X9992720Y-12674050D01*
X9992720Y-12693098D02*
X10002244Y-12683574D01*
X10002244Y-12683574D02*
X10021291Y-12674050D01*
X10021291Y-12674050D02*
X10049863Y-12674050D01*
X10049863Y-12674050D02*
X10068910Y-12683574D01*
X10068910Y-12683574D02*
X10078434Y-12702622D01*
X10078434Y-12702622D02*
X10078434Y-12807384D01*
X10078434Y-12702622D02*
X10087958Y-12683574D01*
X10087958Y-12683574D02*
X10107005Y-12674050D01*
X10107005Y-12674050D02*
X10135577Y-12674050D01*
X10135577Y-12674050D02*
X10154625Y-12683574D01*
X10154625Y-12683574D02*
X10164148Y-12702622D01*
X10164148Y-12702622D02*
X10164148Y-12807384D01*
X10259386Y-12807384D02*
X10259386Y-12674050D01*
X10259386Y-12693098D02*
X10268910Y-12683574D01*
X10268910Y-12683574D02*
X10287958Y-12674050D01*
X10287958Y-12674050D02*
X10316529Y-12674050D01*
X10316529Y-12674050D02*
X10335577Y-12683574D01*
X10335577Y-12683574D02*
X10345101Y-12702622D01*
X10345101Y-12702622D02*
X10345101Y-12807384D01*
X10345101Y-12702622D02*
X10354625Y-12683574D01*
X10354625Y-12683574D02*
X10373672Y-12674050D01*
X10373672Y-12674050D02*
X10402244Y-12674050D01*
X10402244Y-12674050D02*
X10421291Y-12683574D01*
X10421291Y-12683574D02*
X10430815Y-12702622D01*
X10430815Y-12702622D02*
X10430815Y-12807384D01*
X10821291Y-12597860D02*
X10649863Y-12855003D01*
X11078434Y-12607384D02*
X11097482Y-12607384D01*
X11097482Y-12607384D02*
X11116529Y-12616908D01*
X11116529Y-12616908D02*
X11126053Y-12626431D01*
X11126053Y-12626431D02*
X11135577Y-12645479D01*
X11135577Y-12645479D02*
X11145101Y-12683574D01*
X11145101Y-12683574D02*
X11145101Y-12731193D01*
X11145101Y-12731193D02*
X11135577Y-12769288D01*
X11135577Y-12769288D02*
X11126053Y-12788336D01*
X11126053Y-12788336D02*
X11116529Y-12797860D01*
X11116529Y-12797860D02*
X11097482Y-12807384D01*
X11097482Y-12807384D02*
X11078434Y-12807384D01*
X11078434Y-12807384D02*
X11059387Y-12797860D01*
X11059387Y-12797860D02*
X11049863Y-12788336D01*
X11049863Y-12788336D02*
X11040339Y-12769288D01*
X11040339Y-12769288D02*
X11030815Y-12731193D01*
X11030815Y-12731193D02*
X11030815Y-12683574D01*
X11030815Y-12683574D02*
X11040339Y-12645479D01*
X11040339Y-12645479D02*
X11049863Y-12626431D01*
X11049863Y-12626431D02*
X11059387Y-12616908D01*
X11059387Y-12616908D02*
X11078434Y-12607384D01*
X11230815Y-12788336D02*
X11240339Y-12797860D01*
X11240339Y-12797860D02*
X11230815Y-12807384D01*
X11230815Y-12807384D02*
X11221291Y-12797860D01*
X11221291Y-12797860D02*
X11230815Y-12788336D01*
X11230815Y-12788336D02*
X11230815Y-12807384D01*
X11364148Y-12607384D02*
X11383196Y-12607384D01*
X11383196Y-12607384D02*
X11402244Y-12616908D01*
X11402244Y-12616908D02*
X11411767Y-12626431D01*
X11411767Y-12626431D02*
X11421291Y-12645479D01*
X11421291Y-12645479D02*
X11430815Y-12683574D01*
X11430815Y-12683574D02*
X11430815Y-12731193D01*
X11430815Y-12731193D02*
X11421291Y-12769288D01*
X11421291Y-12769288D02*
X11411767Y-12788336D01*
X11411767Y-12788336D02*
X11402244Y-12797860D01*
X11402244Y-12797860D02*
X11383196Y-12807384D01*
X11383196Y-12807384D02*
X11364148Y-12807384D01*
X11364148Y-12807384D02*
X11345101Y-12797860D01*
X11345101Y-12797860D02*
X11335577Y-12788336D01*
X11335577Y-12788336D02*
X11326053Y-12769288D01*
X11326053Y-12769288D02*
X11316529Y-12731193D01*
X11316529Y-12731193D02*
X11316529Y-12683574D01*
X11316529Y-12683574D02*
X11326053Y-12645479D01*
X11326053Y-12645479D02*
X11335577Y-12626431D01*
X11335577Y-12626431D02*
X11345101Y-12616908D01*
X11345101Y-12616908D02*
X11364148Y-12607384D01*
X11621291Y-12807384D02*
X11507006Y-12807384D01*
X11564148Y-12807384D02*
X11564148Y-12607384D01*
X11564148Y-12607384D02*
X11545101Y-12635955D01*
X11545101Y-12635955D02*
X11526053Y-12655003D01*
X11526053Y-12655003D02*
X11507006Y-12664527D01*
X11716529Y-12807384D02*
X11754625Y-12807384D01*
X11754625Y-12807384D02*
X11773672Y-12797860D01*
X11773672Y-12797860D02*
X11783196Y-12788336D01*
X11783196Y-12788336D02*
X11802244Y-12759765D01*
X11802244Y-12759765D02*
X11811767Y-12721669D01*
X11811767Y-12721669D02*
X11811767Y-12645479D01*
X11811767Y-12645479D02*
X11802244Y-12626431D01*
X11802244Y-12626431D02*
X11792720Y-12616908D01*
X11792720Y-12616908D02*
X11773672Y-12607384D01*
X11773672Y-12607384D02*
X11735577Y-12607384D01*
X11735577Y-12607384D02*
X11716529Y-12616908D01*
X11716529Y-12616908D02*
X11707006Y-12626431D01*
X11707006Y-12626431D02*
X11697482Y-12645479D01*
X11697482Y-12645479D02*
X11697482Y-12693098D01*
X11697482Y-12693098D02*
X11707006Y-12712146D01*
X11707006Y-12712146D02*
X11716529Y-12721669D01*
X11716529Y-12721669D02*
X11735577Y-12731193D01*
X11735577Y-12731193D02*
X11773672Y-12731193D01*
X11773672Y-12731193D02*
X11792720Y-12721669D01*
X11792720Y-12721669D02*
X11802244Y-12712146D01*
X11802244Y-12712146D02*
X11811767Y-12693098D01*
X11878434Y-12607384D02*
X12011767Y-12607384D01*
X12011767Y-12607384D02*
X11926053Y-12807384D01*
X12078434Y-12607384D02*
X12078434Y-12645479D01*
X12154625Y-12607384D02*
X12154625Y-12645479D01*
X12449863Y-12883574D02*
X12440339Y-12874050D01*
X12440339Y-12874050D02*
X12421291Y-12845479D01*
X12421291Y-12845479D02*
X12411768Y-12826431D01*
X12411768Y-12826431D02*
X12402244Y-12797860D01*
X12402244Y-12797860D02*
X12392720Y-12750241D01*
X12392720Y-12750241D02*
X12392720Y-12712146D01*
X12392720Y-12712146D02*
X12402244Y-12664527D01*
X12402244Y-12664527D02*
X12411768Y-12635955D01*
X12411768Y-12635955D02*
X12421291Y-12616908D01*
X12421291Y-12616908D02*
X12440339Y-12588336D01*
X12440339Y-12588336D02*
X12449863Y-12578812D01*
X12630815Y-12807384D02*
X12516529Y-12807384D01*
X12573672Y-12807384D02*
X12573672Y-12607384D01*
X12573672Y-12607384D02*
X12554625Y-12635955D01*
X12554625Y-12635955D02*
X12535577Y-12655003D01*
X12535577Y-12655003D02*
X12516529Y-12664527D01*
X12802244Y-12607384D02*
X12764148Y-12607384D01*
X12764148Y-12607384D02*
X12745101Y-12616908D01*
X12745101Y-12616908D02*
X12735577Y-12626431D01*
X12735577Y-12626431D02*
X12716529Y-12655003D01*
X12716529Y-12655003D02*
X12707006Y-12693098D01*
X12707006Y-12693098D02*
X12707006Y-12769288D01*
X12707006Y-12769288D02*
X12716529Y-12788336D01*
X12716529Y-12788336D02*
X12726053Y-12797860D01*
X12726053Y-12797860D02*
X12745101Y-12807384D01*
X12745101Y-12807384D02*
X12783196Y-12807384D01*
X12783196Y-12807384D02*
X12802244Y-12797860D01*
X12802244Y-12797860D02*
X12811768Y-12788336D01*
X12811768Y-12788336D02*
X12821291Y-12769288D01*
X12821291Y-12769288D02*
X12821291Y-12721669D01*
X12821291Y-12721669D02*
X12811768Y-12702622D01*
X12811768Y-12702622D02*
X12802244Y-12693098D01*
X12802244Y-12693098D02*
X12783196Y-12683574D01*
X12783196Y-12683574D02*
X12745101Y-12683574D01*
X12745101Y-12683574D02*
X12726053Y-12693098D01*
X12726053Y-12693098D02*
X12716529Y-12702622D01*
X12716529Y-12702622D02*
X12707006Y-12721669D01*
X13059387Y-12807384D02*
X13059387Y-12607384D01*
X13145101Y-12807384D02*
X13145101Y-12702622D01*
X13145101Y-12702622D02*
X13135577Y-12683574D01*
X13135577Y-12683574D02*
X13116530Y-12674050D01*
X13116530Y-12674050D02*
X13087958Y-12674050D01*
X13087958Y-12674050D02*
X13068910Y-12683574D01*
X13068910Y-12683574D02*
X13059387Y-12693098D01*
X13268910Y-12807384D02*
X13249863Y-12797860D01*
X13249863Y-12797860D02*
X13240339Y-12788336D01*
X13240339Y-12788336D02*
X13230815Y-12769288D01*
X13230815Y-12769288D02*
X13230815Y-12712146D01*
X13230815Y-12712146D02*
X13240339Y-12693098D01*
X13240339Y-12693098D02*
X13249863Y-12683574D01*
X13249863Y-12683574D02*
X13268910Y-12674050D01*
X13268910Y-12674050D02*
X13297482Y-12674050D01*
X13297482Y-12674050D02*
X13316530Y-12683574D01*
X13316530Y-12683574D02*
X13326053Y-12693098D01*
X13326053Y-12693098D02*
X13335577Y-12712146D01*
X13335577Y-12712146D02*
X13335577Y-12769288D01*
X13335577Y-12769288D02*
X13326053Y-12788336D01*
X13326053Y-12788336D02*
X13316530Y-12797860D01*
X13316530Y-12797860D02*
X13297482Y-12807384D01*
X13297482Y-12807384D02*
X13268910Y-12807384D01*
X13449863Y-12807384D02*
X13430815Y-12797860D01*
X13430815Y-12797860D02*
X13421291Y-12778812D01*
X13421291Y-12778812D02*
X13421291Y-12607384D01*
X13602244Y-12797860D02*
X13583196Y-12807384D01*
X13583196Y-12807384D02*
X13545101Y-12807384D01*
X13545101Y-12807384D02*
X13526053Y-12797860D01*
X13526053Y-12797860D02*
X13516530Y-12778812D01*
X13516530Y-12778812D02*
X13516530Y-12702622D01*
X13516530Y-12702622D02*
X13526053Y-12683574D01*
X13526053Y-12683574D02*
X13545101Y-12674050D01*
X13545101Y-12674050D02*
X13583196Y-12674050D01*
X13583196Y-12674050D02*
X13602244Y-12683574D01*
X13602244Y-12683574D02*
X13611768Y-12702622D01*
X13611768Y-12702622D02*
X13611768Y-12721669D01*
X13611768Y-12721669D02*
X13516530Y-12740717D01*
X13687958Y-12797860D02*
X13707006Y-12807384D01*
X13707006Y-12807384D02*
X13745101Y-12807384D01*
X13745101Y-12807384D02*
X13764149Y-12797860D01*
X13764149Y-12797860D02*
X13773672Y-12778812D01*
X13773672Y-12778812D02*
X13773672Y-12769288D01*
X13773672Y-12769288D02*
X13764149Y-12750241D01*
X13764149Y-12750241D02*
X13745101Y-12740717D01*
X13745101Y-12740717D02*
X13716530Y-12740717D01*
X13716530Y-12740717D02*
X13697482Y-12731193D01*
X13697482Y-12731193D02*
X13687958Y-12712146D01*
X13687958Y-12712146D02*
X13687958Y-12702622D01*
X13687958Y-12702622D02*
X13697482Y-12683574D01*
X13697482Y-12683574D02*
X13716530Y-12674050D01*
X13716530Y-12674050D02*
X13745101Y-12674050D01*
X13745101Y-12674050D02*
X13764149Y-12683574D01*
X13840339Y-12883574D02*
X13849863Y-12874050D01*
X13849863Y-12874050D02*
X13868911Y-12845479D01*
X13868911Y-12845479D02*
X13878434Y-12826431D01*
X13878434Y-12826431D02*
X13887958Y-12797860D01*
X13887958Y-12797860D02*
X13897482Y-12750241D01*
X13897482Y-12750241D02*
X13897482Y-12712146D01*
X13897482Y-12712146D02*
X13887958Y-12664527D01*
X13887958Y-12664527D02*
X13878434Y-12635955D01*
X13878434Y-12635955D02*
X13868911Y-12616908D01*
X13868911Y-12616908D02*
X13849863Y-12588336D01*
X13849863Y-12588336D02*
X13840339Y-12578812D01*
D12*
X8863085Y-13008184D02*
X8863085Y-12951615D01*
X8806516Y-12951615D01*
X8806516Y-13008184D01*
X8863085Y-13008184D01*
D11*
X9173672Y-12871384D02*
X9192720Y-12871384D01*
X9192720Y-12871384D02*
X9211767Y-12880908D01*
X9211767Y-12880908D02*
X9221291Y-12890431D01*
X9221291Y-12890431D02*
X9230815Y-12909479D01*
X9230815Y-12909479D02*
X9240339Y-12947574D01*
X9240339Y-12947574D02*
X9240339Y-12995193D01*
X9240339Y-12995193D02*
X9230815Y-13033288D01*
X9230815Y-13033288D02*
X9221291Y-13052336D01*
X9221291Y-13052336D02*
X9211767Y-13061860D01*
X9211767Y-13061860D02*
X9192720Y-13071384D01*
X9192720Y-13071384D02*
X9173672Y-13071384D01*
X9173672Y-13071384D02*
X9154624Y-13061860D01*
X9154624Y-13061860D02*
X9145101Y-13052336D01*
X9145101Y-13052336D02*
X9135577Y-13033288D01*
X9135577Y-13033288D02*
X9126053Y-12995193D01*
X9126053Y-12995193D02*
X9126053Y-12947574D01*
X9126053Y-12947574D02*
X9135577Y-12909479D01*
X9135577Y-12909479D02*
X9145101Y-12890431D01*
X9145101Y-12890431D02*
X9154624Y-12880908D01*
X9154624Y-12880908D02*
X9173672Y-12871384D01*
X9326053Y-13052336D02*
X9335577Y-13061860D01*
X9335577Y-13061860D02*
X9326053Y-13071384D01*
X9326053Y-13071384D02*
X9316529Y-13061860D01*
X9316529Y-13061860D02*
X9326053Y-13052336D01*
X9326053Y-13052336D02*
X9326053Y-13071384D01*
X9449863Y-12957098D02*
X9430815Y-12947574D01*
X9430815Y-12947574D02*
X9421291Y-12938050D01*
X9421291Y-12938050D02*
X9411767Y-12919003D01*
X9411767Y-12919003D02*
X9411767Y-12909479D01*
X9411767Y-12909479D02*
X9421291Y-12890431D01*
X9421291Y-12890431D02*
X9430815Y-12880908D01*
X9430815Y-12880908D02*
X9449863Y-12871384D01*
X9449863Y-12871384D02*
X9487958Y-12871384D01*
X9487958Y-12871384D02*
X9507005Y-12880908D01*
X9507005Y-12880908D02*
X9516529Y-12890431D01*
X9516529Y-12890431D02*
X9526053Y-12909479D01*
X9526053Y-12909479D02*
X9526053Y-12919003D01*
X9526053Y-12919003D02*
X9516529Y-12938050D01*
X9516529Y-12938050D02*
X9507005Y-12947574D01*
X9507005Y-12947574D02*
X9487958Y-12957098D01*
X9487958Y-12957098D02*
X9449863Y-12957098D01*
X9449863Y-12957098D02*
X9430815Y-12966622D01*
X9430815Y-12966622D02*
X9421291Y-12976146D01*
X9421291Y-12976146D02*
X9411767Y-12995193D01*
X9411767Y-12995193D02*
X9411767Y-13033288D01*
X9411767Y-13033288D02*
X9421291Y-13052336D01*
X9421291Y-13052336D02*
X9430815Y-13061860D01*
X9430815Y-13061860D02*
X9449863Y-13071384D01*
X9449863Y-13071384D02*
X9487958Y-13071384D01*
X9487958Y-13071384D02*
X9507005Y-13061860D01*
X9507005Y-13061860D02*
X9516529Y-13052336D01*
X9516529Y-13052336D02*
X9526053Y-13033288D01*
X9526053Y-13033288D02*
X9526053Y-12995193D01*
X9526053Y-12995193D02*
X9516529Y-12976146D01*
X9516529Y-12976146D02*
X9507005Y-12966622D01*
X9507005Y-12966622D02*
X9487958Y-12957098D01*
X9649863Y-12871384D02*
X9668910Y-12871384D01*
X9668910Y-12871384D02*
X9687958Y-12880908D01*
X9687958Y-12880908D02*
X9697482Y-12890431D01*
X9697482Y-12890431D02*
X9707005Y-12909479D01*
X9707005Y-12909479D02*
X9716529Y-12947574D01*
X9716529Y-12947574D02*
X9716529Y-12995193D01*
X9716529Y-12995193D02*
X9707005Y-13033288D01*
X9707005Y-13033288D02*
X9697482Y-13052336D01*
X9697482Y-13052336D02*
X9687958Y-13061860D01*
X9687958Y-13061860D02*
X9668910Y-13071384D01*
X9668910Y-13071384D02*
X9649863Y-13071384D01*
X9649863Y-13071384D02*
X9630815Y-13061860D01*
X9630815Y-13061860D02*
X9621291Y-13052336D01*
X9621291Y-13052336D02*
X9611767Y-13033288D01*
X9611767Y-13033288D02*
X9602244Y-12995193D01*
X9602244Y-12995193D02*
X9602244Y-12947574D01*
X9602244Y-12947574D02*
X9611767Y-12909479D01*
X9611767Y-12909479D02*
X9621291Y-12890431D01*
X9621291Y-12890431D02*
X9630815Y-12880908D01*
X9630815Y-12880908D02*
X9649863Y-12871384D01*
X9840339Y-12871384D02*
X9859386Y-12871384D01*
X9859386Y-12871384D02*
X9878434Y-12880908D01*
X9878434Y-12880908D02*
X9887958Y-12890431D01*
X9887958Y-12890431D02*
X9897482Y-12909479D01*
X9897482Y-12909479D02*
X9907005Y-12947574D01*
X9907005Y-12947574D02*
X9907005Y-12995193D01*
X9907005Y-12995193D02*
X9897482Y-13033288D01*
X9897482Y-13033288D02*
X9887958Y-13052336D01*
X9887958Y-13052336D02*
X9878434Y-13061860D01*
X9878434Y-13061860D02*
X9859386Y-13071384D01*
X9859386Y-13071384D02*
X9840339Y-13071384D01*
X9840339Y-13071384D02*
X9821291Y-13061860D01*
X9821291Y-13061860D02*
X9811767Y-13052336D01*
X9811767Y-13052336D02*
X9802244Y-13033288D01*
X9802244Y-13033288D02*
X9792720Y-12995193D01*
X9792720Y-12995193D02*
X9792720Y-12947574D01*
X9792720Y-12947574D02*
X9802244Y-12909479D01*
X9802244Y-12909479D02*
X9811767Y-12890431D01*
X9811767Y-12890431D02*
X9821291Y-12880908D01*
X9821291Y-12880908D02*
X9840339Y-12871384D01*
X9992720Y-13071384D02*
X9992720Y-12938050D01*
X9992720Y-12957098D02*
X10002244Y-12947574D01*
X10002244Y-12947574D02*
X10021291Y-12938050D01*
X10021291Y-12938050D02*
X10049863Y-12938050D01*
X10049863Y-12938050D02*
X10068910Y-12947574D01*
X10068910Y-12947574D02*
X10078434Y-12966622D01*
X10078434Y-12966622D02*
X10078434Y-13071384D01*
X10078434Y-12966622D02*
X10087958Y-12947574D01*
X10087958Y-12947574D02*
X10107005Y-12938050D01*
X10107005Y-12938050D02*
X10135577Y-12938050D01*
X10135577Y-12938050D02*
X10154625Y-12947574D01*
X10154625Y-12947574D02*
X10164148Y-12966622D01*
X10164148Y-12966622D02*
X10164148Y-13071384D01*
X10259386Y-13071384D02*
X10259386Y-12938050D01*
X10259386Y-12957098D02*
X10268910Y-12947574D01*
X10268910Y-12947574D02*
X10287958Y-12938050D01*
X10287958Y-12938050D02*
X10316529Y-12938050D01*
X10316529Y-12938050D02*
X10335577Y-12947574D01*
X10335577Y-12947574D02*
X10345101Y-12966622D01*
X10345101Y-12966622D02*
X10345101Y-13071384D01*
X10345101Y-12966622D02*
X10354625Y-12947574D01*
X10354625Y-12947574D02*
X10373672Y-12938050D01*
X10373672Y-12938050D02*
X10402244Y-12938050D01*
X10402244Y-12938050D02*
X10421291Y-12947574D01*
X10421291Y-12947574D02*
X10430815Y-12966622D01*
X10430815Y-12966622D02*
X10430815Y-13071384D01*
X10821291Y-12861860D02*
X10649863Y-13119003D01*
X11078434Y-12871384D02*
X11097482Y-12871384D01*
X11097482Y-12871384D02*
X11116529Y-12880908D01*
X11116529Y-12880908D02*
X11126053Y-12890431D01*
X11126053Y-12890431D02*
X11135577Y-12909479D01*
X11135577Y-12909479D02*
X11145101Y-12947574D01*
X11145101Y-12947574D02*
X11145101Y-12995193D01*
X11145101Y-12995193D02*
X11135577Y-13033288D01*
X11135577Y-13033288D02*
X11126053Y-13052336D01*
X11126053Y-13052336D02*
X11116529Y-13061860D01*
X11116529Y-13061860D02*
X11097482Y-13071384D01*
X11097482Y-13071384D02*
X11078434Y-13071384D01*
X11078434Y-13071384D02*
X11059387Y-13061860D01*
X11059387Y-13061860D02*
X11049863Y-13052336D01*
X11049863Y-13052336D02*
X11040339Y-13033288D01*
X11040339Y-13033288D02*
X11030815Y-12995193D01*
X11030815Y-12995193D02*
X11030815Y-12947574D01*
X11030815Y-12947574D02*
X11040339Y-12909479D01*
X11040339Y-12909479D02*
X11049863Y-12890431D01*
X11049863Y-12890431D02*
X11059387Y-12880908D01*
X11059387Y-12880908D02*
X11078434Y-12871384D01*
X11230815Y-13052336D02*
X11240339Y-13061860D01*
X11240339Y-13061860D02*
X11230815Y-13071384D01*
X11230815Y-13071384D02*
X11221291Y-13061860D01*
X11221291Y-13061860D02*
X11230815Y-13052336D01*
X11230815Y-13052336D02*
X11230815Y-13071384D01*
X11364148Y-12871384D02*
X11383196Y-12871384D01*
X11383196Y-12871384D02*
X11402244Y-12880908D01*
X11402244Y-12880908D02*
X11411767Y-12890431D01*
X11411767Y-12890431D02*
X11421291Y-12909479D01*
X11421291Y-12909479D02*
X11430815Y-12947574D01*
X11430815Y-12947574D02*
X11430815Y-12995193D01*
X11430815Y-12995193D02*
X11421291Y-13033288D01*
X11421291Y-13033288D02*
X11411767Y-13052336D01*
X11411767Y-13052336D02*
X11402244Y-13061860D01*
X11402244Y-13061860D02*
X11383196Y-13071384D01*
X11383196Y-13071384D02*
X11364148Y-13071384D01*
X11364148Y-13071384D02*
X11345101Y-13061860D01*
X11345101Y-13061860D02*
X11335577Y-13052336D01*
X11335577Y-13052336D02*
X11326053Y-13033288D01*
X11326053Y-13033288D02*
X11316529Y-12995193D01*
X11316529Y-12995193D02*
X11316529Y-12947574D01*
X11316529Y-12947574D02*
X11326053Y-12909479D01*
X11326053Y-12909479D02*
X11335577Y-12890431D01*
X11335577Y-12890431D02*
X11345101Y-12880908D01*
X11345101Y-12880908D02*
X11364148Y-12871384D01*
X11497482Y-12871384D02*
X11621291Y-12871384D01*
X11621291Y-12871384D02*
X11554625Y-12947574D01*
X11554625Y-12947574D02*
X11583196Y-12947574D01*
X11583196Y-12947574D02*
X11602244Y-12957098D01*
X11602244Y-12957098D02*
X11611767Y-12966622D01*
X11611767Y-12966622D02*
X11621291Y-12985669D01*
X11621291Y-12985669D02*
X11621291Y-13033288D01*
X11621291Y-13033288D02*
X11611767Y-13052336D01*
X11611767Y-13052336D02*
X11602244Y-13061860D01*
X11602244Y-13061860D02*
X11583196Y-13071384D01*
X11583196Y-13071384D02*
X11526053Y-13071384D01*
X11526053Y-13071384D02*
X11507006Y-13061860D01*
X11507006Y-13061860D02*
X11497482Y-13052336D01*
X11811767Y-13071384D02*
X11697482Y-13071384D01*
X11754625Y-13071384D02*
X11754625Y-12871384D01*
X11754625Y-12871384D02*
X11735577Y-12899955D01*
X11735577Y-12899955D02*
X11716529Y-12919003D01*
X11716529Y-12919003D02*
X11697482Y-12928527D01*
X11992720Y-12871384D02*
X11897482Y-12871384D01*
X11897482Y-12871384D02*
X11887958Y-12966622D01*
X11887958Y-12966622D02*
X11897482Y-12957098D01*
X11897482Y-12957098D02*
X11916529Y-12947574D01*
X11916529Y-12947574D02*
X11964148Y-12947574D01*
X11964148Y-12947574D02*
X11983196Y-12957098D01*
X11983196Y-12957098D02*
X11992720Y-12966622D01*
X11992720Y-12966622D02*
X12002244Y-12985669D01*
X12002244Y-12985669D02*
X12002244Y-13033288D01*
X12002244Y-13033288D02*
X11992720Y-13052336D01*
X11992720Y-13052336D02*
X11983196Y-13061860D01*
X11983196Y-13061860D02*
X11964148Y-13071384D01*
X11964148Y-13071384D02*
X11916529Y-13071384D01*
X11916529Y-13071384D02*
X11897482Y-13061860D01*
X11897482Y-13061860D02*
X11887958Y-13052336D01*
X12078434Y-12871384D02*
X12078434Y-12909479D01*
X12154625Y-12871384D02*
X12154625Y-12909479D01*
X12449863Y-13147574D02*
X12440339Y-13138050D01*
X12440339Y-13138050D02*
X12421291Y-13109479D01*
X12421291Y-13109479D02*
X12411768Y-13090431D01*
X12411768Y-13090431D02*
X12402244Y-13061860D01*
X12402244Y-13061860D02*
X12392720Y-13014241D01*
X12392720Y-13014241D02*
X12392720Y-12976146D01*
X12392720Y-12976146D02*
X12402244Y-12928527D01*
X12402244Y-12928527D02*
X12411768Y-12899955D01*
X12411768Y-12899955D02*
X12421291Y-12880908D01*
X12421291Y-12880908D02*
X12440339Y-12852336D01*
X12440339Y-12852336D02*
X12449863Y-12842812D01*
X12507006Y-12871384D02*
X12630815Y-12871384D01*
X12630815Y-12871384D02*
X12564148Y-12947574D01*
X12564148Y-12947574D02*
X12592720Y-12947574D01*
X12592720Y-12947574D02*
X12611768Y-12957098D01*
X12611768Y-12957098D02*
X12621291Y-12966622D01*
X12621291Y-12966622D02*
X12630815Y-12985669D01*
X12630815Y-12985669D02*
X12630815Y-13033288D01*
X12630815Y-13033288D02*
X12621291Y-13052336D01*
X12621291Y-13052336D02*
X12611768Y-13061860D01*
X12611768Y-13061860D02*
X12592720Y-13071384D01*
X12592720Y-13071384D02*
X12535577Y-13071384D01*
X12535577Y-13071384D02*
X12516529Y-13061860D01*
X12516529Y-13061860D02*
X12507006Y-13052336D01*
X12868910Y-13071384D02*
X12868910Y-12871384D01*
X12954625Y-13071384D02*
X12954625Y-12966622D01*
X12954625Y-12966622D02*
X12945101Y-12947574D01*
X12945101Y-12947574D02*
X12926053Y-12938050D01*
X12926053Y-12938050D02*
X12897482Y-12938050D01*
X12897482Y-12938050D02*
X12878434Y-12947574D01*
X12878434Y-12947574D02*
X12868910Y-12957098D01*
X13078434Y-13071384D02*
X13059387Y-13061860D01*
X13059387Y-13061860D02*
X13049863Y-13052336D01*
X13049863Y-13052336D02*
X13040339Y-13033288D01*
X13040339Y-13033288D02*
X13040339Y-12976146D01*
X13040339Y-12976146D02*
X13049863Y-12957098D01*
X13049863Y-12957098D02*
X13059387Y-12947574D01*
X13059387Y-12947574D02*
X13078434Y-12938050D01*
X13078434Y-12938050D02*
X13107006Y-12938050D01*
X13107006Y-12938050D02*
X13126053Y-12947574D01*
X13126053Y-12947574D02*
X13135577Y-12957098D01*
X13135577Y-12957098D02*
X13145101Y-12976146D01*
X13145101Y-12976146D02*
X13145101Y-13033288D01*
X13145101Y-13033288D02*
X13135577Y-13052336D01*
X13135577Y-13052336D02*
X13126053Y-13061860D01*
X13126053Y-13061860D02*
X13107006Y-13071384D01*
X13107006Y-13071384D02*
X13078434Y-13071384D01*
X13259387Y-13071384D02*
X13240339Y-13061860D01*
X13240339Y-13061860D02*
X13230815Y-13042812D01*
X13230815Y-13042812D02*
X13230815Y-12871384D01*
X13411768Y-13061860D02*
X13392720Y-13071384D01*
X13392720Y-13071384D02*
X13354625Y-13071384D01*
X13354625Y-13071384D02*
X13335577Y-13061860D01*
X13335577Y-13061860D02*
X13326053Y-13042812D01*
X13326053Y-13042812D02*
X13326053Y-12966622D01*
X13326053Y-12966622D02*
X13335577Y-12947574D01*
X13335577Y-12947574D02*
X13354625Y-12938050D01*
X13354625Y-12938050D02*
X13392720Y-12938050D01*
X13392720Y-12938050D02*
X13411768Y-12947574D01*
X13411768Y-12947574D02*
X13421291Y-12966622D01*
X13421291Y-12966622D02*
X13421291Y-12985669D01*
X13421291Y-12985669D02*
X13326053Y-13004717D01*
X13497482Y-13061860D02*
X13516530Y-13071384D01*
X13516530Y-13071384D02*
X13554625Y-13071384D01*
X13554625Y-13071384D02*
X13573672Y-13061860D01*
X13573672Y-13061860D02*
X13583196Y-13042812D01*
X13583196Y-13042812D02*
X13583196Y-13033288D01*
X13583196Y-13033288D02*
X13573672Y-13014241D01*
X13573672Y-13014241D02*
X13554625Y-13004717D01*
X13554625Y-13004717D02*
X13526053Y-13004717D01*
X13526053Y-13004717D02*
X13507006Y-12995193D01*
X13507006Y-12995193D02*
X13497482Y-12976146D01*
X13497482Y-12976146D02*
X13497482Y-12966622D01*
X13497482Y-12966622D02*
X13507006Y-12947574D01*
X13507006Y-12947574D02*
X13526053Y-12938050D01*
X13526053Y-12938050D02*
X13554625Y-12938050D01*
X13554625Y-12938050D02*
X13573672Y-12947574D01*
X13649863Y-13147574D02*
X13659387Y-13138050D01*
X13659387Y-13138050D02*
X13678434Y-13109479D01*
X13678434Y-13109479D02*
X13687958Y-13090431D01*
X13687958Y-13090431D02*
X13697482Y-13061860D01*
X13697482Y-13061860D02*
X13707006Y-13014241D01*
X13707006Y-13014241D02*
X13707006Y-12976146D01*
X13707006Y-12976146D02*
X13697482Y-12928527D01*
X13697482Y-12928527D02*
X13687958Y-12899955D01*
X13687958Y-12899955D02*
X13678434Y-12880908D01*
X13678434Y-12880908D02*
X13659387Y-12852336D01*
X13659387Y-12852336D02*
X13649863Y-12842812D01*
D13*
X8824300Y-13294400D02*
X8874800Y-13243900D01*
X8824300Y-13193400D01*
X8773800Y-13243900D01*
X8824300Y-13294400D01*
D11*
X9240339Y-13335384D02*
X9126053Y-13335384D01*
X9183196Y-13335384D02*
X9183196Y-13135384D01*
X9183196Y-13135384D02*
X9164148Y-13163955D01*
X9164148Y-13163955D02*
X9145101Y-13183003D01*
X9145101Y-13183003D02*
X9126053Y-13192527D01*
X9326053Y-13316336D02*
X9335577Y-13325860D01*
X9335577Y-13325860D02*
X9326053Y-13335384D01*
X9326053Y-13335384D02*
X9316529Y-13325860D01*
X9316529Y-13325860D02*
X9326053Y-13316336D01*
X9326053Y-13316336D02*
X9326053Y-13335384D01*
X9459386Y-13135384D02*
X9478434Y-13135384D01*
X9478434Y-13135384D02*
X9497482Y-13144908D01*
X9497482Y-13144908D02*
X9507005Y-13154431D01*
X9507005Y-13154431D02*
X9516529Y-13173479D01*
X9516529Y-13173479D02*
X9526053Y-13211574D01*
X9526053Y-13211574D02*
X9526053Y-13259193D01*
X9526053Y-13259193D02*
X9516529Y-13297288D01*
X9516529Y-13297288D02*
X9507005Y-13316336D01*
X9507005Y-13316336D02*
X9497482Y-13325860D01*
X9497482Y-13325860D02*
X9478434Y-13335384D01*
X9478434Y-13335384D02*
X9459386Y-13335384D01*
X9459386Y-13335384D02*
X9440339Y-13325860D01*
X9440339Y-13325860D02*
X9430815Y-13316336D01*
X9430815Y-13316336D02*
X9421291Y-13297288D01*
X9421291Y-13297288D02*
X9411767Y-13259193D01*
X9411767Y-13259193D02*
X9411767Y-13211574D01*
X9411767Y-13211574D02*
X9421291Y-13173479D01*
X9421291Y-13173479D02*
X9430815Y-13154431D01*
X9430815Y-13154431D02*
X9440339Y-13144908D01*
X9440339Y-13144908D02*
X9459386Y-13135384D01*
X9716529Y-13335384D02*
X9602244Y-13335384D01*
X9659386Y-13335384D02*
X9659386Y-13135384D01*
X9659386Y-13135384D02*
X9640339Y-13163955D01*
X9640339Y-13163955D02*
X9621291Y-13183003D01*
X9621291Y-13183003D02*
X9602244Y-13192527D01*
X9840339Y-13135384D02*
X9859386Y-13135384D01*
X9859386Y-13135384D02*
X9878434Y-13144908D01*
X9878434Y-13144908D02*
X9887958Y-13154431D01*
X9887958Y-13154431D02*
X9897482Y-13173479D01*
X9897482Y-13173479D02*
X9907005Y-13211574D01*
X9907005Y-13211574D02*
X9907005Y-13259193D01*
X9907005Y-13259193D02*
X9897482Y-13297288D01*
X9897482Y-13297288D02*
X9887958Y-13316336D01*
X9887958Y-13316336D02*
X9878434Y-13325860D01*
X9878434Y-13325860D02*
X9859386Y-13335384D01*
X9859386Y-13335384D02*
X9840339Y-13335384D01*
X9840339Y-13335384D02*
X9821291Y-13325860D01*
X9821291Y-13325860D02*
X9811767Y-13316336D01*
X9811767Y-13316336D02*
X9802244Y-13297288D01*
X9802244Y-13297288D02*
X9792720Y-13259193D01*
X9792720Y-13259193D02*
X9792720Y-13211574D01*
X9792720Y-13211574D02*
X9802244Y-13173479D01*
X9802244Y-13173479D02*
X9811767Y-13154431D01*
X9811767Y-13154431D02*
X9821291Y-13144908D01*
X9821291Y-13144908D02*
X9840339Y-13135384D01*
X9992720Y-13335384D02*
X9992720Y-13202050D01*
X9992720Y-13221098D02*
X10002244Y-13211574D01*
X10002244Y-13211574D02*
X10021291Y-13202050D01*
X10021291Y-13202050D02*
X10049863Y-13202050D01*
X10049863Y-13202050D02*
X10068910Y-13211574D01*
X10068910Y-13211574D02*
X10078434Y-13230622D01*
X10078434Y-13230622D02*
X10078434Y-13335384D01*
X10078434Y-13230622D02*
X10087958Y-13211574D01*
X10087958Y-13211574D02*
X10107005Y-13202050D01*
X10107005Y-13202050D02*
X10135577Y-13202050D01*
X10135577Y-13202050D02*
X10154625Y-13211574D01*
X10154625Y-13211574D02*
X10164148Y-13230622D01*
X10164148Y-13230622D02*
X10164148Y-13335384D01*
X10259386Y-13335384D02*
X10259386Y-13202050D01*
X10259386Y-13221098D02*
X10268910Y-13211574D01*
X10268910Y-13211574D02*
X10287958Y-13202050D01*
X10287958Y-13202050D02*
X10316529Y-13202050D01*
X10316529Y-13202050D02*
X10335577Y-13211574D01*
X10335577Y-13211574D02*
X10345101Y-13230622D01*
X10345101Y-13230622D02*
X10345101Y-13335384D01*
X10345101Y-13230622D02*
X10354625Y-13211574D01*
X10354625Y-13211574D02*
X10373672Y-13202050D01*
X10373672Y-13202050D02*
X10402244Y-13202050D01*
X10402244Y-13202050D02*
X10421291Y-13211574D01*
X10421291Y-13211574D02*
X10430815Y-13230622D01*
X10430815Y-13230622D02*
X10430815Y-13335384D01*
X10821291Y-13125860D02*
X10649863Y-13383003D01*
X11078434Y-13135384D02*
X11097482Y-13135384D01*
X11097482Y-13135384D02*
X11116529Y-13144908D01*
X11116529Y-13144908D02*
X11126053Y-13154431D01*
X11126053Y-13154431D02*
X11135577Y-13173479D01*
X11135577Y-13173479D02*
X11145101Y-13211574D01*
X11145101Y-13211574D02*
X11145101Y-13259193D01*
X11145101Y-13259193D02*
X11135577Y-13297288D01*
X11135577Y-13297288D02*
X11126053Y-13316336D01*
X11126053Y-13316336D02*
X11116529Y-13325860D01*
X11116529Y-13325860D02*
X11097482Y-13335384D01*
X11097482Y-13335384D02*
X11078434Y-13335384D01*
X11078434Y-13335384D02*
X11059387Y-13325860D01*
X11059387Y-13325860D02*
X11049863Y-13316336D01*
X11049863Y-13316336D02*
X11040339Y-13297288D01*
X11040339Y-13297288D02*
X11030815Y-13259193D01*
X11030815Y-13259193D02*
X11030815Y-13211574D01*
X11030815Y-13211574D02*
X11040339Y-13173479D01*
X11040339Y-13173479D02*
X11049863Y-13154431D01*
X11049863Y-13154431D02*
X11059387Y-13144908D01*
X11059387Y-13144908D02*
X11078434Y-13135384D01*
X11230815Y-13316336D02*
X11240339Y-13325860D01*
X11240339Y-13325860D02*
X11230815Y-13335384D01*
X11230815Y-13335384D02*
X11221291Y-13325860D01*
X11221291Y-13325860D02*
X11230815Y-13316336D01*
X11230815Y-13316336D02*
X11230815Y-13335384D01*
X11364148Y-13135384D02*
X11383196Y-13135384D01*
X11383196Y-13135384D02*
X11402244Y-13144908D01*
X11402244Y-13144908D02*
X11411767Y-13154431D01*
X11411767Y-13154431D02*
X11421291Y-13173479D01*
X11421291Y-13173479D02*
X11430815Y-13211574D01*
X11430815Y-13211574D02*
X11430815Y-13259193D01*
X11430815Y-13259193D02*
X11421291Y-13297288D01*
X11421291Y-13297288D02*
X11411767Y-13316336D01*
X11411767Y-13316336D02*
X11402244Y-13325860D01*
X11402244Y-13325860D02*
X11383196Y-13335384D01*
X11383196Y-13335384D02*
X11364148Y-13335384D01*
X11364148Y-13335384D02*
X11345101Y-13325860D01*
X11345101Y-13325860D02*
X11335577Y-13316336D01*
X11335577Y-13316336D02*
X11326053Y-13297288D01*
X11326053Y-13297288D02*
X11316529Y-13259193D01*
X11316529Y-13259193D02*
X11316529Y-13211574D01*
X11316529Y-13211574D02*
X11326053Y-13173479D01*
X11326053Y-13173479D02*
X11335577Y-13154431D01*
X11335577Y-13154431D02*
X11345101Y-13144908D01*
X11345101Y-13144908D02*
X11364148Y-13135384D01*
X11497482Y-13135384D02*
X11621291Y-13135384D01*
X11621291Y-13135384D02*
X11554625Y-13211574D01*
X11554625Y-13211574D02*
X11583196Y-13211574D01*
X11583196Y-13211574D02*
X11602244Y-13221098D01*
X11602244Y-13221098D02*
X11611767Y-13230622D01*
X11611767Y-13230622D02*
X11621291Y-13249669D01*
X11621291Y-13249669D02*
X11621291Y-13297288D01*
X11621291Y-13297288D02*
X11611767Y-13316336D01*
X11611767Y-13316336D02*
X11602244Y-13325860D01*
X11602244Y-13325860D02*
X11583196Y-13335384D01*
X11583196Y-13335384D02*
X11526053Y-13335384D01*
X11526053Y-13335384D02*
X11507006Y-13325860D01*
X11507006Y-13325860D02*
X11497482Y-13316336D01*
X11716529Y-13335384D02*
X11754625Y-13335384D01*
X11754625Y-13335384D02*
X11773672Y-13325860D01*
X11773672Y-13325860D02*
X11783196Y-13316336D01*
X11783196Y-13316336D02*
X11802244Y-13287765D01*
X11802244Y-13287765D02*
X11811767Y-13249669D01*
X11811767Y-13249669D02*
X11811767Y-13173479D01*
X11811767Y-13173479D02*
X11802244Y-13154431D01*
X11802244Y-13154431D02*
X11792720Y-13144908D01*
X11792720Y-13144908D02*
X11773672Y-13135384D01*
X11773672Y-13135384D02*
X11735577Y-13135384D01*
X11735577Y-13135384D02*
X11716529Y-13144908D01*
X11716529Y-13144908D02*
X11707006Y-13154431D01*
X11707006Y-13154431D02*
X11697482Y-13173479D01*
X11697482Y-13173479D02*
X11697482Y-13221098D01*
X11697482Y-13221098D02*
X11707006Y-13240146D01*
X11707006Y-13240146D02*
X11716529Y-13249669D01*
X11716529Y-13249669D02*
X11735577Y-13259193D01*
X11735577Y-13259193D02*
X11773672Y-13259193D01*
X11773672Y-13259193D02*
X11792720Y-13249669D01*
X11792720Y-13249669D02*
X11802244Y-13240146D01*
X11802244Y-13240146D02*
X11811767Y-13221098D01*
X11926053Y-13221098D02*
X11907006Y-13211574D01*
X11907006Y-13211574D02*
X11897482Y-13202050D01*
X11897482Y-13202050D02*
X11887958Y-13183003D01*
X11887958Y-13183003D02*
X11887958Y-13173479D01*
X11887958Y-13173479D02*
X11897482Y-13154431D01*
X11897482Y-13154431D02*
X11907006Y-13144908D01*
X11907006Y-13144908D02*
X11926053Y-13135384D01*
X11926053Y-13135384D02*
X11964148Y-13135384D01*
X11964148Y-13135384D02*
X11983196Y-13144908D01*
X11983196Y-13144908D02*
X11992720Y-13154431D01*
X11992720Y-13154431D02*
X12002244Y-13173479D01*
X12002244Y-13173479D02*
X12002244Y-13183003D01*
X12002244Y-13183003D02*
X11992720Y-13202050D01*
X11992720Y-13202050D02*
X11983196Y-13211574D01*
X11983196Y-13211574D02*
X11964148Y-13221098D01*
X11964148Y-13221098D02*
X11926053Y-13221098D01*
X11926053Y-13221098D02*
X11907006Y-13230622D01*
X11907006Y-13230622D02*
X11897482Y-13240146D01*
X11897482Y-13240146D02*
X11887958Y-13259193D01*
X11887958Y-13259193D02*
X11887958Y-13297288D01*
X11887958Y-13297288D02*
X11897482Y-13316336D01*
X11897482Y-13316336D02*
X11907006Y-13325860D01*
X11907006Y-13325860D02*
X11926053Y-13335384D01*
X11926053Y-13335384D02*
X11964148Y-13335384D01*
X11964148Y-13335384D02*
X11983196Y-13325860D01*
X11983196Y-13325860D02*
X11992720Y-13316336D01*
X11992720Y-13316336D02*
X12002244Y-13297288D01*
X12002244Y-13297288D02*
X12002244Y-13259193D01*
X12002244Y-13259193D02*
X11992720Y-13240146D01*
X11992720Y-13240146D02*
X11983196Y-13230622D01*
X11983196Y-13230622D02*
X11964148Y-13221098D01*
X12078434Y-13135384D02*
X12078434Y-13173479D01*
X12154625Y-13135384D02*
X12154625Y-13173479D01*
X12449863Y-13411574D02*
X12440339Y-13402050D01*
X12440339Y-13402050D02*
X12421291Y-13373479D01*
X12421291Y-13373479D02*
X12411768Y-13354431D01*
X12411768Y-13354431D02*
X12402244Y-13325860D01*
X12402244Y-13325860D02*
X12392720Y-13278241D01*
X12392720Y-13278241D02*
X12392720Y-13240146D01*
X12392720Y-13240146D02*
X12402244Y-13192527D01*
X12402244Y-13192527D02*
X12411768Y-13163955D01*
X12411768Y-13163955D02*
X12421291Y-13144908D01*
X12421291Y-13144908D02*
X12440339Y-13116336D01*
X12440339Y-13116336D02*
X12449863Y-13106812D01*
X12516529Y-13154431D02*
X12526053Y-13144908D01*
X12526053Y-13144908D02*
X12545101Y-13135384D01*
X12545101Y-13135384D02*
X12592720Y-13135384D01*
X12592720Y-13135384D02*
X12611768Y-13144908D01*
X12611768Y-13144908D02*
X12621291Y-13154431D01*
X12621291Y-13154431D02*
X12630815Y-13173479D01*
X12630815Y-13173479D02*
X12630815Y-13192527D01*
X12630815Y-13192527D02*
X12621291Y-13221098D01*
X12621291Y-13221098D02*
X12507006Y-13335384D01*
X12507006Y-13335384D02*
X12630815Y-13335384D01*
X12868910Y-13335384D02*
X12868910Y-13135384D01*
X12954625Y-13335384D02*
X12954625Y-13230622D01*
X12954625Y-13230622D02*
X12945101Y-13211574D01*
X12945101Y-13211574D02*
X12926053Y-13202050D01*
X12926053Y-13202050D02*
X12897482Y-13202050D01*
X12897482Y-13202050D02*
X12878434Y-13211574D01*
X12878434Y-13211574D02*
X12868910Y-13221098D01*
X13078434Y-13335384D02*
X13059387Y-13325860D01*
X13059387Y-13325860D02*
X13049863Y-13316336D01*
X13049863Y-13316336D02*
X13040339Y-13297288D01*
X13040339Y-13297288D02*
X13040339Y-13240146D01*
X13040339Y-13240146D02*
X13049863Y-13221098D01*
X13049863Y-13221098D02*
X13059387Y-13211574D01*
X13059387Y-13211574D02*
X13078434Y-13202050D01*
X13078434Y-13202050D02*
X13107006Y-13202050D01*
X13107006Y-13202050D02*
X13126053Y-13211574D01*
X13126053Y-13211574D02*
X13135577Y-13221098D01*
X13135577Y-13221098D02*
X13145101Y-13240146D01*
X13145101Y-13240146D02*
X13145101Y-13297288D01*
X13145101Y-13297288D02*
X13135577Y-13316336D01*
X13135577Y-13316336D02*
X13126053Y-13325860D01*
X13126053Y-13325860D02*
X13107006Y-13335384D01*
X13107006Y-13335384D02*
X13078434Y-13335384D01*
X13259387Y-13335384D02*
X13240339Y-13325860D01*
X13240339Y-13325860D02*
X13230815Y-13306812D01*
X13230815Y-13306812D02*
X13230815Y-13135384D01*
X13411768Y-13325860D02*
X13392720Y-13335384D01*
X13392720Y-13335384D02*
X13354625Y-13335384D01*
X13354625Y-13335384D02*
X13335577Y-13325860D01*
X13335577Y-13325860D02*
X13326053Y-13306812D01*
X13326053Y-13306812D02*
X13326053Y-13230622D01*
X13326053Y-13230622D02*
X13335577Y-13211574D01*
X13335577Y-13211574D02*
X13354625Y-13202050D01*
X13354625Y-13202050D02*
X13392720Y-13202050D01*
X13392720Y-13202050D02*
X13411768Y-13211574D01*
X13411768Y-13211574D02*
X13421291Y-13230622D01*
X13421291Y-13230622D02*
X13421291Y-13249669D01*
X13421291Y-13249669D02*
X13326053Y-13268717D01*
X13497482Y-13325860D02*
X13516530Y-13335384D01*
X13516530Y-13335384D02*
X13554625Y-13335384D01*
X13554625Y-13335384D02*
X13573672Y-13325860D01*
X13573672Y-13325860D02*
X13583196Y-13306812D01*
X13583196Y-13306812D02*
X13583196Y-13297288D01*
X13583196Y-13297288D02*
X13573672Y-13278241D01*
X13573672Y-13278241D02*
X13554625Y-13268717D01*
X13554625Y-13268717D02*
X13526053Y-13268717D01*
X13526053Y-13268717D02*
X13507006Y-13259193D01*
X13507006Y-13259193D02*
X13497482Y-13240146D01*
X13497482Y-13240146D02*
X13497482Y-13230622D01*
X13497482Y-13230622D02*
X13507006Y-13211574D01*
X13507006Y-13211574D02*
X13526053Y-13202050D01*
X13526053Y-13202050D02*
X13554625Y-13202050D01*
X13554625Y-13202050D02*
X13573672Y-13211574D01*
X13649863Y-13411574D02*
X13659387Y-13402050D01*
X13659387Y-13402050D02*
X13678434Y-13373479D01*
X13678434Y-13373479D02*
X13687958Y-13354431D01*
X13687958Y-13354431D02*
X13697482Y-13325860D01*
X13697482Y-13325860D02*
X13707006Y-13278241D01*
X13707006Y-13278241D02*
X13707006Y-13240146D01*
X13707006Y-13240146D02*
X13697482Y-13192527D01*
X13697482Y-13192527D02*
X13687958Y-13163955D01*
X13687958Y-13163955D02*
X13678434Y-13144908D01*
X13678434Y-13144908D02*
X13659387Y-13116336D01*
X13659387Y-13116336D02*
X13649863Y-13106812D01*
X8674800Y-13407900D02*
X8874800Y-13607900D01*
X8874800Y-13407900D02*
X8674800Y-13607900D01*
X8874800Y-13507900D02*
G75*
G02*
X8674800Y-13507900I-100000J0D01*
G01*
X8674800Y-13507900D02*
G75*
G02*
X8874800Y-13507900I100000J0D01*
G01*
X9116529Y-13399384D02*
X9240339Y-13399384D01*
X9240339Y-13399384D02*
X9173672Y-13475574D01*
X9173672Y-13475574D02*
X9202244Y-13475574D01*
X9202244Y-13475574D02*
X9221291Y-13485098D01*
X9221291Y-13485098D02*
X9230815Y-13494622D01*
X9230815Y-13494622D02*
X9240339Y-13513669D01*
X9240339Y-13513669D02*
X9240339Y-13561288D01*
X9240339Y-13561288D02*
X9230815Y-13580336D01*
X9230815Y-13580336D02*
X9221291Y-13589860D01*
X9221291Y-13589860D02*
X9202244Y-13599384D01*
X9202244Y-13599384D02*
X9145101Y-13599384D01*
X9145101Y-13599384D02*
X9126053Y-13589860D01*
X9126053Y-13589860D02*
X9116529Y-13580336D01*
X9326053Y-13580336D02*
X9335577Y-13589860D01*
X9335577Y-13589860D02*
X9326053Y-13599384D01*
X9326053Y-13599384D02*
X9316529Y-13589860D01*
X9316529Y-13589860D02*
X9326053Y-13580336D01*
X9326053Y-13580336D02*
X9326053Y-13599384D01*
X9402244Y-13399384D02*
X9535577Y-13399384D01*
X9535577Y-13399384D02*
X9449863Y-13599384D01*
X9649863Y-13399384D02*
X9668910Y-13399384D01*
X9668910Y-13399384D02*
X9687958Y-13408908D01*
X9687958Y-13408908D02*
X9697482Y-13418431D01*
X9697482Y-13418431D02*
X9707005Y-13437479D01*
X9707005Y-13437479D02*
X9716529Y-13475574D01*
X9716529Y-13475574D02*
X9716529Y-13523193D01*
X9716529Y-13523193D02*
X9707005Y-13561288D01*
X9707005Y-13561288D02*
X9697482Y-13580336D01*
X9697482Y-13580336D02*
X9687958Y-13589860D01*
X9687958Y-13589860D02*
X9668910Y-13599384D01*
X9668910Y-13599384D02*
X9649863Y-13599384D01*
X9649863Y-13599384D02*
X9630815Y-13589860D01*
X9630815Y-13589860D02*
X9621291Y-13580336D01*
X9621291Y-13580336D02*
X9611767Y-13561288D01*
X9611767Y-13561288D02*
X9602244Y-13523193D01*
X9602244Y-13523193D02*
X9602244Y-13475574D01*
X9602244Y-13475574D02*
X9611767Y-13437479D01*
X9611767Y-13437479D02*
X9621291Y-13418431D01*
X9621291Y-13418431D02*
X9630815Y-13408908D01*
X9630815Y-13408908D02*
X9649863Y-13399384D01*
X9840339Y-13399384D02*
X9859386Y-13399384D01*
X9859386Y-13399384D02*
X9878434Y-13408908D01*
X9878434Y-13408908D02*
X9887958Y-13418431D01*
X9887958Y-13418431D02*
X9897482Y-13437479D01*
X9897482Y-13437479D02*
X9907005Y-13475574D01*
X9907005Y-13475574D02*
X9907005Y-13523193D01*
X9907005Y-13523193D02*
X9897482Y-13561288D01*
X9897482Y-13561288D02*
X9887958Y-13580336D01*
X9887958Y-13580336D02*
X9878434Y-13589860D01*
X9878434Y-13589860D02*
X9859386Y-13599384D01*
X9859386Y-13599384D02*
X9840339Y-13599384D01*
X9840339Y-13599384D02*
X9821291Y-13589860D01*
X9821291Y-13589860D02*
X9811767Y-13580336D01*
X9811767Y-13580336D02*
X9802244Y-13561288D01*
X9802244Y-13561288D02*
X9792720Y-13523193D01*
X9792720Y-13523193D02*
X9792720Y-13475574D01*
X9792720Y-13475574D02*
X9802244Y-13437479D01*
X9802244Y-13437479D02*
X9811767Y-13418431D01*
X9811767Y-13418431D02*
X9821291Y-13408908D01*
X9821291Y-13408908D02*
X9840339Y-13399384D01*
X9992720Y-13599384D02*
X9992720Y-13466050D01*
X9992720Y-13485098D02*
X10002244Y-13475574D01*
X10002244Y-13475574D02*
X10021291Y-13466050D01*
X10021291Y-13466050D02*
X10049863Y-13466050D01*
X10049863Y-13466050D02*
X10068910Y-13475574D01*
X10068910Y-13475574D02*
X10078434Y-13494622D01*
X10078434Y-13494622D02*
X10078434Y-13599384D01*
X10078434Y-13494622D02*
X10087958Y-13475574D01*
X10087958Y-13475574D02*
X10107005Y-13466050D01*
X10107005Y-13466050D02*
X10135577Y-13466050D01*
X10135577Y-13466050D02*
X10154625Y-13475574D01*
X10154625Y-13475574D02*
X10164148Y-13494622D01*
X10164148Y-13494622D02*
X10164148Y-13599384D01*
X10259386Y-13599384D02*
X10259386Y-13466050D01*
X10259386Y-13485098D02*
X10268910Y-13475574D01*
X10268910Y-13475574D02*
X10287958Y-13466050D01*
X10287958Y-13466050D02*
X10316529Y-13466050D01*
X10316529Y-13466050D02*
X10335577Y-13475574D01*
X10335577Y-13475574D02*
X10345101Y-13494622D01*
X10345101Y-13494622D02*
X10345101Y-13599384D01*
X10345101Y-13494622D02*
X10354625Y-13475574D01*
X10354625Y-13475574D02*
X10373672Y-13466050D01*
X10373672Y-13466050D02*
X10402244Y-13466050D01*
X10402244Y-13466050D02*
X10421291Y-13475574D01*
X10421291Y-13475574D02*
X10430815Y-13494622D01*
X10430815Y-13494622D02*
X10430815Y-13599384D01*
X10821291Y-13389860D02*
X10649863Y-13647003D01*
X11078434Y-13399384D02*
X11097482Y-13399384D01*
X11097482Y-13399384D02*
X11116529Y-13408908D01*
X11116529Y-13408908D02*
X11126053Y-13418431D01*
X11126053Y-13418431D02*
X11135577Y-13437479D01*
X11135577Y-13437479D02*
X11145101Y-13475574D01*
X11145101Y-13475574D02*
X11145101Y-13523193D01*
X11145101Y-13523193D02*
X11135577Y-13561288D01*
X11135577Y-13561288D02*
X11126053Y-13580336D01*
X11126053Y-13580336D02*
X11116529Y-13589860D01*
X11116529Y-13589860D02*
X11097482Y-13599384D01*
X11097482Y-13599384D02*
X11078434Y-13599384D01*
X11078434Y-13599384D02*
X11059387Y-13589860D01*
X11059387Y-13589860D02*
X11049863Y-13580336D01*
X11049863Y-13580336D02*
X11040339Y-13561288D01*
X11040339Y-13561288D02*
X11030815Y-13523193D01*
X11030815Y-13523193D02*
X11030815Y-13475574D01*
X11030815Y-13475574D02*
X11040339Y-13437479D01*
X11040339Y-13437479D02*
X11049863Y-13418431D01*
X11049863Y-13418431D02*
X11059387Y-13408908D01*
X11059387Y-13408908D02*
X11078434Y-13399384D01*
X11230815Y-13580336D02*
X11240339Y-13589860D01*
X11240339Y-13589860D02*
X11230815Y-13599384D01*
X11230815Y-13599384D02*
X11221291Y-13589860D01*
X11221291Y-13589860D02*
X11230815Y-13580336D01*
X11230815Y-13580336D02*
X11230815Y-13599384D01*
X11430815Y-13599384D02*
X11316529Y-13599384D01*
X11373672Y-13599384D02*
X11373672Y-13399384D01*
X11373672Y-13399384D02*
X11354625Y-13427955D01*
X11354625Y-13427955D02*
X11335577Y-13447003D01*
X11335577Y-13447003D02*
X11316529Y-13456527D01*
X11602244Y-13466050D02*
X11602244Y-13599384D01*
X11554625Y-13389860D02*
X11507006Y-13532717D01*
X11507006Y-13532717D02*
X11630815Y-13532717D01*
X11802244Y-13399384D02*
X11707006Y-13399384D01*
X11707006Y-13399384D02*
X11697482Y-13494622D01*
X11697482Y-13494622D02*
X11707006Y-13485098D01*
X11707006Y-13485098D02*
X11726053Y-13475574D01*
X11726053Y-13475574D02*
X11773672Y-13475574D01*
X11773672Y-13475574D02*
X11792720Y-13485098D01*
X11792720Y-13485098D02*
X11802244Y-13494622D01*
X11802244Y-13494622D02*
X11811767Y-13513669D01*
X11811767Y-13513669D02*
X11811767Y-13561288D01*
X11811767Y-13561288D02*
X11802244Y-13580336D01*
X11802244Y-13580336D02*
X11792720Y-13589860D01*
X11792720Y-13589860D02*
X11773672Y-13599384D01*
X11773672Y-13599384D02*
X11726053Y-13599384D01*
X11726053Y-13599384D02*
X11707006Y-13589860D01*
X11707006Y-13589860D02*
X11697482Y-13580336D01*
X11878434Y-13399384D02*
X12011767Y-13399384D01*
X12011767Y-13399384D02*
X11926053Y-13599384D01*
X12078434Y-13399384D02*
X12078434Y-13437479D01*
X12154625Y-13399384D02*
X12154625Y-13437479D01*
X12449863Y-13675574D02*
X12440339Y-13666050D01*
X12440339Y-13666050D02*
X12421291Y-13637479D01*
X12421291Y-13637479D02*
X12411768Y-13618431D01*
X12411768Y-13618431D02*
X12402244Y-13589860D01*
X12402244Y-13589860D02*
X12392720Y-13542241D01*
X12392720Y-13542241D02*
X12392720Y-13504146D01*
X12392720Y-13504146D02*
X12402244Y-13456527D01*
X12402244Y-13456527D02*
X12411768Y-13427955D01*
X12411768Y-13427955D02*
X12421291Y-13408908D01*
X12421291Y-13408908D02*
X12440339Y-13380336D01*
X12440339Y-13380336D02*
X12449863Y-13370812D01*
X12611768Y-13466050D02*
X12611768Y-13599384D01*
X12564148Y-13389860D02*
X12516529Y-13532717D01*
X12516529Y-13532717D02*
X12640339Y-13532717D01*
X12868910Y-13599384D02*
X12868910Y-13399384D01*
X12954625Y-13599384D02*
X12954625Y-13494622D01*
X12954625Y-13494622D02*
X12945101Y-13475574D01*
X12945101Y-13475574D02*
X12926053Y-13466050D01*
X12926053Y-13466050D02*
X12897482Y-13466050D01*
X12897482Y-13466050D02*
X12878434Y-13475574D01*
X12878434Y-13475574D02*
X12868910Y-13485098D01*
X13078434Y-13599384D02*
X13059387Y-13589860D01*
X13059387Y-13589860D02*
X13049863Y-13580336D01*
X13049863Y-13580336D02*
X13040339Y-13561288D01*
X13040339Y-13561288D02*
X13040339Y-13504146D01*
X13040339Y-13504146D02*
X13049863Y-13485098D01*
X13049863Y-13485098D02*
X13059387Y-13475574D01*
X13059387Y-13475574D02*
X13078434Y-13466050D01*
X13078434Y-13466050D02*
X13107006Y-13466050D01*
X13107006Y-13466050D02*
X13126053Y-13475574D01*
X13126053Y-13475574D02*
X13135577Y-13485098D01*
X13135577Y-13485098D02*
X13145101Y-13504146D01*
X13145101Y-13504146D02*
X13145101Y-13561288D01*
X13145101Y-13561288D02*
X13135577Y-13580336D01*
X13135577Y-13580336D02*
X13126053Y-13589860D01*
X13126053Y-13589860D02*
X13107006Y-13599384D01*
X13107006Y-13599384D02*
X13078434Y-13599384D01*
X13259387Y-13599384D02*
X13240339Y-13589860D01*
X13240339Y-13589860D02*
X13230815Y-13570812D01*
X13230815Y-13570812D02*
X13230815Y-13399384D01*
X13411768Y-13589860D02*
X13392720Y-13599384D01*
X13392720Y-13599384D02*
X13354625Y-13599384D01*
X13354625Y-13599384D02*
X13335577Y-13589860D01*
X13335577Y-13589860D02*
X13326053Y-13570812D01*
X13326053Y-13570812D02*
X13326053Y-13494622D01*
X13326053Y-13494622D02*
X13335577Y-13475574D01*
X13335577Y-13475574D02*
X13354625Y-13466050D01*
X13354625Y-13466050D02*
X13392720Y-13466050D01*
X13392720Y-13466050D02*
X13411768Y-13475574D01*
X13411768Y-13475574D02*
X13421291Y-13494622D01*
X13421291Y-13494622D02*
X13421291Y-13513669D01*
X13421291Y-13513669D02*
X13326053Y-13532717D01*
X13497482Y-13589860D02*
X13516530Y-13599384D01*
X13516530Y-13599384D02*
X13554625Y-13599384D01*
X13554625Y-13599384D02*
X13573672Y-13589860D01*
X13573672Y-13589860D02*
X13583196Y-13570812D01*
X13583196Y-13570812D02*
X13583196Y-13561288D01*
X13583196Y-13561288D02*
X13573672Y-13542241D01*
X13573672Y-13542241D02*
X13554625Y-13532717D01*
X13554625Y-13532717D02*
X13526053Y-13532717D01*
X13526053Y-13532717D02*
X13507006Y-13523193D01*
X13507006Y-13523193D02*
X13497482Y-13504146D01*
X13497482Y-13504146D02*
X13497482Y-13494622D01*
X13497482Y-13494622D02*
X13507006Y-13475574D01*
X13507006Y-13475574D02*
X13526053Y-13466050D01*
X13526053Y-13466050D02*
X13554625Y-13466050D01*
X13554625Y-13466050D02*
X13573672Y-13475574D01*
X13649863Y-13675574D02*
X13659387Y-13666050D01*
X13659387Y-13666050D02*
X13678434Y-13637479D01*
X13678434Y-13637479D02*
X13687958Y-13618431D01*
X13687958Y-13618431D02*
X13697482Y-13589860D01*
X13697482Y-13589860D02*
X13707006Y-13542241D01*
X13707006Y-13542241D02*
X13707006Y-13504146D01*
X13707006Y-13504146D02*
X13697482Y-13456527D01*
X13697482Y-13456527D02*
X13687958Y-13427955D01*
X13687958Y-13427955D02*
X13678434Y-13408908D01*
X13678434Y-13408908D02*
X13659387Y-13380336D01*
X13659387Y-13380336D02*
X13649863Y-13370812D01*
M02*
