G04 #@! TF.GenerationSoftware,KiCad,Pcbnew,8.0.5*
G04 #@! TF.CreationDate,2024-10-22T13:44:55+03:00*
G04 #@! TF.ProjectId,DC36_DC5,44433336-5f44-4433-952e-6b696361645f,rev?*
G04 #@! TF.SameCoordinates,Original*
G04 #@! TF.FileFunction,Paste,Top*
G04 #@! TF.FilePolarity,Positive*
%FSLAX46Y46*%
G04 Gerber Fmt 4.6, Leading zero omitted, Abs format (unit mm)*
G04 Created by KiCad (PCBNEW 8.0.5) date 2024-10-22 13:44:55*
%MOMM*%
%LPD*%
G01*
G04 APERTURE LIST*
G04 Aperture macros list*
%AMRoundRect*
0 Rectangle with rounded corners*
0 $1 Rounding radius*
0 $2 $3 $4 $5 $6 $7 $8 $9 X,Y pos of 4 corners*
0 Add a 4 corners polygon primitive as box body*
4,1,4,$2,$3,$4,$5,$6,$7,$8,$9,$2,$3,0*
0 Add four circle primitives for the rounded corners*
1,1,$1+$1,$2,$3*
1,1,$1+$1,$4,$5*
1,1,$1+$1,$6,$7*
1,1,$1+$1,$8,$9*
0 Add four rect primitives between the rounded corners*
20,1,$1+$1,$2,$3,$4,$5,0*
20,1,$1+$1,$4,$5,$6,$7,0*
20,1,$1+$1,$6,$7,$8,$9,0*
20,1,$1+$1,$8,$9,$2,$3,0*%
%AMOutline4P*
0 Free polygon, 4 corners , with rotation*
0 The origin of the aperture is its center*
0 number of corners: always 4*
0 $1 to $8 corner X, Y*
0 $9 Rotation angle, in degrees counterclockwise*
0 create outline with 4 corners*
4,1,4,$1,$2,$3,$4,$5,$6,$7,$8,$1,$2,$9*%
G04 Aperture macros list end*
%ADD10RoundRect,0.250000X0.450000X-0.325000X0.450000X0.325000X-0.450000X0.325000X-0.450000X-0.325000X0*%
%ADD11RoundRect,0.250000X-2.375000X2.025000X-2.375000X-2.025000X2.375000X-2.025000X2.375000X2.025000X0*%
%ADD12RoundRect,0.887500X-0.887500X1.812500X-0.887500X-1.812500X0.887500X-1.812500X0.887500X1.812500X0*%
%ADD13RoundRect,0.880000X-0.880000X1.845000X-0.880000X-1.845000X0.880000X-1.845000X0.880000X1.845000X0*%
%ADD14RoundRect,0.250000X-0.325000X-0.650000X0.325000X-0.650000X0.325000X0.650000X-0.325000X0.650000X0*%
%ADD15RoundRect,0.251000X-2.144000X-1.004000X2.144000X-1.004000X2.144000X1.004000X-2.144000X1.004000X0*%
%ADD16RoundRect,0.251000X-2.254000X-1.004000X2.254000X-1.004000X2.254000X1.004000X-2.254000X1.004000X0*%
%ADD17RoundRect,0.250000X2.375000X-2.025000X2.375000X2.025000X-2.375000X2.025000X-2.375000X-2.025000X0*%
%ADD18RoundRect,0.887500X0.887500X-1.812500X0.887500X1.812500X-0.887500X1.812500X-0.887500X-1.812500X0*%
%ADD19RoundRect,0.880000X0.880000X-1.845000X0.880000X1.845000X-0.880000X1.845000X-0.880000X-1.845000X0*%
%ADD20RoundRect,0.251000X1.004000X-2.144000X1.004000X2.144000X-1.004000X2.144000X-1.004000X-2.144000X0*%
%ADD21RoundRect,0.251000X1.004000X-2.254000X1.004000X2.254000X-1.004000X2.254000X-1.004000X-2.254000X0*%
%ADD22RoundRect,0.225000X0.225000X0.250000X-0.225000X0.250000X-0.225000X-0.250000X0.225000X-0.250000X0*%
%ADD23Outline4P,-2.150000X-1.800000X2.150000X-0.800000X2.150000X0.800000X-2.150000X1.800000X180.000000*%
%ADD24Outline4P,-2.150000X-1.800000X2.150000X-0.800000X2.150000X0.800000X-2.150000X1.800000X0.000000*%
%ADD25RoundRect,0.250000X-0.350000X-0.450000X0.350000X-0.450000X0.350000X0.450000X-0.350000X0.450000X0*%
%ADD26R,12.800000X8.000000*%
%ADD27RoundRect,0.250000X-0.450000X0.350000X-0.450000X-0.350000X0.450000X-0.350000X0.450000X0.350000X0*%
%ADD28RoundRect,0.225000X0.250000X-0.225000X0.250000X0.225000X-0.250000X0.225000X-0.250000X-0.225000X0*%
%ADD29RoundRect,0.250000X-2.050000X-0.300000X2.050000X-0.300000X2.050000X0.300000X-2.050000X0.300000X0*%
%ADD30RoundRect,0.250002X-4.449998X-5.149998X4.449998X-5.149998X4.449998X5.149998X-4.449998X5.149998X0*%
G04 APERTURE END LIST*
D10*
X150373000Y-98404000D03*
X150373000Y-96354000D03*
D11*
X108415000Y-103874000D03*
X102865000Y-103874000D03*
X108415000Y-108724000D03*
X102865000Y-108724000D03*
D12*
X108405000Y-97469000D03*
D13*
X102880000Y-97454000D03*
D14*
X112952000Y-111887000D03*
X115902000Y-111887000D03*
D15*
X137922000Y-89794000D03*
D16*
X145822000Y-89794000D03*
D17*
X140071000Y-102927000D03*
X145621000Y-102927000D03*
X140071000Y-98077000D03*
X145621000Y-98077000D03*
D18*
X140081000Y-109332000D03*
D19*
X145606000Y-109347000D03*
D20*
X105288000Y-88968000D03*
D21*
X105288000Y-81068000D03*
D22*
X102948000Y-92854000D03*
X101398000Y-92854000D03*
D23*
X144297000Y-80645000D03*
D24*
X137897000Y-80645000D03*
D25*
X123016000Y-111887000D03*
X125016000Y-111887000D03*
D26*
X123273000Y-92576000D03*
X123273000Y-82176000D03*
D25*
X118444000Y-111887000D03*
X120444000Y-111887000D03*
D27*
X150368000Y-90059000D03*
X150368000Y-92059000D03*
D28*
X112776000Y-83960000D03*
X112776000Y-82410000D03*
D29*
X122428000Y-100642000D03*
X122428000Y-102342000D03*
X122428000Y-104042000D03*
D30*
X131578000Y-104042000D03*
D29*
X122428000Y-105742000D03*
X122428000Y-107442000D03*
M02*
