M48
; DRILL file {KiCad 8.0.5} date 2024-10-22T03:07:10+0300
; FORMAT={-:-/ absolute / inch / decimal}
; #@! TF.CreationDate,2024-10-22T03:07:10+03:00
; #@! TF.GenerationSoftware,Kicad,Pcbnew,8.0.5
; #@! TF.FileFunction,Plated,1,2,PTH
FMAT,2
INCH
; #@! TA.AperFunction,Plated,PTH,ViaDrill
T1C0.0118
; #@! TA.AperFunction,Plated,PTH,ViaDrill
T2C0.0197
; #@! TA.AperFunction,Plated,PTH,ComponentDrill
T3C0.0197
; #@! TA.AperFunction,Plated,PTH,ComponentDrill
T4C0.0315
; #@! TA.AperFunction,Plated,PTH,ComponentDrill
T5C0.0398
; #@! TA.AperFunction,Plated,PTH,ComponentDrill
T6C0.1457
%
G90
G05
T1
X5.0304Y-3.9194
X5.0304Y-4.0966
X5.0304Y-4.2777
X5.0324Y-4.0139
X5.0324Y-4.1793
X5.1062Y-3.9194
X5.1062Y-4.0966
X5.1062Y-4.2777
X5.1082Y-4.0139
X5.1082Y-4.1793
X5.182Y-3.9194
X5.182Y-4.0966
X5.182Y-4.2777
X5.184Y-4.0139
X5.184Y-4.1793
X5.2578Y-3.9194
X5.2578Y-4.0966
X5.2578Y-4.2777
X5.2598Y-4.0139
X5.2598Y-4.1793
X5.3336Y-3.9194
X5.3336Y-4.0966
X5.3336Y-4.2777
X5.3356Y-4.0139
X5.3356Y-4.1793
X5.8Y-3.1695
T2
X4.684Y-3.8368
X4.6844Y-4.0292
T3
X3.5629Y-3.1872
X3.5629Y-4.3683
X3.5949Y-3.1099
X3.5949Y-3.2644
X3.5949Y-4.291
X3.5949Y-4.4455
X3.6722Y-3.0779
X3.6722Y-3.2964
X3.6722Y-4.259
X3.6722Y-4.4775
X3.7494Y-3.1099
X3.7494Y-3.2644
X3.7494Y-4.291
X3.7494Y-4.4455
X3.7814Y-3.1872
X3.7814Y-4.3683
T4
X4.5344Y-4.0
X4.5344Y-4.1
X4.5344Y-4.2
T5
X3.8178Y-3.8742
X3.8651Y-3.6734
T6
X3.6722Y-3.1872
X3.6722Y-4.3683
X6.0344Y-3.1872
X6.0344Y-4.3683
M30
